<?xml version="1.0" standalone="no"?>
<!DOCTYPE svg PUBLIC "-//W3C//DTD SVG 1.1//EN" "http://www.w3.org/Graphics/SVG/1.1/DTD/svg11.dtd" >
<svg xmlns="http://www.w3.org/2000/svg" xmlns:xlink="http://www.w3.org/1999/xlink" version="1.1">
<metadata>
Created by FontForge 20170731 at Fri Oct 24 19:03:24 2014
 By Aleksey,,,
Copyright (c) 2012 by Fontfabric LLC. All rights reserved.
</metadata>
<defs>
<font id="Panton-ExtraBoldItalic" horiz-adv-x="555" >
  <font-face 
    font-family="Panton ExtraBold Italic"
    font-weight="800"
    font-style="italic"
    font-stretch="normal"
    units-per-em="1000"
    panose-1="0 0 9 0 0 0 0 0 0 0"
    ascent="740"
    descent="-260"
    x-height="520"
    cap-height="710"
    bbox="-198.229 -260 1179.91 979.257"
    underline-thickness="50"
    underline-position="-250"
    unicode-range="U+0020-FB02"
  />
<missing-glyph horiz-adv-x="686" 
d="M626 41q0 -23 -9 -32t-32 -9h-479q-23 0 -32 9t-9 32v628q0 23 9 32t32 9h479q23 0 32 -9t9 -32v-628zM227 562v-413h237v413h-237z" />
    <glyph glyph-name="fi" unicode="fi" horiz-adv-x="607" 
d="M598 740q20 0 26.5 -8t2.5 -30l-10 -58q-4 -22 -13.5 -30t-30.5 -8h-186q-90 0 -104 -81l-1 -5h277q20 0 26.5 -8t2.5 -29l-78 -446q-4 -21 -13.5 -29t-29.5 -8h-78q-20 0 -27 8t-3 29l62 349h-163l-61 -349q-4 -21 -13.5 -29t-31.5 -8h-76q-21 0 -27.5 8t-2.5 29l61 349
h-43q-21 0 -28 8t-3 29l11 60q4 21 13.5 29t29.5 8h44v4q38 216 277 216h190z" />
    <glyph glyph-name="fl" unicode="fl" horiz-adv-x="599" 
d="M587 740q21 0 27.5 -8t2.5 -29l-117 -666q-4 -21 -13.5 -29t-30.5 -8h-77q-21 0 -27.5 8t-2.5 29l100 569h-62q-91 0 -104 -81l-1 -5h56q20 0 26.5 -8t2.5 -29l-10 -60q-4 -21 -13 -29t-30 -8h-56l-61 -349q-4 -21 -13.5 -29t-31.5 -8h-76q-21 0 -27.5 8t-2.5 29l61 349
h-43q-21 0 -28 8t-3 29l11 60q4 21 13.5 29t29.5 8h44v5q19 105 89.5 160t187.5 55h179z" />
    <glyph glyph-name=".notdef" horiz-adv-x="686" 
d="M626 41q0 -23 -9 -32t-32 -9h-479q-23 0 -32 9t-9 32v628q0 23 9 32t32 9h479q23 0 32 -9t9 -32v-628zM227 562v-413h237v413h-237z" />
    <glyph glyph-name=".null" horiz-adv-x="600" 
 />
    <glyph glyph-name="nonmarkingreturn" horiz-adv-x="333" 
 />
    <glyph glyph-name="space" unicode=" " horiz-adv-x="206" 
 />
    <glyph glyph-name="exclam" unicode="!" horiz-adv-x="264" 
d="M251 740q21 0 27.5 -8t2.5 -29l-95 -444q-5 -21 -13.5 -28.5t-28.5 -7.5h-51q-20 0 -26.5 8t-3.5 28l63 444q3 21 12.5 29t30.5 8h82zM117 160q43 0 56.5 -16t6.5 -59l-4 -18q-8 -43 -26.5 -59t-61.5 -16h-21q-43 0 -56 16t-6 59l3 18q7 42 26.5 58.5t62.5 16.5h20z" />
    <glyph glyph-name="quotedbl" unicode="&#x22;" horiz-adv-x="382" 
d="M194 477q-5 -21 -12.5 -26t-28.5 -5h-45q-22 0 -27.5 5.5t-1.5 25.5l36 200q3 21 10.5 27t28.5 6h64q21 0 27 -6.5t1 -26.5zM354 477q-6 -21 -13.5 -26t-28.5 -5h-45q-21 0 -26.5 5.5t-1.5 25.5l35 200q4 21 11.5 27t27.5 6h64q22 0 27.5 -6t1.5 -27z" />
    <glyph glyph-name="numbersign" unicode="#" horiz-adv-x="739" 
d="M721 519q21 0 25.5 -7.5t-4.5 -27.5l-30 -64q-16 -34 -55 -34h-66l-48 -101h68q21 0 26 -8t-5 -28l-31 -64q-16 -34 -55 -34h-67l-54 -114q-10 -21 -21.5 -29t-31.5 -8h-68q-21 0 -25.5 8.5t5.5 28.5l54 114h-101l-53 -114q-19 -37 -54 -37h-68q-21 0 -25.5 8.5t5.5 28.5
l54 114h-67q-20 0 -24.5 8.5t4.5 27.5l30 64q10 20 21.5 27t33.5 7h65l49 101h-68q-21 0 -25.5 8t5.5 28l30 64q9 19 20.5 26t33.5 7h67l55 117q10 21 21.5 29t32.5 8h68q20 0 24.5 -8.5t-5.5 -28.5l-55 -117h101l55 117q10 21 21.5 29t32.5 8h68q20 0 24.5 -8.5t-5.5 -28.5
l-55 -117h67zM349 386l-48 -101h100l49 101h-101z" />
    <glyph glyph-name="dollar" unicode="$" horiz-adv-x="599" 
d="M422 767q21 0 27.5 -8t3.5 -28l-8 -41q109 -19 144 -132q6 -21 -1 -34t-32 -23l-69 -28q-22 -9 -33 -5t-18 25q-10 29 -30.5 43.5t-60.5 14.5q-54 0 -80 -13t-31 -45q-5 -28 23 -40.5t85 -18.5q38 -4 67 -10.5t62.5 -21.5t53 -37.5t29.5 -61t1 -89.5q-15 -83 -71 -128
t-156 -63l-8 -43q-4 -21 -13 -29t-30 -8h-76q-20 0 -27 8t-3 29l7 41q-144 23 -168 146q-7 39 37 54l72 24q24 8 35 3t17 -27q12 -61 99 -61q114 0 126 64q5 30 -23 42.5t-85 18.5q-38 5 -67.5 11.5t-63 22.5t-54 38.5t-30 60.5t-0.5 87q27 155 223 185l7 41q4 20 13.5 28
t29.5 8h76z" />
    <glyph glyph-name="percent" unicode="%" horiz-adv-x="846" 
d="M76 574q12 71 64 111.5t134 40.5q83 0 120.5 -40.5t25.5 -111.5l-13 -72q-13 -70 -64.5 -109.5t-134.5 -39.5q-82 0 -119.5 39.5t-25.5 109.5zM789 710q20 0 23.5 -11.5t-10.5 -27.5l-579 -635q-21 -24 -35.5 -30t-50.5 -6h-59q-21 0 -24.5 12t11.5 29l580 635
q20 23 33.5 28.5t46.5 5.5h64zM299 568q3 21 -8 32t-37 11q-51 0 -59 -43l-10 -57q-9 -45 44 -45q51 0 60 45zM457 206q12 71 64 111t134 40q83 0 120.5 -40t25.5 -111l-13 -72q-13 -71 -64.5 -110.5t-133.5 -39.5q-83 0 -120.5 39.5t-25.5 110.5zM680 199q8 44 -44 44
t-60 -44l-10 -57q-8 -44 44 -44t60 44z" />
    <glyph glyph-name="ampersand" unicode="&#x26;" horiz-adv-x="684" 
d="M142 540q14 79 76.5 132t159.5 53q81 0 128 -53t34 -130q-19 -113 -149 -176l-10 -5l72 -95l66 54q27 26 48 0l45 -54q16 -21 -10 -43l-72 -60l97 -127q26 -36 -24 -36h-97q-34 0 -50 21l-37 49q-62 -49 -110.5 -67t-104.5 -18q-102 0 -154 61t-34 160q23 125 156 192
q-43 63 -30 142zM403 545q4 23 -9.5 38.5t-37.5 15.5q-30 0 -50 -18t-24 -44q-4 -20 0.5 -36t23.5 -41l37 18q53 26 60 67zM247 298q-71 -34 -81 -95q-7 -36 12.5 -58.5t56.5 -22.5q21 0 42 8.5t32.5 17t31.5 25.5z" />
    <glyph glyph-name="quotesingle" unicode="'" horiz-adv-x="223" 
d="M194 477q-5 -21 -12.5 -26t-28.5 -5h-45q-22 0 -27.5 5.5t-1.5 25.5l36 200q3 21 10.5 27t28.5 6h64q21 0 27 -6.5t1 -26.5z" />
    <glyph glyph-name="parenleft" unicode="(" horiz-adv-x="307" 
d="M103 606q17 100 64.5 161t125.5 94q21 8 31 2.5t15 -26.5l21 -71q5 -20 -1 -29.5t-29 -20.5q-33 -16 -51.5 -41.5t-27.5 -70.5l-90 -513q-8 -45 2 -70t38 -41q18 -12 21 -21.5t-10 -28.5l-43 -57q-16 -21 -25.5 -25.5t-28.5 1.5q-67 33 -92.5 94.5t-8.5 161.5z" />
    <glyph glyph-name="parenright" unicode=")" horiz-adv-x="306" 
d="M155 837q16 21 25.5 25.5t28.5 -1.5q67 -33 93 -94t8 -161l-88 -501q-18 -101 -65.5 -162t-125.5 -94q-20 -8 -30 -2.5t-16 26.5l-19 72q-5 19 1.5 29t27.5 21q34 17 53 42t27 70l90 513q8 45 -2 70t-38 41q-18 12 -21 21.5t9 28.5z" />
    <glyph glyph-name="asterisk" unicode="*" horiz-adv-x="352" 
d="M260 675q26 0 16 -24l-26 -76l76 36q14 6 19.5 3t7.5 -16l7 -37q2 -24 -23 -28l-78 -11l44 -54q16 -17 -7 -33l-36 -22q-24 -15 -30 8l-22 66l-46 -66q-15 -24 -34 -9l-27 23q-19 16 3 33l65 54l-74 11q-25 4 -13 29l19 36q13 24 33 13l62 -36l1 76q-1 24 24 24h39z" />
    <glyph glyph-name="plus" unicode="+" horiz-adv-x="538" 
d="M485 397q22 0 29.5 -9t3.5 -32l-10 -57q-5 -23 -15 -32t-32 -9h-131l-24 -131q-4 -23 -14.5 -31.5t-33.5 -8.5h-57q-22 0 -29.5 8.5t-3.5 31.5l23 131h-130q-23 0 -30 9.5t-3 31.5l10 57q4 23 14.5 32t33.5 9h130l22 130q4 23 15 31.5t33 8.5h57q23 0 30 -9t3 -31
l-22 -130h131z" />
    <glyph glyph-name="comma" unicode="," horiz-adv-x="240" 
d="M92 -87q-8 -21 -18 -29t-31 -8h-35q-18 0 -22.5 5.5t-2.5 22.5l31 203q5 26 15.5 35.5t35.5 9.5h64q53 0 36 -45z" />
    <glyph glyph-name="hyphen" unicode="-" horiz-adv-x="406" 
d="M320 336q23 0 30.5 -9t3.5 -32l-11 -61q-4 -23 -14.5 -32t-33.5 -9h-222q-22 0 -29.5 9t-3.5 32l10 61q4 23 14.5 32t33.5 9h222z" />
    <glyph glyph-name="period" unicode="." horiz-adv-x="249" 
d="M109 162q43 0 56.5 -16.5t6.5 -59.5l-4 -19q-7 -43 -26.5 -59t-62.5 -16h-17q-43 0 -56 16t-6 59l4 19q7 43 26 59.5t62 16.5h17z" />
    <glyph glyph-name="slash" unicode="/" horiz-adv-x="470" 
d="M122 -26q-10 -20 -21.5 -27t-32.5 -7h-80q-20 0 -24 8t5 26l387 703q10 20 22 27t33 7h80q20 0 23.5 -8t-5.5 -26z" />
    <glyph glyph-name="zero" unicode="0" horiz-adv-x="640" 
d="M81 485q20 115 101.5 177.5t211.5 62.5q128 0 189 -71.5t40 -188.5l-42 -240q-20 -116 -101 -178t-211 -62q-129 0 -190.5 71.5t-40.5 188.5zM464 478q8 48 -16.5 73t-77.5 25t-87 -25.5t-41 -72.5l-44 -245q-8 -48 16.5 -73.5t77.5 -25.5t86.5 25.5t41.5 73.5z" />
    <glyph glyph-name="one" unicode="1" horiz-adv-x="438" 
d="M401 710q23 0 30.5 -9t3.5 -32l-111 -628q-4 -23 -14.5 -32t-33.5 -9h-81q-23 0 -30 9t-3 32l83 469l-107 -55q-46 -24 -59 16l-24 63q-7 19 0 31t29 24l200 105q30 16 60 16h57z" />
    <glyph glyph-name="two" unicode="2" horiz-adv-x="605" 
d="M92 557q96 168 295 168q117 0 174 -68t40 -170q-17 -107 -83 -161.5t-232 -115.5q-7 -3 -24.5 -8.5t-27 -9t-22 -9.5t-19.5 -13t-8 -16l-2 -7h304q23 0 30 -9.5t3 -31.5l-11 -65q-4 -23 -14.5 -32t-33.5 -9h-433q-22 0 -29.5 9t-3.5 32l13 79q7 40 25 72.5t38 53
t52.5 40.5t55.5 30t61 25q100 38 129 57q56 36 65 91q7 41 -13 64t-62 23q-76 0 -123 -73q-14 -23 -25 -28t-31 2l-72 28q-20 8 -24 19.5t8 32.5z" />
    <glyph glyph-name="three" unicode="3" horiz-adv-x="619" 
d="M596 513q-17 -94 -100 -141q89 -53 67 -176q-18 -101 -92.5 -156t-205.5 -55q-224 0 -255 168q-4 21 4 33t31 19l79 27q22 8 32 2t14 -28q9 -39 33.5 -56.5t79.5 -17.5q99 0 113 78q13 78 -70 78h-79q-23 0 -30.5 8.5t-3.5 31.5l10 62q4 23 14.5 32t33.5 9h59
q40 0 68 18.5t34 54.5q6 37 -13 55.5t-62 18.5q-52 0 -79.5 -16.5t-49.5 -55.5q-12 -22 -24 -27.5t-32 1.5l-70 27q-20 8 -23.5 19t7.5 33q46 83 118.5 124.5t185.5 41.5q114 0 168.5 -58.5t37.5 -153.5z" />
    <glyph glyph-name="four" unicode="4" horiz-adv-x="644" 
d="M580 287q23 0 30.5 -9t3.5 -32l-10 -56q-4 -23 -14.5 -32t-33.5 -9h-56l-20 -108q-4 -23 -14.5 -32t-33.5 -9h-70q-23 0 -30.5 9t-3.5 32l20 108h-314q-23 0 -30.5 9t-3.5 32l9 50q3 21 7.5 30.5t18.5 22.5l385 388q17 17 29 23t34 6h74q23 0 30.5 -9t3.5 -32l-67 -382
h56zM409 498l-210 -211h173z" />
    <glyph glyph-name="five" unicode="5" horiz-adv-x="604" 
d="M572 710q23 0 30 -9t3 -32l-11 -66q-4 -23 -14.5 -32t-33.5 -9h-267l-29 -105h92q124 0 178.5 -68t36.5 -170q-18 -104 -96 -169t-205 -65q-220 0 -252 165q-4 22 4 33t31 19l82 28q21 8 31.5 2.5t14.5 -27.5q15 -71 111 -71q42 0 71 24t38 70q7 40 -15 62.5t-65 22.5
h-208q-26 0 -33 11t-1 36l82 292q9 33 24.5 45.5t49.5 12.5h351z" />
    <glyph glyph-name="six" unicode="6" horiz-adv-x="642" 
d="M232 439q56 12 130 12q267 0 225 -241q-19 -112 -101.5 -168.5t-215.5 -56.5q-134 0 -193 75t-38 202l37 209q22 124 104.5 189t218.5 65q208 0 240 -160q4 -21 -3.5 -32.5t-30.5 -19.5l-76 -26q-23 -8 -32 -2.5t-16 27.5q-18 64 -105 64q-120 0 -139 -116zM198 243
q-20 -111 97 -111q116 0 133 86q7 44 -16 65t-86 21q-75 0 -120 -16z" />
    <glyph glyph-name="seven" unicode="7" horiz-adv-x="553" 
d="M567 710q23 0 30.5 -9t3.5 -32l-9 -49q-5 -27 -22 -57l-334 -527q-14 -23 -29 -29.5t-53 -6.5h-79q-37 0 -13 41l333 521h-290q-22 0 -29.5 8.5t-3.5 31.5l12 67q5 23 15 32t32 9h436z" />
    <glyph glyph-name="eight" unicode="8" horiz-adv-x="636" 
d="M101 524q17 98 93.5 149.5t197.5 51.5q125 0 182 -54.5t40 -150.5q-15 -86 -106 -146q93 -53 72 -180q-36 -209 -318 -209q-145 0 -203.5 53t-41.5 148q18 107 134 168q-71 56 -50 170zM455 514q7 36 -15.5 54.5t-70.5 18.5q-94 0 -108 -73q-6 -33 13.5 -50t64.5 -30
l40 -11q66 30 76 91zM412 200q4 22 -2 36.5t-25 24.5t-36 15.5t-51 13.5q-19 4 -29 7q-75 -32 -86 -97q-6 -38 18 -57.5t86 -19.5q112 0 125 77z" />
    <glyph glyph-name="nine" unicode="9" horiz-adv-x="643" 
d="M429 271q-54 -12 -130 -12q-266 0 -225 241q20 112 102.5 168.5t215.5 56.5q134 0 193 -75t37 -202l-36 -209q-23 -124 -105.5 -189t-218.5 -65q-208 0 -240 160q-4 21 3.5 32.5t30.5 19.5l76 27q24 7 33 1.5t15 -27.5q18 -64 106 -64q118 0 139 116zM463 467
q20 111 -97 111q-115 0 -132 -86q-8 -44 15 -65t86 -21q76 0 121 16z" />
    <glyph glyph-name="colon" unicode=":" horiz-adv-x="277" 
d="M179 506q43 0 56 -16t6 -59l-3 -19q-8 -43 -27 -59.5t-62 -16.5h-17q-43 0 -56.5 16.5t-5.5 59.5l3 19q7 43 26.5 59t62.5 16h17zM125 162q43 0 56 -16t6 -60l-4 -19q-8 -43 -26.5 -59t-61.5 -16h-17q-43 0 -56.5 16t-6.5 59l4 19q7 43 26.5 59.5t62.5 16.5h17z" />
    <glyph glyph-name="semicolon" unicode=";" horiz-adv-x="274" 
d="M161 393q32 -4 40.5 -18.5t-2.5 -48.5l-16 -9q-10 -34 -26 -46t-50 -9l7 45q-33 5 -41 21t3 50l23 8q11 34 27.5 45t49.5 6zM106 31q0 -31 -29 -44l-23 -11q-11 -6 -17 -7t-9.5 2.5t-7.5 12.5l35 158q-2 20 5 30.5t28 18.5l45 11q43 15 41 -20z" />
    <glyph glyph-name="less" unicode="&#x3c;" horiz-adv-x="484" 
d="M440 582q26 12 34.5 4.5t3.5 -35.5l-12 -63q-6 -32 -15 -43.5t-34 -22.5l-200 -91l-2 -5l169 -90q22 -11 26.5 -21.5t-0.5 -44.5l-12 -69q-10 -54 -48 -31l-300 181q-17 11 -22.5 21t-1.5 29l9 50q4 20 12.5 30t28.5 21z" />
    <glyph glyph-name="equal" unicode="=" horiz-adv-x="589" 
d="M528 501q23 0 30.5 -9t3.5 -32l-11 -62q-4 -23 -15 -32t-34 -9h-399q-23 0 -30 9t-3 32l11 62q4 23 14.5 32t33.5 9h399zM492 296q23 0 30 -9t3 -32l-10 -62q-5 -23 -15.5 -32t-32.5 -9h-399q-23 0 -31 9t-3 32l11 62q4 23 14.5 32t33.5 9h399z" />
    <glyph glyph-name="greater" unicode="&#x3e;" horiz-adv-x="485" 
d="M95 552q5 28 15.5 35.5t32.5 -4.5l300 -181q17 -11 22.5 -21t1.5 -29l-9 -50q-4 -20 -12.5 -30t-28.5 -21l-365 -180q-25 -12 -33 -4.5t-3 34.5l12 74q5 31 14 42.5t34 23.5l201 90v6l-168 89q-22 11 -26.5 21t0.5 45z" />
    <glyph glyph-name="question" unicode="?" horiz-adv-x="580" 
d="M78 578q46 80 113 120.5t173 40.5q118 0 179.5 -61t45.5 -151q-6 -36 -20 -66.5t-29.5 -49.5t-39.5 -37t-40.5 -27t-43 -22t-37.5 -19q-53 -29 -59 -64q-4 -22 -14 -30.5t-31 -8.5h-60q-21 0 -28 8.5t-3 30.5q11 63 40.5 99t76.5 62q8 4 28 15t28.5 16t23.5 16t22.5 20
t15 24t10.5 32q6 35 -14.5 56t-67.5 21q-49 0 -80.5 -18.5t-57.5 -60.5q-14 -23 -25.5 -28.5t-30.5 3.5l-59 27q-20 10 -23.5 20.5t7.5 31.5zM249 160q43 0 56 -16t6 -59l-3 -18q-7 -43 -26.5 -59t-62.5 -16h-20q-43 0 -56.5 16t-5.5 59l3 18q7 43 26 59t62 16h21z" />
    <glyph glyph-name="at" unicode="@" horiz-adv-x="903" 
d="M45 331q31 182 156 288t323 106t286 -106t57 -288l-14 -77q-17 -100 -76.5 -157.5t-134.5 -57.5q-24 0 -40 5t-23.5 11t-21.5 20q-80 -24 -180 -24q-181 0 -151 172l25 138q30 172 212 172q112 0 185 -30q19 -8 23.5 -17.5t0.5 -30.5l-48 -274q-6 -38 37 -38
q26 0 48 25.5t32 83.5l14 81q51 292 -249 292q-145 0 -235 -77t-114 -215l-14 -81q-24 -138 38.5 -211t209.5 -73q77 0 222 23q14 3 18.5 0t2.5 -15l-9 -52q-3 -15 -9 -21.5t-21 -10.5q-99 -24 -220 -24q-200 0 -288 102.5t-56 283.5zM539 416q-30 8 -79 8
q-42 0 -62.5 -15.5t-27.5 -50.5l-23 -132q-6 -35 9.5 -50t56.5 -15q59 0 88 8l43 239q2 6 -5 8z" />
    <glyph glyph-name="A" unicode="A" horiz-adv-x="670" 
d="M617 40q7 -40 -34 -40h-70q-38 0 -51.5 7.5t-16.5 29.5l-14 94h-248l-48 -94q-11 -22 -26.5 -29.5t-52.5 -7.5h-74q-42 0 -20 40l352 636q10 20 21.5 27t33.5 7h77q22 0 31.5 -6.5t13.5 -25.5zM387 418q-4 32 -4 68t2 56l2 19h-8q-13 -71 -49 -142l-80 -156h162z" />
    <glyph glyph-name="B" unicode="B" horiz-adv-x="654" 
d="M456 710q98 0 146.5 -54.5t32.5 -141.5q-10 -51 -32 -83t-63 -58l-1 -4q43 -20 60 -66.5t6 -112.5q-17 -93 -90 -141.5t-179 -48.5h-286q-23 0 -30.5 9t-3.5 32l111 628q5 23 15 32t33 9h281zM466 498q12 68 -60 68h-135l-24 -136h135q72 0 84 68zM438 216q12 73 -62 73
h-153l-26 -145h153q75 0 88 72z" />
    <glyph glyph-name="C" unicode="C" horiz-adv-x="640" 
d="M72 466q22 125 109.5 192t229.5 67q209 0 241 -171q4 -22 -2.5 -33.5t-29.5 -18.5l-73 -24q-23 -7 -33 -2t-15 27q-15 73 -112 73q-133 0 -154 -119l-36 -204q-21 -119 112 -119q97 0 139 73q12 22 24 27.5t32 -2.5l75 -29q20 -8 24 -19.5t-7 -32.5q-91 -166 -311 -166
q-140 0 -205 75t-44 202z" />
    <glyph glyph-name="D" unicode="D" horiz-adv-x="673" 
d="M409 710q139 0 204 -77t42 -204l-30 -172q-23 -125 -108.5 -191t-226.5 -66h-240q-23 0 -30.5 9t-3.5 32l111 628q5 23 15 32t33 9h234zM495 441q21 121 -113 121h-112l-73 -413h112q133 0 156 120z" />
    <glyph glyph-name="E" unicode="E" horiz-adv-x="584" 
d="M577 710q23 0 30.5 -9t3.5 -32l-12 -67q-4 -22 -14.5 -31t-33.5 -9h-281l-22 -129h231q22 0 29.5 -8.5t3.5 -31.5l-12 -67q-4 -23 -14.5 -32t-33.5 -9h-231l-24 -136h291q23 0 30 -9.5t3 -31.5l-12 -67q-4 -23 -14 -32t-33 -9h-412q-23 0 -30.5 9t-3.5 32l111 628
q5 23 15 32t33 9h402z" />
    <glyph glyph-name="F" unicode="F" horiz-adv-x="573" 
d="M577 710q23 0 30.5 -9t3.5 -32l-12 -67q-4 -22 -14.5 -31t-33.5 -9h-281l-25 -143h231q23 0 30 -9t3 -32l-11 -67q-4 -22 -14.5 -31t-33.5 -9h-231l-41 -230q-4 -23 -14 -32t-33 -9h-81q-23 0 -30.5 9t-3.5 32l111 628q5 23 15 32t33 9h402z" />
    <glyph glyph-name="G" unicode="G" horiz-adv-x="666" 
d="M609 401q23 0 30.5 -9t3.5 -32l-26 -148q-18 -105 -106 -166t-228 -61q-139 0 -203.5 77t-43.5 204l36 202q22 126 109.5 191.5t230.5 65.5q207 0 241 -170q5 -22 -1.5 -33.5t-29.5 -18.5l-75 -24q-23 -7 -33 -2t-15 27q-15 72 -113 72q-133 0 -153 -119l-37 -204
q-21 -119 112 -119q62 0 102.5 24.5t47.5 62.5l6 36h-122q-23 0 -30.5 9t-3.5 32l11 62q4 23 14.5 32t33.5 9h242z" />
    <glyph glyph-name="H" unicode="H" horiz-adv-x="691" 
d="M660 710q23 0 30 -9t3 -32l-111 -628q-4 -23 -14 -32t-33 -9h-81q-23 0 -30.5 9t-3.5 32l43 244h-241l-43 -244q-4 -23 -14.5 -32t-33.5 -9h-81q-23 0 -30.5 9t-3.5 32l111 628q4 23 14.5 32t33.5 9h81q23 0 30 -9t3 -32l-41 -235h242l41 235q5 23 15 32t33 9h81z" />
    <glyph glyph-name="I" unicode="I" horiz-adv-x="287" 
d="M127 670q5 23 15 31.5t32 8.5h82q23 0 30 -9t3 -31l-111 -630q-4 -22 -14 -31t-33 -9h-82q-22 0 -29.5 8.5t-3.5 31.5z" />
    <glyph glyph-name="J" unicode="J" horiz-adv-x="579" 
d="M553 710q22 0 29 -9t3 -31l-78 -446q-42 -239 -297 -239q-196 0 -227 162q-4 22 3 33.5t30 18.5l74 25q23 7 32.5 2t14.5 -27q18 -66 91 -66q101 0 120 107l75 430q5 23 15 31.5t32 8.5h83z" />
    <glyph glyph-name="K" unicode="K" horiz-adv-x="641" 
d="M580 43q8 -18 0.5 -30.5t-29.5 -12.5h-80q-39 0 -53.5 7t-21.5 30l-60 190q-12 35 -29 47.5t-59 12.5h-26l-44 -246q-4 -23 -14 -32t-33 -9h-81q-23 0 -30.5 9t-3.5 32l111 628q5 23 15 32t33 9h81q23 0 30 -9t3 -32l-42 -236h16h11l219 243q20 22 34.5 28t50.5 6h88
q21 0 24.5 -12t-10.5 -28l-261 -282q51 -29 76 -101z" />
    <glyph glyph-name="L" unicode="L" horiz-adv-x="533" 
d="M256 710q23 0 30 -9t3 -32l-91 -520h258q23 0 30 -9.5t3 -31.5l-11 -67q-4 -23 -14.5 -32t-33.5 -9h-380q-23 0 -30.5 9t-3.5 32l111 628q5 23 15 32t33 9h81z" />
    <glyph glyph-name="M" unicode="M" horiz-adv-x="820" 
d="M789 710q23 0 30.5 -9t3.5 -31l-111 -630q-4 -22 -14.5 -31t-33.5 -9h-75q-23 0 -30 9t-3 31l40 227q15 92 72 225h-8q-47 -97 -113 -186l-92 -127q-12 -16 -22.5 -22.5t-28.5 -6.5h-41q-18 0 -26 6t-14 23l-50 127q-28 72 -42 186h-8q8 -132 -9 -226l-40 -226
q-4 -22 -14.5 -31t-33.5 -9h-76q-23 0 -30.5 8.5t-3.5 31.5l111 630q4 22 14.5 31t33.5 9h63q25 0 35 -6t17 -24l124 -339l244 338q14 20 24.5 25.5t34.5 5.5h72z" />
    <glyph glyph-name="N" unicode="N" horiz-adv-x="701" 
d="M669 710q23 0 30.5 -9t3.5 -32l-111 -628q-4 -23 -14.5 -32t-33.5 -9h-80q-26 0 -35 19l-143 298q-38 79 -50 187h-8q8 -113 -11 -224l-42 -239q-4 -23 -14.5 -32t-33.5 -9h-77q-23 0 -30.5 9t-3.5 32l111 628q5 23 15 32t33 9h77q29 0 39 -19l146 -303q10 -21 18.5 -45
t14 -46t9 -37.5t6.5 -32.5t3 -18h7q-14 105 7 221l43 239q4 23 14 32t33 9h77z" />
    <glyph glyph-name="O" unicode="O" horiz-adv-x="675" 
d="M72 465q22 125 109 192.5t228 67.5q140 0 205.5 -76.5t44.5 -203.5l-36 -203q-22 -125 -108.5 -191t-228.5 -66q-140 0 -205.5 75.5t-44.5 201.5zM500 459q10 58 -19.5 87.5t-93.5 29.5q-133 0 -153 -117l-37 -208q-10 -58 19 -87.5t93 -29.5q133 0 154 117z" />
    <glyph glyph-name="P" unicode="P" horiz-adv-x="640" 
d="M442 710q112 0 166.5 -70t34.5 -183q-20 -111 -94.5 -168.5t-189.5 -57.5h-147l-34 -190q-4 -23 -14 -32t-33 -9h-81q-23 0 -30.5 9t-3.5 32l111 628q5 23 15 32t33 9h267zM368 380q44 0 73 23.5t36 66.5q8 43 -13 67.5t-64 24.5h-130l-32 -182h130z" />
    <glyph glyph-name="Q" unicode="Q" horiz-adv-x="691" 
d="M72 465q22 125 109 192.5t228 67.5q140 0 205.5 -76.5t44.5 -203.5l-36 -203q-16 -94 -70 -155l41 -62q11 -17 8 -29.5t-23 -28.5l-61 -42q-35 -28 -56 5l-48 72q-52 -17 -128 -17q-140 0 -205.5 75.5t-44.5 201.5zM387 576q-133 0 -153 -117l-37 -208q-10 -58 19 -87.5
t93 -29.5q133 0 154 117l37 208q10 58 -19.5 87.5t-93.5 29.5z" />
    <glyph glyph-name="R" unicode="R" horiz-adv-x="656" 
d="M452 710q109 0 161.5 -65t32.5 -174q-24 -142 -151 -196q9 -16 15 -35l69 -197q14 -43 -30 -43h-80q-38 0 -54 8t-23 31l-46 154q-11 36 -25.5 47.5t-56.5 11.5h-48l-38 -211q-4 -23 -14 -32t-33 -9h-81q-23 0 -30.5 9t-3.5 32l111 628q5 23 15 32t33 9h277zM478 480
q7 39 -10.5 60.5t-57.5 21.5h-140l-28 -164h139q40 0 65 21.5t32 60.5z" />
    <glyph glyph-name="S" unicode="S" horiz-adv-x="634" 
d="M74 519q18 99 98 152.5t218 53.5q103 0 158.5 -40t79.5 -113q6 -20 0 -30.5t-29 -19.5l-77 -31q-21 -9 -30.5 -4.5t-17.5 24.5q-22 66 -106 66q-120 0 -131 -69q-3 -19 5.5 -32.5t30.5 -21.5t44 -12t58 -8q31 -4 58 -10.5t56 -19t49 -30.5t37 -43.5t19.5 -59t-2.5 -77.5
q-38 -209 -326 -209q-229 0 -261 162q-4 21 4 32.5t31 19.5l78 26q22 8 32 3t16 -27q19 -69 117 -69q132 0 146 79q6 34 -26 49.5t-96 22.5q-41 5 -73 12t-68.5 24t-58 41t-32 65t-1.5 94z" />
    <glyph glyph-name="T" unicode="T" horiz-adv-x="581" 
d="M600 710q23 0 30 -9t3 -32l-11 -67q-5 -22 -15.5 -31t-32.5 -9h-157l-92 -521q-4 -23 -14.5 -32t-33.5 -9h-81q-22 0 -29.5 9t-3.5 32l92 521h-157q-23 0 -30 9t-3 31l11 67q4 23 14.5 32t33.5 9h476z" />
    <glyph glyph-name="U" unicode="U" horiz-adv-x="691" 
d="M209 246q-10 -54 17.5 -83.5t89.5 -29.5q127 0 146 113l75 423q5 23 15 32t33 9h81q23 0 30 -9t3 -32l-77 -434q-21 -122 -104.5 -186t-224.5 -64q-139 0 -202.5 77.5t-41.5 202.5l72 404q4 23 14.5 32t33.5 9h81q23 0 30 -9t3 -32z" />
    <glyph glyph-name="V" unicode="V" horiz-adv-x="655" 
d="M692 710q41 0 19 -40l-340 -636q-11 -20 -23 -27t-33 -7h-81q-22 0 -31.5 6.5t-12.5 25.5l-117 638q-7 40 34 40h75q35 0 48 -7.5t16 -29.5l51 -373q3 -24 4.5 -54t0.5 -48v-18h7q19 64 46 119l184 374q11 22 25.5 29.5t50.5 7.5h77z" />
    <glyph glyph-name="W" unicode="W" horiz-adv-x="915" 
d="M942 710q22 0 25.5 -9.5t-5.5 -30.5l-265 -636q-9 -21 -21.5 -27.5t-34.5 -6.5h-87q-22 0 -32 6.5t-11 25.5l-25 323q-2 76 9 137h-9q-12 -65 -41 -137l-139 -321q-9 -21 -21 -27.5t-35 -6.5h-82q-22 0 -32.5 6.5t-11.5 25.5l-44 638q-2 22 5 31t29 9h92q26 0 36.5 -7
t11.5 -29l6 -308q1 -28 -4 -83t-8 -71h7q4 22 19 73t28 81l134 308q9 21 22.5 28.5t37.5 7.5h73q25 0 36 -7.5t12 -28.5l23 -308q3 -33 0.5 -84t-6.5 -70h7q17 76 44 154l111 308q8 22 20.5 29t39.5 7h86z" />
    <glyph glyph-name="X" unicode="X" horiz-adv-x="650" 
d="M679 710q20 0 23.5 -12t-10.5 -27l-257 -308l155 -322q10 -16 2 -28.5t-29 -12.5h-93q-38 0 -50.5 5.5t-22.5 30.5l-87 198l-148 -198q-19 -24 -33.5 -30t-51.5 -6h-95q-21 0 -24 12t11 29l267 321l-146 309q-9 15 -2 27t28 12h89q36 0 49 -6t26 -28l79 -185l143 185
q19 23 32.5 28.5t47.5 5.5h97z" />
    <glyph glyph-name="Y" unicode="Y" horiz-adv-x="655" 
d="M695 710q22 0 25 -12t-11 -29l-304 -393l-42 -235q-4 -23 -14.5 -32t-33.5 -9h-81q-23 0 -30 9t-3 32l41 237l-166 391q-8 17 -1 29t29 12h90q38 0 51 -5.5t22 -30.5l85 -233l169 233q17 25 32 30.5t53 5.5h89z" />
    <glyph glyph-name="Z" unicode="Z" horiz-adv-x="599" 
d="M594 710q23 0 30.5 -9t3.5 -32l-11 -58q-4 -24 -20 -41l-387 -421h290q23 0 31 -9t3 -32l-12 -67q-4 -23 -14.5 -32t-33.5 -9h-455q-23 0 -30.5 9t-3.5 32l11 58q4 22 20 41l387 422h-280q-23 0 -30 9t-3 31l11 67q5 23 15 32t33 9h445z" />
    <glyph glyph-name="bracketleft" unicode="[" horiz-adv-x="326" 
d="M367 856q23 0 28.5 -6.5t1.5 -29.5l-10 -56q-4 -23 -11.5 -29.5t-30.5 -6.5h-68l-132 -746h68q23 0 28.5 -6t1.5 -29l-10 -58q-5 -23 -12.5 -29t-30.5 -6h-175q-23 0 -29 7t-1 29l164 929q4 23 12 30t31 7h175z" />
    <glyph glyph-name="backslash" unicode="\" horiz-adv-x="460" 
d="M92 676q-4 18 2.5 26t26.5 8h74q21 0 30.5 -7t13.5 -27l138 -702q3 -19 -3.5 -26.5t-26.5 -7.5h-74q-20 0 -29.5 7t-13.5 27z" />
    <glyph glyph-name="bracketright" unicode="]" horiz-adv-x="327" 
d="M330 856q23 0 29 -7t2 -30l-164 -929q-5 -23 -13 -29.5t-31 -6.5h-175q-23 0 -28.5 6t-0.5 29l10 58q4 22 11.5 28.5t30.5 6.5h68l132 746h-69q-22 0 -27.5 6.5t-1.5 29.5l10 56q4 23 11.5 29.5t30.5 6.5h175z" />
    <glyph glyph-name="asciicircum" unicode="^" horiz-adv-x="599" 
d="M414 810q14 0 22.5 -4.5t12 -9t12.5 -19.5l142 -214q26 -43 -28 -43h-73q-32 0 -43 5.5t-25 27.5l-68 114h-5l-110 -114q-21 -22 -34 -27.5t-46 -5.5h-67q-26 0 -30 11.5t17 31.5l216 214q19 19 31 26t30 7h46z" />
    <glyph glyph-name="underscore" unicode="_" horiz-adv-x="496" 
d="M384 0q23 0 30.5 -9t3.5 -32l-11 -61q-4 -23 -14.5 -32t-33.5 -9h-378q-23 0 -30.5 9t-3.5 32l11 61q4 23 14.5 32t33.5 9h378z" />
    <glyph glyph-name="grave" unicode="`" horiz-adv-x="257" 
d="M135 731q28 27 66 2l126 -84q12 -8 10.5 -15.5t-15.5 -22.5l-24 -24q-14 -15 -46 -3l-164 64q-15 7 -14.5 15.5t16.5 24.5z" />
    <glyph glyph-name="a" unicode="a" horiz-adv-x="542" 
d="M39 333q19 105 84.5 153.5t184.5 48.5q121 0 185 -33q22 -11 26.5 -21t-0.5 -35l-69 -394q-4 -21 -13 -30t-31 -14q-93 -23 -205 -23q-108 0 -155.5 60.5t-28.5 161.5zM353 393q-27 7 -59 7q-48 0 -73.5 -19t-33.5 -63l-22 -125q-12 -73 72 -73q40 0 75 7l46 258
q2 6 -5 8z" />
    <glyph glyph-name="b" unicode="b" horiz-adv-x="544" 
d="M242 740q20 0 26.5 -8t2.5 -29l-31 -178q48 10 95 10q107 0 151.5 -58t26.5 -159l-23 -126q-35 -207 -269 -207q-115 0 -185 33q-22 12 -26.5 22t0.5 34l110 629q4 21 13.5 29t30.5 8h78zM363 329q7 39 -11 56t-60 17q-35 0 -75 -10l-46 -259q0 -4 2 -5q24 -8 62 -8
q92 0 107 83z" />
    <glyph glyph-name="c" unicode="c" horiz-adv-x="513" 
d="M39 332q36 203 268 203q86 0 134.5 -36.5t59.5 -96.5q3 -22 -4 -33.5t-28 -18.5l-60 -20q-23 -8 -33 -2.5t-15 27.5q-13 50 -77 50q-81 0 -94 -76l-25 -139q-14 -75 67 -75q60 0 92 51q12 21 24 26t32 -2l63 -20q39 -15 15 -53q-77 -132 -248 -132q-115 0 -163 59
t-30 161z" />
    <glyph glyph-name="d" unicode="d" horiz-adv-x="543" 
d="M40 333q19 104 81 153t171 49q43 0 91 -6l31 174q4 21 13.5 29t30.5 8h78q20 0 26.5 -8t2.5 -29l-111 -629q-5 -25 -14 -35t-35 -20q-88 -34 -203 -34q-111 0 -157 60t-27 161zM359 394q-36 6 -65 6q-47 0 -72.5 -19t-33.5 -63l-22 -125q-6 -35 12.5 -54t58.5 -19
q44 0 73 7q2 1 4 5z" />
    <glyph glyph-name="e" unicode="e" horiz-adv-x="536" 
d="M39 330q18 99 89.5 152t187.5 53q105 0 161.5 -51.5t42.5 -136.5q-25 -142 -242 -142q-42 0 -110 9l-4 -26q-15 -79 75 -79q69 0 106 40q17 18 28.5 21t31.5 -8l45 -27q34 -21 5 -59q-71 -91 -238 -91q-122 0 -170 66t-29 168zM373 361q4 26 -15.5 40t-61.5 14t-70 -21.5
t-36 -58.5l-3 -13q64 -8 97 -8q80 0 89 47z" />
    <glyph glyph-name="f" unicode="f" horiz-adv-x="378" 
d="M412 740q22 0 28.5 -8t2.5 -30l-10 -54q-4 -21 -14 -29.5t-31 -8.5q-51 0 -74.5 -21t-31.5 -66v-3h92q21 0 27.5 -8t2.5 -29l-10 -60q-4 -21 -13.5 -29t-29.5 -8h-92l-62 -349q-4 -21 -13.5 -29t-31.5 -8h-75q-22 0 -28.5 8t-2.5 29l62 349h-44q-20 0 -27 8t-3 29l10 60
q4 21 13.5 29t30.5 8h43v3q39 214 261 217h20z" />
    <glyph glyph-name="g" unicode="g" horiz-adv-x="544" 
d="M40 335q19 105 84 152.5t185 47.5q122 0 184 -33q22 -11 27 -21t0 -35l-81 -461q-38 -216 -262 -216q-153 0 -198 97q-18 37 26 58l57 27q23 11 34 8t21 -21q21 -38 76 -38q79 0 94 81l8 43q-48 -10 -90 -10q-108 0 -154.5 61t-28.5 162zM355 393q-28 7 -61 7
q-90 0 -106 -82l-17 -96q-12 -73 71 -73q39 0 76 7l40 231q2 5 -3 6z" />
    <glyph glyph-name="h" unicode="h" horiz-adv-x="557" 
d="M243 740q20 0 26.5 -8t2.5 -29l-30 -175h6q5 1 14 2.5t20.5 2.5t26 1.5t27.5 0.5q107 0 151.5 -57t26.5 -157l-49 -284q-4 -21 -13.5 -29t-30.5 -8h-78q-20 0 -27 8t-3 29l50 286q15 75 -71 75q-10 0 -21.5 -1t-20.5 -2t-16.5 -2t-11.5 -2l-5 -1l-62 -353
q-4 -21 -13.5 -29t-29.5 -8h-78q-21 0 -27.5 8t-2.5 29l117 666q4 21 13.5 29t30.5 8h78z" />
    <glyph glyph-name="i" unicode="i" horiz-adv-x="252" 
d="M210 719q41 0 53.5 -15.5t4.5 -55.5l-1 -10q-8 -41 -26 -56t-58 -15h-21q-41 0 -53 15.5t-5 55.5l1 10q7 40 25.5 55.5t59.5 15.5h20zM204 520q20 0 26.5 -8t2.5 -29l-78 -446q-4 -21 -13.5 -29t-29.5 -8h-78q-21 0 -27.5 8t-2.5 29l78 446q4 21 13.5 29t30.5 8h78z" />
    <glyph glyph-name="j" unicode="j" horiz-adv-x="253" 
d="M210 719q41 0 53 -15.5t5 -55.5l-1 -10q-8 -41 -26 -56t-58 -15h-21q-41 0 -53 15.5t-5 55.5l1 10q8 41 26 56t58 15h21zM202 520q22 0 28.5 -8t2.5 -29l-86 -491q-40 -222 -281 -222q-22 0 -29 8t-3 30l11 62q4 21 13.5 29t31.5 8q91 0 107 92l85 484q4 21 13.5 29
t31.5 8h75z" />
    <glyph glyph-name="k" unicode="k" horiz-adv-x="535" 
d="M469 45q8 -24 0.5 -34.5t-34.5 -10.5h-67q-32 0 -43 6t-17 28l-32 128q-10 40 -57 40h-35l-29 -164q-4 -22 -13.5 -30t-31.5 -8h-75q-22 0 -28.5 8t-2.5 30l117 664q4 22 13.5 30t31.5 8h75q22 0 28.5 -8t2.5 -30l-65 -371h21h6l141 159q17 20 30.5 25t45.5 5h67
q56 0 17 -44l-166 -184q26 -20 43 -71z" />
    <glyph glyph-name="l" unicode="l" horiz-adv-x="256" 
d="M157 37q-4 -21 -13.5 -29t-30.5 -8h-77q-21 0 -27.5 8t-2.5 29l117 666q4 21 13.5 29t30.5 8h77q21 0 27.5 -8t2.5 -29z" />
    <glyph glyph-name="m" unicode="m" horiz-adv-x="825" 
d="M441 505q86 30 173 30q104 0 145 -57t24 -158l-50 -283q-4 -21 -13.5 -29t-30.5 -8h-77q-21 0 -27.5 8t-2.5 29l50 287q14 74 -62 74q-34 0 -71 -10q1 -26 -5 -61l-51 -290q-4 -21 -13.5 -29t-29.5 -8h-78q-21 0 -27.5 8t-2.5 29l50 287q7 40 -8 57t-54 17q-27 0 -61 -8
q-3 0 -5 -6l-61 -347q-4 -21 -13.5 -29t-29.5 -8h-78q-21 0 -27.5 8t-2.5 29l71 404q5 25 14.5 36.5t35.5 21.5q95 36 201 36q76 0 117 -30z" />
    <glyph glyph-name="n" unicode="n" 
d="M123 499q95 36 211 36q107 0 151.5 -57.5t26.5 -158.5l-49 -282q-4 -21 -13.5 -29t-30.5 -8h-78q-20 0 -27 8t-3 29l50 286q14 75 -71 75q-39 0 -72 -9q-2 0 -4 -4l-61 -348q-4 -21 -13.5 -29t-29.5 -8h-78q-21 0 -27.5 8t-2.5 29l71 404q5 25 14.5 36.5t35.5 21.5z" />
    <glyph glyph-name="o" unicode="o" horiz-adv-x="547" 
d="M39 329q18 99 88 152.5t186 53.5t168 -58.5t34 -159.5l-22 -129q-18 -99 -87 -151t-187 -52q-115 0 -167.5 57.5t-34.5 157.5zM366 326q12 75 -75 75t-101 -75l-23 -132q-14 -75 74 -75q87 0 101 75z" />
    <glyph glyph-name="p" unicode="p" horiz-adv-x="544" 
d="M124 504q87 31 209 31q109 0 153.5 -57.5t25.5 -158.5l-22 -127q-37 -207 -267 -207q-35 0 -76 9l-32 -177q-4 -21 -13.5 -29t-30.5 -8h-77q-21 0 -27.5 8t-2.5 29l111 629q5 25 14.5 36.5t34.5 21.5zM363 327q7 35 -12 54t-59 19q-34 0 -71 -7q-4 -1 -6 -7l-45 -260
q36 -6 65 -6q90 0 106 82z" />
    <glyph glyph-name="q" unicode="q" horiz-adv-x="545" 
d="M309 535q121 0 185 -33q22 -11 26.5 -21t-0.5 -35l-110 -629q-4 -21 -14 -29t-30 -8h-78q-20 0 -27 8t-3 29l32 178q-48 -10 -95 -10q-108 0 -152.5 57.5t-25.5 158.5l22 127q37 207 270 207zM166 193q-6 -35 12.5 -54t59.5 -19q38 0 75 7l45 258q2 7 -4 8q-27 7 -59 7
q-91 0 -107 -82z" />
    <glyph glyph-name="r" unicode="r" horiz-adv-x="359" 
d="M322 535h33q21 0 27.5 -8t2.5 -29l-10 -62q-4 -20 -13.5 -28t-29.5 -8h-37q-41 0 -73 -7q-4 -1 -6 -7l-62 -349q-4 -21 -13.5 -29t-29.5 -8h-78q-21 0 -27.5 8t-2.5 29l72 409q5 25 14.5 36.5t35.5 21.5q72 27 197 31z" />
    <glyph glyph-name="s" unicode="s" horiz-adv-x="508" 
d="M44 377q14 76 75 117t167 41q160 0 200 -107q7 -20 1 -32t-28 -21l-59 -23q-23 -8 -30.5 -5t-17.5 21q-21 36 -83 36q-73 0 -81 -36q-4 -22 15.5 -31t73.5 -14q102 -11 149 -50t32 -123q-14 -78 -79.5 -121.5t-173.5 -43.5q-183 0 -210 119q-7 37 33 50l64 20q22 6 30 2
t16 -23q16 -38 84 -38q85 0 94 41q4 24 -16.5 33t-81.5 15q-42 4 -74 14t-59 29t-38 52t-3 78z" />
    <glyph glyph-name="t" unicode="t" horiz-adv-x="398" 
d="M272 640q20 0 27 -8t3 -29l-14 -83h92q20 0 26.5 -8t2.5 -29l-10 -60q-4 -21 -13 -29t-30 -8h-92l-30 -168q-9 -57 7 -75t68 -18q21 0 28 -8t3 -30l-11 -63q-4 -21 -13.5 -29t-30.5 -9q-131 -4 -178.5 46t-24.5 180l31 174h-54q-20 0 -27 8t-3 29l10 60q4 21 13.5 29
t30.5 8h54l14 83q4 21 13.5 29t29.5 8h78z" />
    <glyph glyph-name="u" unicode="u" 
d="M508 520q21 0 27.5 -8t2.5 -29l-71 -404q-5 -25 -14.5 -36.5t-35.5 -21.5q-93 -36 -210 -36q-108 0 -152 58t-26 159l49 281q4 21 13.5 29t30.5 8h77q21 0 27.5 -8t2.5 -29l-50 -286q-7 -39 10.5 -57t61.5 -18q35 0 66 7q9 3 10 11l60 343q4 21 13.5 29t30.5 8h77z" />
    <glyph glyph-name="v" unicode="v" horiz-adv-x="527" 
d="M524 520q27 0 31.5 -9t-9.5 -34l-251 -444q-11 -19 -22.5 -26t-32.5 -7h-60q-21 0 -31 7t-14 26l-92 444q-4 25 4 34t35 9h58q32 0 43.5 -7.5t13.5 -29.5l35 -195q4 -23 4.5 -52.5t-0.5 -47.5l-1 -18h7q18 65 45 118l101 194q12 24 25 31t45 7h66z" />
    <glyph glyph-name="w" unicode="w" horiz-adv-x="746" 
d="M735 520q26 0 30.5 -9t-7.5 -34l-198 -444q-14 -33 -56 -33h-63q-41 0 -45 33l-17 199q-2 29 -1 56t2 46l2 18h-5q-17 -65 -40 -120l-88 -199q-15 -33 -56 -33h-54q-22 0 -33 7t-12 26l-46 444q-4 25 4 34t34 9h57q34 0 46 -7t12 -30l6 -172q1 -21 -1.5 -55.5t-5.5 -58.5
l-2 -24h6q21 87 43 138l77 171q11 24 23 31t45 7h36q33 0 42.5 -7t11.5 -30l18 -172q2 -30 1 -60.5t-3 -54.5l-3 -23h6q15 77 38 138l66 171q10 24 24 31t48 7h58z" />
    <glyph glyph-name="x" unicode="x" horiz-adv-x="526" 
d="M510 520q54 0 18 -44l-178 -208l111 -224q12 -22 4 -33t-39 -11h-62q-31 0 -41 5t-20 27l-59 131l-101 -131q-16 -21 -29.5 -26.5t-43.5 -5.5h-75q-33 0 -36.5 11t17.5 33l188 222l-106 210q-20 44 36 44h60q31 0 42 -6t20 -26l54 -115l92 115q17 21 29 26.5t41 5.5h78z
" />
    <glyph glyph-name="y" unicode="y" horiz-adv-x="557" 
d="M508 520q20 0 26.5 -8t2.5 -29l-86 -493q-39 -220 -267 -220q-150 0 -193 96q-19 37 25 58l57 27q24 11 35 8t21 -21q21 -38 75 -38q79 0 94 81l7 41q-38 -7 -94 -7q-108 0 -151.5 58.5t-25.5 160.5l43 249q4 21 13.5 29t30.5 8h77q21 0 27.5 -8t2.5 -29l-45 -256
q-13 -75 73 -75q34 0 73 7l57 324q4 21 13.5 29t30.5 8h78z" />
    <glyph glyph-name="z" unicode="z" horiz-adv-x="481" 
d="M387 134q21 0 27.5 -8.5t2.5 -28.5l-10 -60q-4 -21 -13.5 -29t-30.5 -8h-352q-20 0 -26.5 8t-2.5 29l9 59q5 22 20 37l257 253h-184q-20 0 -26.5 8.5t-2.5 28.5l10 60q4 21 13.5 29t29.5 8h342q21 0 27.5 -8t2.5 -29l-10 -59q-3 -20 -22 -40l-260 -250h199z" />
    <glyph glyph-name="braceleft" unicode="{" horiz-adv-x="377" 
d="M417 856q21 0 28 -8t3 -29l-11 -61q-4 -20 -13.5 -28t-30.5 -8h-48q-20 0 -24 -21l-39 -219q-15 -86 -96 -130q69 -31 50 -131l-38 -213q-1 -9 4 -15t14 -6h48q21 0 27.5 -8t3.5 -28l-11 -61q-4 -21 -13.5 -29t-30.5 -8h-64q-82 0 -109.5 32t-14.5 105l37 206
q13 80 -46 80h-6q-31 0 -24 37l13 77q7 37 36 37h7q60 0 74 80l38 211q13 73 52 105.5t118 32.5h66z" />
    <glyph glyph-name="bar" unicode="|" horiz-adv-x="260" 
d="M263 856q21 0 28 -8t3 -29l-164 -929q-4 -21 -13.5 -29t-30.5 -8h-71q-21 0 -27.5 8t-2.5 29l164 929q4 21 13 29t30 8h71z" />
    <glyph glyph-name="braceright" unicode="}" horiz-adv-x="376" 
d="M221 856q80 0 107 -32.5t14 -105.5l-37 -211q-14 -80 46 -80h7q29 0 23 -37l-14 -77q-6 -37 -36 -37h-6q-60 0 -75 -80l-36 -206q-13 -73 -51.5 -105t-120.5 -32h-65q-20 0 -26.5 8t-2.5 29l11 61q3 20 12.5 28t29.5 8h49q8 0 15.5 6.5t8.5 14.5l37 213q19 101 97 131
q-65 45 -50 130l39 219q1 8 -4.5 14.5t-13.5 6.5h-49q-20 0 -26.5 8t-2.5 28l11 61q4 21 13 29t29 8h67z" />
    <glyph glyph-name="asciitilde" unicode="~" horiz-adv-x="557" 
d="M70 360q62 49 135 49q43 0 87 -16.5t66 -16.5q30 0 57 20q20 14 30 13.5t23 -15.5l38 -43q25 -29 -11 -57q-64 -49 -136 -49q-42 0 -86 16.5t-66 16.5q-29 0 -57 -19q-21 -15 -30.5 -14t-21.5 16l-38 42q-26 30 10 57z" />
    <glyph glyph-name="exclamdown" unicode="&#xa1;" horiz-adv-x="256" 
d="M128 360q-43 0 -56 16t-6 59l3 18q7 43 26.5 59t62.5 16h20q43 0 57 -16t6 -59l-4 -18q-7 -43 -26 -59t-62 -16h-21zM-6 -220q-20 0 -26.5 8t-2.5 29l94 444q5 21 13.5 28.5t29.5 7.5h50q21 0 27 -7.5t3 -28.5l-62 -444q-3 -21 -13 -29t-31 -8h-82z" />
    <glyph glyph-name="cent" unicode="&#xa2;" horiz-adv-x="536" 
d="M454 170q38 -14 15 -53q-57 -98 -171 -124l-7 -40q-4 -21 -13.5 -29t-30.5 -8h-72q-21 0 -27.5 8t-2.5 29l6 38q-79 14 -109.5 71t-14.5 144l22 126q16 85 63.5 132t133.5 64l8 45q4 21 13.5 29t30.5 8h72q21 0 27.5 -8t2.5 -29l-8 -45q101 -24 119 -129
q3 -22 -3.5 -32.5t-28.5 -18.5l-63 -19q-23 -8 -33 -2.5t-15 27.5q-13 51 -73 51q-83 0 -95 -75l-25 -140q-12 -75 68 -75q61 0 91 51q12 21 24.5 26t32.5 -2z" />
    <glyph glyph-name="sterling" unicode="&#xa3;" horiz-adv-x="653" 
d="M153 517q16 91 90.5 149.5t188.5 58.5q191 0 227 -158q4 -22 -2.5 -33.5t-29.5 -18.5l-74 -26q-23 -7 -31 -2t-16 28q-12 32 -33 46.5t-59 14.5q-37 0 -63.5 -22.5t-32.5 -56.5l-17 -97h192q23 0 30 -9t3 -31l-8 -52q-5 -23 -15.5 -31.5t-33.5 -8.5h-193l-6 -35
q-11 -62 -65 -97v-6q78 17 164 17h177q23 0 31 -9t3 -32l-12 -65q-4 -23 -14 -32t-33 -9h-495q-22 0 -29 9t-3 32l13 66q5 33 27 34h3q28 9 42.5 30.5t22.5 58.5l6 38h-32q-23 0 -30.5 8.5t-2.5 31.5l9 52q4 23 14.5 31.5t33.5 8.5h33z" />
    <glyph glyph-name="currency" unicode="&#xa4;" horiz-adv-x="626" 
d="M252 544q50 24 107 24q53 0 97 -24l56 49q17 14 28.5 14t23.5 -14l45 -53q22 -26 -9 -52l-56 -48q17 -48 8 -103q-9 -53 -41 -103l40 -48q22 -26 -8 -52l-62 -53q-17 -14 -28.5 -14t-23.5 14l-41 49q-50 -24 -104 -24q-57 0 -99 24l-58 -49q-17 -14 -28.5 -14t-23.5 14
l-44 53q-13 14 -11 26t19 26l58 50q-16 47 -7 101q9 57 40 101l-42 50q-22 26 9 52l61 53q17 14 28.5 14t23.5 -14zM419 337q7 41 -16.5 69.5t-64.5 28.5t-74.5 -28.5t-41.5 -69.5q-7 -41 16.5 -69.5t64.5 -28.5t75 28.5t41 69.5z" />
    <glyph glyph-name="yen" unicode="&#xa5;" horiz-adv-x="681" 
d="M698 710q22 0 25 -12t-11 -29l-226 -285h57q20 0 26.5 -8t2.5 -28l-6 -39q-4 -19 -13 -27t-29 -8h-111l-7 -43h110q20 0 26.5 -7.5t3.5 -27.5l-8 -39q-3 -20 -12.5 -28t-29.5 -8h-108l-14 -80q-4 -23 -14.5 -32t-33.5 -9h-81q-23 0 -30 9t-3 32l14 80h-109q-20 0 -26.5 8
t-2.5 28l7 39q5 35 42 35h110l7 43h-109q-20 0 -27 8t-3 27l7 39q4 20 13 28t29 8h57l-125 285q-8 17 -1.5 29t28.5 12h81q39 0 52 -5.5t22 -30.5l85 -233l167 233q17 25 31.5 30.5t53.5 5.5h83z" />
    <glyph glyph-name="brokenbar" unicode="&#xa6;" horiz-adv-x="267" 
d="M267 856q20 0 27 -8t3 -29l-63 -357q-4 -20 -13.5 -28t-29.5 -8h-72q-20 0 -26.5 8t-3.5 28l63 357q4 21 13.5 29t29.5 8h72zM166 284q20 0 27 -8t3 -28l-63 -357q-4 -21 -13.5 -29t-29.5 -8h-72q-20 0 -27 8t-3 29l63 357q4 20 13 28t30 8h72z" />
    <glyph glyph-name="section" unicode="&#xa7;" horiz-adv-x="615" 
d="M97 525q17 93 91.5 146.5t200.5 53.5q89 0 137 -39t71 -106q7 -23 0.5 -34.5t-29.5 -20.5l-63 -25q-21 -10 -33 -5.5t-19 26.5q-20 58 -90 58q-93 0 -105 -63q-4 -26 19.5 -38t74.5 -21q100 -17 135 -33q96 -44 76 -161q-15 -80 -80 -129q56 -47 36 -154
q-17 -93 -92 -145.5t-203 -52.5q-101 0 -166 39.5t-79 111.5q-7 40 37 55l69 24q25 8 35.5 2.5t15.5 -29.5q13 -60 103 -60q107 0 117 65q5 25 -18.5 36.5t-72.5 17.5q-105 14 -136 24q-121 39 -99 166q17 92 101 141q-53 46 -34 150zM295 314q-8 2 -22 4.5t-21 3.5
q-45 -25 -52 -69q-6 -37 21.5 -49.5t87.5 -18.5q14 -2 42 -4q39 25 47 68q5 30 -21 43t-82 22z" />
    <glyph glyph-name="dieresis" unicode="&#xa8;" horiz-adv-x="439" 
d="M199 723q37 0 48.5 -14t4.5 -50l-2 -11q-6 -35 -22 -49t-53 -14h-8q-36 0 -47.5 14t-4.5 49l2 11q6 36 22 50t53 14h7zM406 723q36 0 47 -14t5 -50l-2 -11q-7 -36 -23 -49.5t-52 -13.5h-7q-37 0 -48.5 14t-5.5 49l2 11q7 36 23.5 50t53.5 14h7z" />
    <glyph glyph-name="copyright" unicode="&#xa9;" horiz-adv-x="789" 
d="M45 351q26 150 148 254.5t273 104.5q150 0 236.5 -104.5t60.5 -254.5q-25 -151 -146.5 -255t-271.5 -104q-151 0 -238 105t-62 254zM680 351q20 117 -45 196t-181 79q-117 0 -210.5 -79t-114.5 -196q-21 -116 44.5 -196t183.5 -80q116 0 209.5 80t113.5 196zM261 401
q12 65 58 102.5t119 37.5q112 0 128 -91q3 -17 -2.5 -25.5t-22.5 -13.5l-37 -13q-17 -5 -24 -1t-9 21q-4 16 -15.5 22.5t-34.5 6.5q-54 0 -63 -46l-18 -103q-8 -47 47 -47q41 0 58 30q11 17 19 21t23 -1l33 -14q15 -6 17.5 -14t-5.5 -25q-52 -89 -161 -89q-72 0 -105.5 38
t-21.5 102z" />
    <glyph glyph-name="ordfeminine" unicode="&#xaa;" horiz-adv-x="353" 
d="M105 618q49 53 135 53q132 0 110 -125l-22 -129q-4 -21 -12 -30.5t-29 -17.5q-38 -15 -105 -15q-74 0 -99.5 27.5t-16.5 72.5q10 48 42.5 69.5t109.5 21.5q14 0 22 -1l2 13q3 14 -2 19.5t-19 5.5q-16 0 -39 -17q-20 -15 -40 -6l-28 15q-12 7 -17 13t-3 13.5t11 17.5z
M227 470q-11 1 -28 1q-24 0 -27 -18q-2 -11 2.5 -15t18.5 -4l26 2q2 0 2 2z" />
    <glyph glyph-name="guillemotleft" unicode="&#xab;" horiz-adv-x="608" 
d="M529 145q18 -22 -8 -46l-51 -44q-28 -22 -46 0l-153 184q-11 13 -9 23t18 23l218 188q28 23 46 0l37 -46q18 -22 -8 -45l-141 -120zM282 145q19 -22 -8 -46l-51 -44q-26 -22 -46 0l-153 184q-17 24 8 46l219 188q27 24 46 0l37 -46q19 -22 -8 -45l-140 -120z" />
    <glyph glyph-name="logicalnot" unicode="&#xac;" horiz-adv-x="590" 
d="M519 421q21 0 28 -8t3 -28l-38 -213q-4 -21 -13 -29t-29 -8h-77q-21 0 -28 8t-3 29l20 111h-307q-20 0 -27 8t-3 29l11 65q4 20 13 28t30 8h420z" />
    <glyph glyph-name="registered" unicode="&#xae;" horiz-adv-x="460" 
d="M71 516q14 81 82 138.5t149 57.5q80 0 127.5 -58t33.5 -138q-14 -81 -81 -138.5t-147 -57.5q-81 0 -129.5 57.5t-34.5 138.5zM124 516q-11 -60 24 -102.5t96 -42.5q59 0 108 42.5t60 102.5q10 60 -24 102t-93 42q-61 0 -111 -42t-60 -102zM298 611q32 0 50 -18t12 -48
q-7 -43 -46 -59l21 -43q11 -22 -16 -22h-21q-16 0 -21 12l-19 47h-18l-8 -46q-3 -13 -16 -13h-26q-14 0 -11 13l28 163q2 8 5 11t12 3h74zM248 527h36q17 0 20 18q2 7 -2.5 11.5t-11.5 4.5h-36z" />
    <glyph glyph-name="macron" unicode="&#xaf;" horiz-adv-x="352" 
d="M373 706q21 0 27 -7t2 -27l-6 -33q-3 -21 -11.5 -28t-29.5 -7h-234q-20 0 -25.5 7t-2.5 28l5 33q4 20 13 27t28 7h234z" />
    <glyph glyph-name="degree" unicode="&#xb0;" horiz-adv-x="405" 
d="M422 555q-11 -72 -70 -123.5t-131 -51.5q-74 0 -117 51t-32 124q10 74 68 124t132 50q73 0 116.5 -50t33.5 -124zM187 554q-5 -24 9.5 -42t39.5 -18t46 18t26 42q4 24 -11 43t-39 19q-25 0 -46 -19t-25 -43z" />
    <glyph glyph-name="plusminus" unicode="&#xb1;" horiz-adv-x="578" 
d="M518 468q23 0 30 -9t3 -32l-8 -47q-5 -23 -15 -32t-32 -9h-133l-12 -61q-4 -23 -14 -32t-33 -9h-54q-23 0 -30.5 9t-3.5 32l12 61h-132q-23 0 -30 9t-3 32l8 47q4 23 14.5 32t33.5 9h131l12 65q4 23 14.5 32t33.5 9h53q23 0 30.5 -9t3.5 -32l-12 -65h133zM473 213
q23 0 30.5 -9t3.5 -32l-9 -49q-5 -23 -15 -32t-33 -9h-399q-23 0 -30 9t-3 32l8 49q4 23 14.5 32t33.5 9h399z" />
    <glyph glyph-name="twosuperior" unicode="&#xb2;" horiz-adv-x="367" 
d="M109 722q54 94 171 94q68 0 101 -38t25 -93q-9 -54 -37.5 -86.5t-90.5 -50.5l-52 -13q-29 -7 -30 -12l-1 -2h140q19 0 25.5 -8.5t2.5 -26.5l-6 -39q-3 -18 -12 -26t-28 -8h-231q-19 0 -26 7.5t-4 26.5l6 29q10 57 33.5 86.5t78.5 48.5l57 20q25 10 35 18.5t14 27.5
q2 12 -4 19.5t-19 7.5q-28 0 -43 -23q-14 -22 -23.5 -27t-31.5 2l-35 14q-19 8 -22.5 19t7.5 33z" />
    <glyph glyph-name="threesuperior" unicode="&#xb3;" horiz-adv-x="372" 
d="M103 724q52 93 174 93q68 0 101.5 -32t25.5 -86q-4 -28 -16 -45.5t-38 -32.5q47 -32 34 -103q-20 -112 -175 -112q-130 0 -145 94q-7 38 27 49l38 12q22 8 32 3t15 -26q7 -27 49 -27q37 0 42 24q6 26 -26 26h-29q-21 0 -26 6t-1 27l7 36q4 23 11 29t30 6h20q31 0 36 25
q2 13 -5 19t-23 6q-44 0 -60 -26q-14 -23 -25 -27.5t-35 4.5l-24 11q-17 7 -20.5 16t6.5 31z" />
    <glyph glyph-name="acute" unicode="&#xb4;" horiz-adv-x="257" 
d="M239 733q48 24 66 -2l29 -43q11 -16 9 -24.5t-21 -15.5l-186 -64q-36 -12 -45 3l-15 24q-9 14 -7.5 22.5t16.5 15.5z" />
    <glyph glyph-name="mu" unicode="&#xb5;" horiz-adv-x="565" 
d="M516 520q20 0 26.5 -8t2.5 -29l-70 -404q-4 -22 -14 -34t-33 -23q-82 -37 -166 -37q-70 0 -107 31l-36 -199q-4 -21 -13.5 -29t-29.5 -8h-78q-21 0 -27.5 8t-2.5 29l117 666q4 21 13.5 29t30.5 8h78q20 0 26.5 -8t2.5 -29l-50 -286q-13 -75 72 -75q32 0 67 8q7 1 9 9
l60 344q4 21 13.5 29t30.5 8h78z" />
    <glyph glyph-name="paragraph" unicode="&#xb6;" horiz-adv-x="651" 
d="M624 710q21 0 27.5 -8t2.5 -29l-127 -725q-4 -21 -13.5 -29t-30.5 -8h-64q-21 0 -27.5 8t-2.5 29l108 614h-56l-108 -614q-4 -21 -13.5 -29t-30.5 -8h-64q-20 0 -26.5 8t-2.5 29l49 280q-103 3 -155 73.5t-33 176.5q19 107 95.5 169.5t184.5 62.5h287z" />
    <glyph glyph-name="periodcentered" unicode="&#xb7;" horiz-adv-x="273" 
d="M158 380q43 0 56 -16t6 -60l-4 -19q-8 -43 -26.5 -59t-61.5 -16h-17q-43 0 -56.5 16t-6.5 59l4 19q7 43 26.5 59.5t62.5 16.5h17z" />
    <glyph glyph-name="cedilla" unicode="&#xb8;" horiz-adv-x="251" 
d="M98 -57h6q46 0 64 -28.5t6 -69.5q-14 -50 -58 -72t-100 -22q-42 0 -70 15q-20 9 -16 31l6 37q4 26 24 15q27 -15 53 -15q41 0 47 26q2 12 -7 18t-31 6h-20q-27 0 -11 28l55 88h84z" />
    <glyph glyph-name="onesuperior" unicode="&#xb9;" horiz-adv-x="286" 
d="M286 810q24 0 33 -10t5 -33l-55 -312q-4 -22 -14.5 -31t-33.5 -9h-40q-23 0 -30 8.5t-3 31.5l36 205l-35 -17q-39 -20 -54 14l-14 30q-13 34 27 55l108 56q21 12 49 12h21z" />
    <glyph glyph-name="ordmasculine" unicode="&#xba;" horiz-adv-x="357" 
d="M82 552q10 58 51 88.5t109 30.5t98.5 -36t19.5 -95l-12 -67q-20 -118 -161 -118q-67 0 -97.5 35.5t-19.5 94.5zM249 550q2 10 -4 16t-20 6q-28 0 -31 -22l-13 -74q-2 -10 4 -16t19 -6q27 0 32 22z" />
    <glyph glyph-name="guillemotright" unicode="&#xbb;" horiz-adv-x="611" 
d="M66 386q-11 13 -9.5 22t17.5 22l52 46q27 23 46 0l156 -191q11 -13 9 -23t-18 -23l-216 -183q-27 -22 -45 0l-40 47q-19 22 8 45l139 117zM313 386q-11 13 -9.5 22.5t17.5 21.5l55 43q16 12 25 12t20 -12l154 -188q18 -22 -8 -46l-214 -181q-25 -22 -46 0l-42 45
q-21 22 8 45l138 117z" />
    <glyph glyph-name="onequarter" unicode="&#xbc;" horiz-adv-x="881" 
d="M286 715q25 0 34 -9.5t5 -33.5l-56 -312q-4 -22 -14 -31t-33 -9h-40q-23 0 -30.5 8.5t-3.5 31.5l37 206l-35 -18q-40 -21 -55 14l-13 31q-13 33 27 54l108 57q20 11 48 11h21zM752 710q20 0 25.5 -11.5t-5.5 -27.5l-467 -635q-18 -24 -31 -30t-49 -6h-52q-22 0 -27.5 12
t6.5 29l469 635q16 22 28.5 28t45.5 6h57zM792 172q22 0 27 -6t2 -25l-7 -37q-4 -19 -11 -25t-28 -6h-11l-6 -39q-4 -20 -11.5 -27t-26.5 -7h-51q-19 0 -24 7t-1 27l7 39h-160q-21 0 -26.5 7t-1.5 28l4 29q5 24 19 38l196 199q14 13 24 17t30 4h50q22 0 27.5 -6.5t1.5 -29.5
l-33 -187h10zM683 251l-78 -79h64z" />
    <glyph glyph-name="onehalf" unicode="&#xbd;" horiz-adv-x="901" 
d="M286 715q25 0 34 -9.5t5 -33.5l-56 -312q-4 -22 -14 -31t-33 -9h-40q-23 0 -30.5 8.5t-3.5 31.5l37 206l-35 -18q-40 -21 -55 14l-13 31q-13 33 27 54l108 57q20 11 48 11h21zM741 710q20 0 25 -11.5t-6 -27.5l-467 -635q-18 -24 -31 -30t-49 -6h-52q-21 0 -26.5 12
t6.5 29l468 635q16 22 28.5 28t45.5 6h58zM563 309q54 94 171 94q68 0 101 -38t25 -93q-9 -54 -37.5 -86.5t-89.5 -50.5l-53 -13q-29 -7 -30 -13v-1h139q19 0 25.5 -8.5t2.5 -26.5l-6 -39q-3 -18 -12 -26t-28 -8h-231q-19 0 -26 7.5t-4 26.5l6 29q10 56 33.5 85.5t78.5 49.5
l57 20q25 9 35 18t14 28q2 12 -4 19.5t-19 7.5q-28 0 -43 -23q-14 -22 -23.5 -27t-31.5 2l-35 14q-19 8 -22.5 19t7.5 33z" />
    <glyph glyph-name="threequarters" unicode="&#xbe;" horiz-adv-x="908" 
d="M92 631q52 93 174 93q68 0 101.5 -32t25.5 -86q-4 -28 -16 -45.5t-38 -32.5q47 -32 34 -103q-20 -112 -175 -112q-130 0 -145 94q-7 37 27 48l38 13q22 7 32 2.5t15 -25.5q7 -28 49 -28q37 0 42 24q6 27 -26 27h-29q-21 0 -26 6t-1 27l7 35q4 24 11 30t30 6h20
q31 0 36 25q2 13 -5 19t-23 6q-43 0 -60 -26q-14 -23 -25 -27.5t-35 4.5l-24 11q-17 7 -20.5 16.5t6.5 30.5zM786 710q20 0 25.5 -11.5t-5.5 -27.5l-467 -635q-18 -24 -31 -30t-49 -6h-52q-21 0 -26.5 12t6.5 29l468 635q16 22 28.5 28t45.5 6h57zM824 171q21 0 26 -6t2 -25
l-6 -37q-4 -19 -11 -25t-29 -6h-10l-7 -39q-4 -20 -11.5 -27t-26.5 -7h-50q-19 0 -24 7t-1 27l6 39h-160q-20 0 -26 7.5t-2 27.5l4 29q6 24 20 38l196 199q13 13 23 17t30 4h50q23 0 28.5 -6.5t1.5 -29.5l-34 -187h11zM714 250l-78 -79h64z" />
    <glyph glyph-name="questiondown" unicode="&#xbf;" horiz-adv-x="575" 
d="M313 359q-43 0 -56 16t-6 59l3 17q8 43 27 59.5t62 16.5h20q43 0 56.5 -16.5t5.5 -59.5l-3 -17q-7 -43 -26 -59t-62 -16h-21zM484 -60q-46 -79 -113 -119.5t-173 -40.5q-118 0 -179.5 61t-45.5 151q7 43 23.5 76t43 56.5t45 36t53.5 29.5t45 23q53 29 59 64q4 22 14 30.5
t31 8.5h60q21 0 28 -8.5t3 -30.5q-11 -63 -40.5 -99t-76.5 -62q-7 -4 -27.5 -15t-28.5 -16t-23.5 -16t-23 -20.5t-15 -24t-10.5 -31.5q-6 -35 14.5 -56t67.5 -21q49 0 80.5 18.5t57.5 60.5q14 23 25.5 28.5t30.5 -3.5l59 -28q20 -9 23.5 -19.5t-7.5 -32.5z" />
    <glyph glyph-name="Agrave" unicode="&#xc0;" horiz-adv-x="670" 
d="M361 907q27 27 67 2l126 -83q12 -8 11 -15.5t-15 -22.5l-24 -25q-14 -14 -46 -2l-165 62q-15 7 -14.5 15.5t16.5 24.5zM617 40q7 -40 -34 -40h-70q-38 0 -51.5 7.5t-16.5 29.5l-14 94h-248l-48 -94q-11 -22 -26.5 -29.5t-52.5 -7.5h-74q-42 0 -20 40l352 636
q10 20 21.5 27t33.5 7h77q22 0 31.5 -6.5t13.5 -25.5zM387 418q-4 32 -4 68t2 56l2 19h-8q-13 -71 -49 -142l-80 -156h162z" />
    <glyph glyph-name="Aacute" unicode="&#xc1;" horiz-adv-x="670" 
d="M463 909q47 24 66 -3l28 -43q7 -11 8.5 -18t-3.5 -12.5t-17 -9.5l-186 -62q-37 -12 -46 2l-14 25q-10 14 -8 22t16 16zM617 40q7 -40 -34 -40h-70q-38 0 -51.5 7.5t-16.5 29.5l-14 94h-248l-48 -94q-11 -22 -26.5 -29.5t-52.5 -7.5h-74q-42 0 -20 40l352 636
q10 20 21.5 27t33.5 7h77q22 0 31.5 -6.5t13.5 -25.5zM387 418q-4 32 -4 68t2 56l2 19h-8q-13 -71 -49 -142l-80 -156h162z" />
    <glyph glyph-name="Acircumflex" unicode="&#xc2;" horiz-adv-x="670" 
d="M458 914q23 0 33.5 -4.5t26.5 -25.5l79 -97q10 -11 5 -20.5t-26 -9.5h-59q-25 0 -36 3.5t-20 16.5l-30 44l-49 -44q-15 -14 -25.5 -17t-35.5 -3h-61q-22 0 -24 9.5t13 20.5l112 97q25 21 37.5 25.5t39.5 4.5h20zM617 40q7 -40 -34 -40h-70q-38 0 -51.5 7.5t-16.5 29.5
l-14 94h-248l-48 -94q-11 -22 -26.5 -29.5t-52.5 -7.5h-74q-42 0 -20 40l352 636q10 20 21.5 27t33.5 7h77q22 0 31.5 -6.5t13.5 -25.5zM387 418q-4 32 -4 68t2 56l2 19h-8q-13 -71 -49 -142l-80 -156h162z" />
    <glyph glyph-name="Atilde" unicode="&#xc3;" horiz-adv-x="670" 
d="M574 904q23 0 18 -23q-11 -65 -37 -91.5t-73 -26.5q-28 0 -49.5 12.5t-37.5 25t-30 12.5q-15 0 -21 -29q-4 -21 -24 -21h-45q-23 0 -19 22q12 65 38.5 92t70.5 27q39 0 72.5 -25t47.5 -25q16 0 21 28q4 22 24 22h44zM617 40q7 -40 -34 -40h-70q-38 0 -51.5 7.5
t-16.5 29.5l-14 94h-248l-48 -94q-11 -22 -26.5 -29.5t-52.5 -7.5h-74q-42 0 -20 40l352 636q10 20 21.5 27t33.5 7h77q22 0 31.5 -6.5t13.5 -25.5zM387 418q-4 32 -4 68t2 56l2 19h-8q-13 -71 -49 -142l-80 -156h162z" />
    <glyph glyph-name="Adieresis" unicode="&#xc4;" horiz-adv-x="670" 
d="M342 902q36 0 48 -13.5t6 -49.5l-2 -11q-7 -36 -24 -50t-53 -14h-7q-36 0 -47 14t-5 50l2 11q7 36 22.5 49.5t51.5 13.5h8zM548 902q37 0 48.5 -13.5t4.5 -49.5l-2 -11q-6 -36 -22.5 -50t-52.5 -14h-7q-37 0 -48.5 14.5t-4.5 49.5l2 11q6 36 22 49.5t53 13.5h7zM617 40
q7 -40 -34 -40h-70q-38 0 -51.5 7.5t-16.5 29.5l-14 94h-248l-48 -94q-11 -22 -26.5 -29.5t-52.5 -7.5h-74q-42 0 -20 40l352 636q10 20 21.5 27t33.5 7h77q22 0 31.5 -6.5t13.5 -25.5zM387 418q-4 32 -4 68t2 56l2 19h-8q-13 -71 -49 -142l-80 -156h162z" />
    <glyph glyph-name="Aring" unicode="&#xc5;" horiz-adv-x="671" 
d="M273 757q10 60 57 97.5t110 37.5q61 0 93.5 -37.5t22.5 -97.5q-10 -63 -62 -101l123 -616q7 -40 -34 -40h-70q-38 0 -51.5 7.5t-16.5 29.5l-14 94h-248l-48 -94q-11 -22 -26.5 -29.5t-52.5 -7.5h-74q-42 0 -20 40l340 615q-39 39 -29 102zM466 757q4 22 -7.5 36.5
t-33.5 14.5q-23 0 -40 -14t-21 -37q-4 -22 8 -36t35 -14q22 0 38.5 14t20.5 36zM387 418q-4 32 -4 68t2 56l2 19h-8q-13 -71 -49 -142l-80 -156h162z" />
    <glyph glyph-name="AE" unicode="&#xc6;" horiz-adv-x="880" 
d="M785 149q23 0 30 -9.5t3 -31.5l-11 -67q-4 -23 -14.5 -32t-33.5 -9h-337q-23 0 -30.5 9t-3.5 32l16 88h-196l-73 -93q-16 -21 -30.5 -28.5t-50.5 -7.5h-80q-44 0 -19 40l510 636q17 21 26.5 27.5t28.5 6.5h354q23 0 30.5 -9t3.5 -32l-12 -67q-4 -22 -14.5 -31t-33.5 -9
h-218l-22 -129h168q23 0 30 -9t3 -31l-11 -67q-4 -23 -15 -32t-34 -9h-168l-24 -136h228zM466 469l-156 -211h117z" />
    <glyph glyph-name="Ccedilla" unicode="&#xc7;" horiz-adv-x="640" 
d="M411 725q209 0 241 -171q4 -22 -2.5 -33.5t-29.5 -18.5l-73 -24q-23 -7 -33 -2t-15 27q-15 73 -112 73q-133 0 -154 -119l-36 -204q-21 -119 112 -119q97 0 139 73q12 22 24 27.5t32 -2.5l75 -29q20 -8 24 -19.5t-7 -32.5q-77 -141 -251 -163l-25 -46h6q46 0 64 -28.5
t6 -69.5q-14 -50 -58 -72t-100 -22q-42 0 -70 15q-20 9 -16 31l6 37q4 26 24 15q28 -14 53 -14q42 0 47 25q2 12 -7 18t-31 6h-20q-28 0 -11 28l46 75q-127 7 -185.5 81.5t-37.5 194.5l36 204q22 125 109.5 192t229.5 67z" />
    <glyph glyph-name="Egrave" unicode="&#xc8;" horiz-adv-x="584" 
d="M330 907q26 26 66 2l126 -83q12 -8 11.5 -15.5t-14.5 -22.5l-25 -25q-13 -14 -45 -2l-165 62q-15 7 -14.5 15.5t16.5 24.5zM577 710q23 0 30.5 -9t3.5 -32l-12 -67q-4 -22 -14.5 -31t-33.5 -9h-281l-22 -129h231q22 0 29.5 -8.5t3.5 -31.5l-12 -67q-4 -23 -14.5 -32
t-33.5 -9h-231l-24 -136h291q23 0 30 -9.5t3 -31.5l-12 -67q-4 -23 -14 -32t-33 -9h-412q-23 0 -30.5 9t-3.5 32l111 628q5 23 15 32t33 9h402z" />
    <glyph glyph-name="Eacute" unicode="&#xc9;" horiz-adv-x="584" 
d="M432 909q47 24 66 -3l28 -43q7 -11 8.5 -18t-3.5 -12.5t-17 -9.5l-187 -62q-36 -12 -45 2l-14 25q-10 14 -8 22t16 16zM577 710q23 0 30.5 -9t3.5 -32l-12 -67q-4 -22 -14.5 -31t-33.5 -9h-281l-22 -129h231q22 0 29.5 -8.5t3.5 -31.5l-12 -67q-4 -23 -14.5 -32t-33.5 -9
h-231l-24 -136h291q23 0 30 -9.5t3 -31.5l-12 -67q-4 -23 -14 -32t-33 -9h-412q-23 0 -30.5 9t-3.5 32l111 628q5 23 15 32t33 9h402z" />
    <glyph glyph-name="Ecircumflex" unicode="&#xca;" horiz-adv-x="584" 
d="M427 914q23 0 33.5 -4.5t26.5 -25.5l79 -97q10 -11 5 -20.5t-26 -9.5h-59q-25 0 -36.5 3.5t-20.5 16.5l-29 44l-49 -44q-15 -14 -26 -17t-36 -3h-60q-22 0 -24 9.5t13 20.5l112 97q24 21 36.5 25.5t40.5 4.5h20zM577 710q23 0 30.5 -9t3.5 -32l-12 -67q-4 -22 -14.5 -31
t-33.5 -9h-281l-22 -129h231q22 0 29.5 -8.5t3.5 -31.5l-12 -67q-4 -23 -14.5 -32t-33.5 -9h-231l-24 -136h291q23 0 30 -9.5t3 -31.5l-12 -67q-4 -23 -14 -32t-33 -9h-412q-23 0 -30.5 9t-3.5 32l111 628q5 23 15 32t33 9h402z" />
    <glyph glyph-name="Edieresis" unicode="&#xcb;" horiz-adv-x="584" 
d="M310 902q37 0 49 -13.5t6 -49.5l-3 -11q-6 -35 -22.5 -49.5t-53.5 -14.5h-7q-36 0 -47 14t-5 50l2 11q6 36 21.5 49.5t52.5 13.5h7zM517 902q37 0 48.5 -13.5t4.5 -49.5l-2 -11q-6 -36 -22.5 -50t-52.5 -14h-7q-36 0 -48 14t-6 50l3 11q6 36 22 49.5t53 13.5h7zM577 710
q23 0 30.5 -9t3.5 -32l-12 -67q-4 -22 -14.5 -31t-33.5 -9h-281l-22 -129h231q22 0 29.5 -8.5t3.5 -31.5l-12 -67q-4 -23 -14.5 -32t-33.5 -9h-231l-24 -136h291q23 0 30 -9.5t3 -31.5l-12 -67q-4 -23 -14 -32t-33 -9h-412q-23 0 -30.5 9t-3.5 32l111 628q5 23 15 32t33 9
h402z" />
    <glyph glyph-name="Igrave" unicode="&#xcc;" horiz-adv-x="287" 
d="M170 907q26 26 66 2l126 -83q12 -8 11 -15.5t-15 -22.5l-24 -25q-13 -14 -46 -2l-165 62q-15 7 -14.5 15.5t16.5 24.5zM127 670q5 23 15 31.5t32 8.5h82q23 0 30 -9t3 -31l-111 -630q-4 -22 -14 -31t-33 -9h-82q-22 0 -29.5 8.5t-3.5 31.5z" />
    <glyph glyph-name="Iacute" unicode="&#xcd;" horiz-adv-x="287" 
d="M271 909q47 24 66 -3l28 -43q11 -16 8.5 -24.5t-20.5 -15.5l-186 -62q-37 -12 -45 2l-15 25q-9 14 -7.5 22.5t15.5 15.5zM127 670q5 23 15 31.5t32 8.5h82q23 0 30 -9t3 -31l-111 -630q-4 -22 -14 -31t-33 -9h-82q-22 0 -29.5 8.5t-3.5 31.5z" />
    <glyph glyph-name="Icircumflex" unicode="&#xce;" horiz-adv-x="287" 
d="M266 914q23 0 33.5 -4.5t26.5 -25.5l80 -97q10 -11 5 -20.5t-27 -9.5h-58q-26 0 -37 3.5t-20 16.5l-30 44l-49 -44q-15 -14 -25.5 -17t-35.5 -3h-61q-21 0 -23 9.5t12 20.5l112 97q25 21 37.5 25.5t40.5 4.5h19zM127 670q5 23 15 31.5t32 8.5h82q23 0 30 -9t3 -31
l-111 -630q-4 -22 -14 -31t-33 -9h-82q-22 0 -29.5 8.5t-3.5 31.5z" />
    <glyph glyph-name="Idieresis" unicode="&#xcf;" horiz-adv-x="287" 
d="M150 902q37 0 48.5 -13.5t5.5 -49.5l-2 -11q-6 -35 -23 -49.5t-53 -14.5h-8q-36 0 -47 14t-5 50l2 11q7 36 22.5 49.5t52.5 13.5h7zM356 902q37 0 48.5 -13.5t5.5 -49.5l-3 -11q-6 -36 -22.5 -50t-52.5 -14h-7q-36 0 -47.5 14t-5.5 50l2 11q6 36 22.5 49.5t52.5 13.5h7z
M127 670q5 23 15 31.5t32 8.5h82q23 0 30 -9t3 -31l-111 -630q-4 -22 -14 -31t-33 -9h-82q-22 0 -29.5 8.5t-3.5 31.5z" />
    <glyph glyph-name="Eth" unicode="&#xd0;" horiz-adv-x="694" 
d="M428 710q139 0 203.5 -77.5t42.5 -204.5l-30 -172q-23 -125 -109 -190.5t-232 -65.5h-235q-22 0 -29.5 9t-3.5 32l48 273h-51q-14 0 -17.5 5t-1.5 21l10 53q4 25 28 25h51l44 251q5 23 15 32t32 9h235zM513 441q12 61 -15 91t-98 30h-111l-25 -144h107q13 0 17 -5.5
t1 -19.5l-9 -53q-2 -15 -8 -20.5t-20 -5.5h-106l-30 -165h111q134 0 157 120z" />
    <glyph glyph-name="Ntilde" unicode="&#xd1;" horiz-adv-x="701" 
d="M590 904q23 0 18 -23q-11 -65 -37 -91.5t-73 -26.5q-28 0 -49.5 12.5t-37.5 25t-30 12.5q-15 0 -21 -29q-4 -21 -24 -21h-45q-23 0 -19 22q12 65 38.5 92t70.5 27q39 0 72.5 -25t47.5 -25q16 0 21 28q4 22 24 22h44zM669 710q23 0 30.5 -9t3.5 -32l-111 -628
q-4 -23 -14.5 -32t-33.5 -9h-80q-26 0 -35 19l-143 298q-38 79 -50 187h-8q8 -113 -11 -224l-42 -239q-4 -23 -14.5 -32t-33.5 -9h-77q-23 0 -30.5 9t-3.5 32l111 628q5 23 15 32t33 9h77q29 0 39 -19l146 -303q10 -21 18.5 -45t14 -46t9 -37.5t6.5 -32.5t3 -18h7
q-14 105 7 221l43 239q4 23 14 32t33 9h77z" />
    <glyph glyph-name="Ograve" unicode="&#xd2;" horiz-adv-x="675" 
d="M366 917q26 26 66 2l126 -83q12 -8 11.5 -15.5t-14.5 -22.5l-25 -25q-13 -14 -45 -2l-165 62q-15 7 -14.5 15.5t16.5 24.5zM72 465q22 125 109 192.5t228 67.5q140 0 205.5 -76.5t44.5 -203.5l-36 -203q-22 -125 -108.5 -191t-228.5 -66q-140 0 -205.5 75.5t-44.5 201.5z
M500 459q10 58 -19.5 87.5t-93.5 29.5q-133 0 -153 -117l-37 -208q-10 -58 19 -87.5t93 -29.5q133 0 154 117z" />
    <glyph glyph-name="Oacute" unicode="&#xd3;" horiz-adv-x="675" 
d="M467 919q48 24 66 -3l29 -43q7 -11 8.5 -18t-3.5 -12.5t-17 -9.5l-187 -62q-36 -12 -45 2l-15 25q-16 25 9 38zM72 465q22 125 109 192.5t228 67.5q140 0 205.5 -76.5t44.5 -203.5l-36 -203q-22 -125 -108.5 -191t-228.5 -66q-140 0 -205.5 75.5t-44.5 201.5zM500 459
q10 58 -19.5 87.5t-93.5 29.5q-133 0 -153 -117l-37 -208q-10 -58 19 -87.5t93 -29.5q133 0 154 117z" />
    <glyph glyph-name="Ocircumflex" unicode="&#xd4;" horiz-adv-x="675" 
d="M463 924q23 0 33.5 -4.5t26.5 -25.5l79 -97q10 -11 5 -20.5t-26 -9.5h-59q-25 0 -36.5 3.5t-20.5 16.5l-29 44l-49 -44q-15 -14 -26 -17t-36 -3h-60q-22 0 -24 9.5t13 20.5l112 97q24 21 36.5 25.5t40.5 4.5h20zM72 465q22 125 109 192.5t228 67.5q140 0 205.5 -76.5
t44.5 -203.5l-36 -203q-22 -125 -108.5 -191t-228.5 -66q-140 0 -205.5 75.5t-44.5 201.5zM500 459q10 58 -19.5 87.5t-93.5 29.5q-133 0 -153 -117l-37 -208q-10 -58 19 -87.5t93 -29.5q133 0 154 117z" />
    <glyph glyph-name="Otilde" unicode="&#xd5;" horiz-adv-x="675" 
d="M579 914q23 0 18 -23q-11 -65 -37 -91.5t-73 -26.5q-28 0 -49.5 12.5t-37.5 25t-30 12.5q-17 0 -21 -29q-5 -21 -24 -21h-45q-23 0 -19 22q12 65 38.5 92t70.5 27q39 0 72.5 -25t47.5 -25q16 0 20 28q4 22 25 22h44zM72 465q22 125 109 192.5t228 67.5q140 0 205.5 -76.5
t44.5 -203.5l-36 -203q-22 -125 -108.5 -191t-228.5 -66q-140 0 -205.5 75.5t-44.5 201.5zM500 459q10 58 -19.5 87.5t-93.5 29.5q-133 0 -153 -117l-37 -208q-10 -58 19 -87.5t93 -29.5q133 0 154 117z" />
    <glyph glyph-name="Odieresis" unicode="&#xd6;" horiz-adv-x="675" 
d="M346 912q37 0 49 -13.5t6 -49.5l-3 -11q-6 -35 -22.5 -49.5t-53.5 -14.5h-7q-36 0 -47 14t-5 50l2 11q6 36 21.5 49.5t52.5 13.5h7zM553 912q37 0 48.5 -13.5t4.5 -49.5l-2 -11q-6 -36 -22.5 -50t-52.5 -14h-7q-36 0 -48 14t-6 50l3 11q6 36 22 49.5t53 13.5h7zM72 465
q22 125 109 192.5t228 67.5q140 0 205.5 -76.5t44.5 -203.5l-36 -203q-22 -125 -108.5 -191t-228.5 -66q-140 0 -205.5 75.5t-44.5 201.5zM500 459q10 58 -19.5 87.5t-93.5 29.5q-133 0 -153 -117l-37 -208q-10 -58 19 -87.5t93 -29.5q133 0 154 117z" />
    <glyph glyph-name="multiply" unicode="&#xd7;" horiz-adv-x="519" 
d="M448 216q22 -29 -10 -55l-47 -40q-18 -16 -29.5 -16t-24.5 16l-91 109l-127 -108q-19 -16 -31 -16t-24 16l-33 40q-13 14 -11 26.5t21 28.5l127 108l-89 108q-13 17 -10.5 29t19.5 26l47 40q19 16 31 16t24 -16l90 -108l128 109q19 16 31 16t24 -16l33 -40q13 -15 11 -27
t-21 -28l-129 -109z" />
    <glyph glyph-name="Oslash" unicode="&#xd8;" horiz-adv-x="676" 
d="M720 754q14 0 4 -14l-93 -114q46 -70 28 -181l-36 -203q-22 -125 -108.5 -191t-228.5 -66q-94 0 -152 34l-38 -46q-7 -8 -11.5 -10t-18.5 -2h-82q-17 0 -4 15l85 104q-47 72 -29 182l35 203q23 125 110 192.5t228 67.5q96 0 156 -36l42 52q12 13 29 13h84zM462 560
q-26 16 -75 16q-133 0 -153 -117l-35 -195q-3 -15 -3 -29zM497 444q1 5 2 15t1 11l-264 -321q27 -15 73 -15q133 0 153 117z" />
    <glyph glyph-name="Ugrave" unicode="&#xd9;" horiz-adv-x="691" 
d="M371 907q26 26 66 2l126 -83q12 -8 11.5 -15.5t-14.5 -22.5l-25 -25q-13 -14 -45 -2l-165 62q-15 7 -14.5 15.5t16.5 24.5zM209 246q-10 -54 17.5 -83.5t89.5 -29.5q127 0 146 113l75 423q5 23 15 32t33 9h81q23 0 30 -9t3 -32l-77 -434q-21 -122 -104.5 -186t-224.5 -64
q-139 0 -202.5 77.5t-41.5 202.5l72 404q4 23 14.5 32t33.5 9h81q23 0 30 -9t3 -32z" />
    <glyph glyph-name="Uacute" unicode="&#xda;" horiz-adv-x="691" 
d="M472 909q48 24 66 -3l29 -43q10 -16 8 -24.5t-21 -15.5l-186 -62q-36 -12 -45 2l-15 25q-16 25 9 38zM209 246q-10 -54 17.5 -83.5t89.5 -29.5q127 0 146 113l75 423q5 23 15 32t33 9h81q23 0 30 -9t3 -32l-77 -434q-21 -122 -104.5 -186t-224.5 -64q-139 0 -202.5 77.5
t-41.5 202.5l72 404q4 23 14.5 32t33.5 9h81q23 0 30 -9t3 -32z" />
    <glyph glyph-name="Ucircumflex" unicode="&#xdb;" horiz-adv-x="691" 
d="M467 914q24 0 34.5 -4.5t26.5 -25.5l79 -97q10 -11 5 -20.5t-27 -9.5h-58q-25 0 -36.5 3.5t-20.5 16.5l-29 44l-49 -44q-15 -14 -26 -17t-36 -3h-60q-22 0 -24 9.5t13 20.5l112 97q24 21 36.5 25.5t40.5 4.5h19zM209 246q-10 -54 17.5 -83.5t89.5 -29.5q127 0 146 113
l75 423q5 23 15 32t33 9h81q23 0 30 -9t3 -32l-77 -434q-21 -122 -104.5 -186t-224.5 -64q-139 0 -202.5 77.5t-41.5 202.5l72 404q4 23 14.5 32t33.5 9h81q23 0 30 -9t3 -32z" />
    <glyph glyph-name="Udieresis" unicode="&#xdc;" horiz-adv-x="691" 
d="M351 902q37 0 49 -13.5t6 -49.5l-3 -11q-6 -35 -22.5 -49.5t-53.5 -14.5h-7q-36 0 -47.5 14t-4.5 50l2 11q6 36 21.5 49.5t52.5 13.5h7zM558 902q37 0 48 -13.5t5 -49.5l-2 -11q-6 -36 -22.5 -50t-52.5 -14h-7q-36 0 -48 14t-6 50l3 11q6 36 22 49.5t53 13.5h7zM209 246
q-10 -54 17.5 -83.5t89.5 -29.5q127 0 146 113l75 423q5 23 15 32t33 9h81q23 0 30 -9t3 -32l-77 -434q-21 -122 -104.5 -186t-224.5 -64q-139 0 -202.5 77.5t-41.5 202.5l72 404q4 23 14.5 32t33.5 9h81q23 0 30 -9t3 -32z" />
    <glyph glyph-name="Yacute" unicode="&#xdd;" horiz-adv-x="655" 
d="M458 909q48 25 66 -3l28 -43q11 -16 8.5 -24.5t-20.5 -15.5l-186 -62q-36 -12 -45 2l-15 25q-9 14 -7.5 22.5t15.5 15.5zM695 710q22 0 25 -12t-11 -29l-304 -393l-42 -235q-4 -23 -14.5 -32t-33.5 -9h-81q-23 0 -30 9t-3 32l41 237l-166 391q-8 17 -1 29t29 12h90
q38 0 51 -5.5t22 -30.5l85 -233l169 233q17 25 32 30.5t53 5.5h89z" />
    <glyph glyph-name="Thorn" unicode="&#xde;" horiz-adv-x="634" 
d="M414 610q116 0 172 -72t35 -189q-19 -114 -98 -176.5t-197 -62.5h-136l-12 -69q-4 -23 -14.5 -32t-33.5 -9h-80q-23 0 -30.5 9t-3.5 32l111 628q5 23 15 32t33 9h80q23 0 30.5 -9t3.5 -32l-10 -59h135zM334 258q47 0 80 28.5t41 72.5t-15 73t-69 29h-118l-37 -203h118z
" />
    <glyph glyph-name="germandbls" unicode="&#xdf;" horiz-adv-x="564" 
d="M92 534q18 100 85.5 158t176.5 58q112 0 161.5 -60t32.5 -157q-18 -95 -94 -140v-4q89 -42 64 -182q-18 -100 -86 -153.5t-172 -53.5h-41q-22 0 -29.5 9t-3.5 32l12 67q5 23 15 32t33 9h21q75 0 90 78q6 38 -10 59t-52 21h-22q-22 0 -29.5 9t-3.5 32l12 63q4 23 13.5 32
t31.5 9h11q31 0 52 19.5t27 54.5q7 37 -9 56.5t-51 19.5q-34 0 -57 -20.5t-30 -55.5l-85 -485q-4 -23 -14.5 -32t-33.5 -9h-69q-23 0 -30.5 9t-3.5 32z" />
    <glyph glyph-name="agrave" unicode="&#xe0;" horiz-adv-x="542" 
d="M272 731q28 27 66 2l126 -84q12 -8 10.5 -15.5t-15.5 -22.5l-24 -24q-14 -15 -46 -3l-164 64q-16 8 -15 15.5t17 24.5zM39 333q19 105 84.5 153.5t184.5 48.5q121 0 185 -33q22 -11 26.5 -21t-0.5 -35l-69 -394q-4 -21 -13 -30t-31 -14q-93 -23 -205 -23
q-108 0 -155.5 60.5t-28.5 161.5zM353 393q-27 7 -59 7q-48 0 -73.5 -19t-33.5 -63l-22 -125q-12 -73 72 -73q40 0 75 7l46 258q2 6 -5 8z" />
    <glyph glyph-name="aacute" unicode="&#xe1;" horiz-adv-x="542" 
d="M372 733q47 24 66 -2l29 -43q11 -16 8.5 -24.5t-20.5 -15.5l-186 -64q-36 -12 -46 3l-15 24q-9 14 -7.5 22.5t16.5 15.5zM39 333q19 105 84.5 153.5t184.5 48.5q121 0 185 -33q22 -11 26.5 -21t-0.5 -35l-69 -394q-4 -21 -13 -30t-31 -14q-93 -23 -205 -23
q-108 0 -155.5 60.5t-28.5 161.5zM353 393q-27 7 -59 7q-48 0 -73.5 -19t-33.5 -63l-22 -125q-12 -73 72 -73q40 0 75 7l46 258q2 6 -5 8z" />
    <glyph glyph-name="acircumflex" unicode="&#xe2;" horiz-adv-x="542" 
d="M367 739q23 0 33.5 -5t27.5 -26l79 -96q10 -12 5 -21.5t-27 -9.5h-55q-25 0 -36 3.5t-20 16.5l-31 44l-47 -43q-16 -14 -26.5 -17.5t-35.5 -3.5h-63q-22 0 -23.5 9.5t12.5 21.5l113 96q24 21 36.5 26t39.5 5h18zM39 333q19 105 84.5 153.5t184.5 48.5q121 0 185 -33
q22 -11 26.5 -21t-0.5 -35l-69 -394q-4 -21 -13 -30t-31 -14q-93 -23 -205 -23q-108 0 -155.5 60.5t-28.5 161.5zM353 393q-27 7 -59 7q-48 0 -73.5 -19t-33.5 -63l-22 -125q-12 -73 72 -73q40 0 75 7l46 258q2 6 -5 8z" />
    <glyph glyph-name="atilde" unicode="&#xe3;" horiz-adv-x="542" 
d="M484 731q23 0 19 -22q-12 -66 -38 -92.5t-73 -26.5q-37 0 -69.5 25t-47.5 25q-16 0 -21 -28q-4 -22 -24 -22h-45q-23 0 -18 23q11 65 37.5 91.5t70.5 26.5q40 0 73 -25t47 -25q15 0 21 29q4 21 24 21h44zM39 333q19 105 84.5 153.5t184.5 48.5q121 0 185 -33
q22 -11 26.5 -21t-0.5 -35l-69 -394q-4 -21 -13 -30t-31 -14q-93 -23 -205 -23q-108 0 -155.5 60.5t-28.5 161.5zM353 393q-27 7 -59 7q-48 0 -73.5 -19t-33.5 -63l-22 -125q-12 -73 72 -73q40 0 75 7l46 258q2 6 -5 8z" />
    <glyph glyph-name="adieresis" unicode="&#xe4;" horiz-adv-x="542" 
d="M251 723q37 0 48.5 -14t4.5 -50l-2 -11q-6 -35 -22 -49t-53 -14h-7q-37 0 -48.5 14t-4.5 49l2 11q6 36 22 50t53 14h7zM458 723q37 0 48 -14t4 -50l-2 -11q-7 -36 -22.5 -49.5t-51.5 -13.5h-7q-37 0 -49 14t-6 49l2 11q7 36 23.5 50t53.5 14h7zM39 333q19 105 84.5 153.5
t184.5 48.5q121 0 185 -33q22 -11 26.5 -21t-0.5 -35l-69 -394q-4 -21 -13 -30t-31 -14q-93 -23 -205 -23q-108 0 -155.5 60.5t-28.5 161.5zM353 393q-27 7 -59 7q-48 0 -73.5 -19t-33.5 -63l-22 -125q-12 -73 72 -73q40 0 75 7l46 258q2 6 -5 8z" />
    <glyph glyph-name="aring" unicode="&#xe5;" horiz-adv-x="542" 
d="M226 679q8 50 47 81.5t91 31.5q50 0 77 -31.5t18 -81.5q-8 -49 -46 -79.5t-88 -30.5q-52 0 -80 30.5t-19 79.5zM384 679q4 19 -5.5 30.5t-27.5 11.5q-19 0 -33 -11.5t-18 -30.5q-2 -18 8 -29t29 -11q18 0 31.5 11t15.5 29zM39 333q19 105 84.5 153.5t184.5 48.5
q121 0 185 -33q22 -11 26.5 -21t-0.5 -35l-69 -394q-4 -21 -13 -30t-31 -14q-93 -23 -205 -23q-108 0 -155.5 60.5t-28.5 161.5zM353 393q-27 7 -59 7q-48 0 -73.5 -19t-33.5 -63l-22 -125q-12 -73 72 -73q40 0 75 7l46 258q2 6 -5 8z" />
    <glyph glyph-name="ae" unicode="&#xe6;" horiz-adv-x="777" 
d="M417 481q60 54 155 54q104 0 154.5 -48t35.5 -133q-13 -72 -73 -110.5t-159 -38.5q-38 0 -99 9l-5 -26q-13 -79 68 -79q59 0 94 40q15 19 25.5 22t29.5 -9l44 -28q31 -21 3 -58q-65 -91 -219 -91q-76 0 -122 29q-68 -29 -161 -29q-113 0 -157.5 45.5t-29.5 129.5
q14 80 73.5 117t175.5 37q34 0 62 -2l3 21q2 15 4 32t-12 30t-46 13q-47 0 -80 -38q-15 -17 -24 -20t-29 5l-51 23q-36 16 -11 53q74 104 220 104q85 0 131 -54zM614 361q5 26 -11 40t-53 14q-39 0 -65 -20t-33 -57l-2 -17q52 -7 88 -7q68 0 76 47zM291 199q-48 3 -73 3
q-60 0 -69 -51q-5 -26 6.5 -37.5t42.5 -11.5q45 0 89 8q-4 27 1 69z" />
    <glyph glyph-name="ccedilla" unicode="&#xe7;" horiz-adv-x="513" 
d="M40 332q36 203 267 203q86 0 135 -36.5t59 -96.5q4 -22 -3 -33.5t-29 -18.5l-59 -20q-23 -8 -33 -2.5t-15 27.5q-12 50 -77 50q-81 0 -95 -76l-25 -139q-12 -75 68 -75q61 0 91 51q13 21 25 26t32 -2l63 -20q38 -15 15 -53q-65 -112 -197 -129l-25 -45h6q46 0 64.5 -28.5
t6.5 -69.5q-14 -50 -58 -72t-101 -22q-42 0 -70 15q-20 9 -16 31l6 37q4 26 25 15q27 -15 52 -15q41 0 47 26q2 12 -7 18t-30 6h-20q-29 0 -11 28l46 74q-97 10 -136.5 67.5t-22.5 151.5z" />
    <glyph glyph-name="egrave" unicode="&#xe8;" horiz-adv-x="536" 
d="M268 731q28 27 66 2l126 -84q12 -8 10.5 -16t-15.5 -22l-24 -24q-14 -15 -45 -3l-165 64q-15 7 -14.5 15.5t16.5 24.5zM39 330q18 99 89.5 152t187.5 53q105 0 161.5 -51.5t42.5 -136.5q-25 -142 -242 -142q-42 0 -110 9l-4 -26q-15 -79 75 -79q69 0 106 40
q17 18 28.5 21t31.5 -8l45 -27q34 -21 5 -59q-71 -91 -238 -91q-122 0 -170 66t-29 168zM373 361q4 26 -15.5 40t-61.5 14t-70 -21.5t-36 -58.5l-3 -13q64 -8 97 -8q80 0 89 47z" />
    <glyph glyph-name="eacute" unicode="&#xe9;" horiz-adv-x="536" 
d="M368 733q48 24 66 -2l29 -43q11 -16 8.5 -24.5t-20.5 -15.5l-186 -64q-36 -12 -45 3l-16 24q-16 25 9 38zM39 330q18 99 89.5 152t187.5 53q105 0 161.5 -51.5t42.5 -136.5q-25 -142 -242 -142q-42 0 -110 9l-4 -26q-15 -79 75 -79q69 0 106 40q17 18 28.5 21t31.5 -8
l45 -27q34 -21 5 -59q-71 -91 -238 -91q-122 0 -170 66t-29 168zM373 361q4 26 -15.5 40t-61.5 14t-70 -21.5t-36 -58.5l-3 -13q64 -8 97 -8q80 0 89 47z" />
    <glyph glyph-name="ecircumflex" unicode="&#xea;" horiz-adv-x="536" 
d="M167 581q-14 0 -19.5 4.5t-2.5 11.5t11 15l113 96q25 21 37 26t40 5h18q23 0 33.5 -5t27.5 -26l78 -96q11 -12 5.5 -21.5t-26.5 -9.5h-56q-25 0 -36 3.5t-20 16.5l-30 44l-48 -43q-15 -14 -26 -17.5t-36 -3.5h-63zM316 535q105 0 161.5 -51.5t42.5 -136.5
q-25 -142 -242 -142q-42 0 -110 9l-4 -26q-15 -79 75 -79q69 0 106 40q17 18 28.5 21t31.5 -8l45 -27q34 -21 5 -59q-71 -91 -238 -91q-122 0 -170 66t-29 168l21 111q18 99 89.5 152t187.5 53zM373 361q4 26 -15.5 40t-61.5 14t-70 -21.5t-36 -58.5l-3 -13q64 -8 97 -8
q80 0 89 47z" />
    <glyph glyph-name="edieresis" unicode="&#xeb;" horiz-adv-x="536" 
d="M248 723q36 0 47.5 -14t5.5 -50l-2 -11q-7 -36 -23.5 -49.5t-52.5 -13.5h-7q-36 0 -47.5 13.5t-5.5 49.5l2 11q7 36 23 50t52 14h8zM454 723q37 0 48 -14t4 -50l-2 -11q-6 -36 -22 -49.5t-52 -13.5h-7q-37 0 -49 14t-5 49l2 11q6 36 22.5 50t53.5 14h7zM39 330
q18 99 89.5 152t187.5 53q105 0 161.5 -51.5t42.5 -136.5q-25 -142 -242 -142q-42 0 -110 9l-4 -26q-15 -79 75 -79q69 0 106 40q17 18 28.5 21t31.5 -8l45 -27q34 -21 5 -59q-71 -91 -238 -91q-122 0 -170 66t-29 168zM373 361q4 26 -15.5 40t-61.5 14t-70 -21.5t-36 -58.5
l-3 -13q64 -8 97 -8q80 0 89 47z" />
    <glyph glyph-name="igrave" unicode="&#xec;" horiz-adv-x="252" 
d="M120 731q32 31 63 3l109 -90q11 -9 9.5 -16.5t-15.5 -21.5l-20 -21q-15 -16 -45 -1l-143 70q-15 9 -14 16.5t17 23.5zM204 520q20 0 26.5 -8t2.5 -29l-78 -446q-4 -21 -13.5 -29t-29.5 -8h-78q-21 0 -27.5 8t-2.5 29l78 446q4 21 13.5 29t30.5 8h78z" />
    <glyph glyph-name="iacute" unicode="&#xed;" horiz-adv-x="252" 
d="M210 733q45 27 66 -1l30 -42q11 -15 8.5 -24t-20.5 -16l-169 -66q-35 -14 -45 1l-16 24q-9 14 -7.5 22t15.5 16zM204 520q20 0 26.5 -8t2.5 -29l-78 -446q-4 -21 -13.5 -29t-29.5 -8h-78q-21 0 -27.5 8t-2.5 29l78 446q4 21 13.5 29t30.5 8h78z" />
    <glyph glyph-name="icircumflex" unicode="&#xee;" horiz-adv-x="252" 
d="M334 610q19 -30 -22 -30h-56q-23 0 -33 5t-18 19l-18 33l-37 -37q-13 -13 -24.5 -16.5t-35.5 -3.5h-60q-42 0 -12 30l98 94q21 21 34 25.5t41 4.5h17q24 0 35 -4.5t25 -25.5zM204 520q20 0 26.5 -8t2.5 -29l-78 -446q-4 -21 -13.5 -29t-29.5 -8h-78q-21 0 -27.5 8
t-2.5 29l78 446q4 21 13.5 29t30.5 8h78z" />
    <glyph glyph-name="idieresis" unicode="&#xef;" horiz-adv-x="252" 
d="M110 723q37 0 48.5 -14t4.5 -50l-2 -11q-7 -36 -23.5 -49.5t-52.5 -13.5h-7q-36 0 -47.5 13.5t-5.5 49.5l2 11q7 36 23 50t53 14h7zM298 723q36 0 47.5 -14t5.5 -50l-2 -11q-7 -36 -23 -49.5t-52 -13.5h-7q-37 0 -49 14t-5 49l2 11q7 36 23 50t53 14h7zM204 520
q20 0 26.5 -8t2.5 -29l-78 -446q-4 -21 -13.5 -29t-29.5 -8h-78q-21 0 -27.5 8t-2.5 29l78 446q4 21 13.5 29t30.5 8h78z" />
    <glyph glyph-name="eth" unicode="&#xf0;" horiz-adv-x="556" 
d="M467 751q14 12 25 1l33 -27q14 -11 -2 -27l-32 -30q71 -81 36 -277l-35 -198q-17 -99 -87.5 -153.5t-186.5 -54.5t-167.5 60t-33.5 161l18 102q17 94 82.5 143.5t161.5 49.5q81 0 122 -39q6 65 -23 100l-37 -34q-13 -12 -26 -2l-30 23q-12 11 3 26l26 26q-37 10 -112 10
q-22 0 -29 7.5t-4 29.5l10 58q4 22 13 30t30 8q132 0 206 -31zM359 296q12 75 -73 75q-89 0 -101 -75l-18 -102q-14 -75 74 -75q86 0 100 75z" />
    <glyph glyph-name="ntilde" unicode="&#xf1;" 
d="M478 731q23 0 19 -22q-12 -66 -38 -92.5t-73 -26.5q-37 0 -69.5 25t-47.5 25q-16 0 -21 -28q-4 -22 -24 -22h-45q-23 0 -18 23q11 65 37.5 91.5t70.5 26.5q40 0 73 -25t47 -25q15 0 21 29q4 21 24 21h44zM123 499q95 36 211 36q107 0 151.5 -57.5t26.5 -158.5l-49 -282
q-4 -21 -13.5 -29t-30.5 -8h-78q-20 0 -27 8t-3 29l50 286q14 75 -71 75q-39 0 -72 -9q-2 0 -4 -4l-61 -348q-4 -21 -13.5 -29t-29.5 -8h-78q-21 0 -27.5 8t-2.5 29l71 404q5 25 14.5 36.5t35.5 21.5z" />
    <glyph glyph-name="ograve" unicode="&#xf2;" horiz-adv-x="547" 
d="M268 731q28 27 66 2l127 -84q11 -8 10 -16t-15 -22l-25 -24q-14 -15 -45 -3l-165 64q-15 7 -14.5 15.5t16.5 24.5zM39 329q18 99 88 152.5t186 53.5t168 -58.5t34 -159.5l-22 -129q-18 -99 -87 -151t-187 -52q-115 0 -167.5 57.5t-34.5 157.5zM366 326q12 75 -75 75
t-101 -75l-23 -132q-14 -75 74 -75q87 0 101 75z" />
    <glyph glyph-name="oacute" unicode="&#xf3;" horiz-adv-x="547" 
d="M368 733q48 24 66 -2l29 -43q11 -16 8.5 -24.5t-20.5 -15.5l-186 -64q-36 -12 -45 3l-15 24q-10 14 -8 22.5t17 15.5zM39 329q18 99 88 152.5t186 53.5t168 -58.5t34 -159.5l-22 -129q-18 -99 -87 -151t-187 -52q-115 0 -167.5 57.5t-34.5 157.5zM366 326q12 75 -75 75
t-101 -75l-23 -132q-14 -75 74 -75q87 0 101 75z" />
    <glyph glyph-name="ocircumflex" unicode="&#xf4;" horiz-adv-x="547" 
d="M168 581q-22 0 -23.5 9.5t11.5 21.5l113 96q25 21 37 26t40 5h18q23 0 33.5 -5t27.5 -26l78 -96q11 -12 5.5 -21.5t-26.5 -9.5h-56q-25 0 -36 3.5t-20 16.5l-30 44l-48 -43q-15 -14 -26 -17.5t-36 -3.5h-62zM313 535q116 0 168 -58.5t34 -159.5l-22 -129
q-18 -99 -87 -151t-187 -52q-115 0 -167.5 57.5t-34.5 157.5l22 129q18 99 88 152.5t186 53.5zM366 326q12 75 -75 75t-101 -75l-23 -132q-14 -75 74 -75q87 0 101 75z" />
    <glyph glyph-name="otilde" unicode="&#xf5;" horiz-adv-x="547" 
d="M481 731q22 0 18 -22q-11 -66 -37 -92.5t-74 -26.5q-28 0 -49 12.5t-37 25t-30 12.5q-17 0 -21 -28q-4 -22 -25 -22h-45q-23 0 -18 23q12 65 38.5 91.5t70.5 26.5q39 0 72.5 -25t47.5 -25q15 0 21 29q3 21 24 21h44zM39 329q18 99 88 152.5t186 53.5t168 -58.5t34 -159.5
l-22 -129q-18 -99 -87 -151t-187 -52q-115 0 -167.5 57.5t-34.5 157.5zM366 326q12 75 -75 75t-101 -75l-23 -132q-14 -75 74 -75q87 0 101 75z" />
    <glyph glyph-name="odieresis" unicode="&#xf6;" horiz-adv-x="547" 
d="M248 723q36 0 47.5 -14t5.5 -50l-2 -11q-7 -36 -23.5 -49.5t-52.5 -13.5h-7q-36 0 -47.5 13.5t-5.5 49.5l2 11q7 36 23 50t52 14h8zM454 723q37 0 48 -14t4 -50l-2 -11q-6 -36 -22 -49.5t-52 -13.5h-7q-37 0 -49 14t-5 49l2 11q6 36 22.5 50t53.5 14h7zM39 329
q18 99 88 152.5t186 53.5t168 -58.5t34 -159.5l-22 -129q-18 -99 -87 -151t-187 -52q-115 0 -167.5 57.5t-34.5 157.5zM366 326q12 75 -75 75t-101 -75l-23 -132q-14 -75 74 -75q87 0 101 75z" />
    <glyph glyph-name="divide" unicode="&#xf7;" horiz-adv-x="544" 
d="M334 591q42 0 55 -16t6 -58l-2 -11q-7 -42 -26 -58t-62 -16h-20q-43 0 -56 16t-6 58l2 11q8 42 26.5 58t61.5 16h21zM489 397q23 0 30 -9t3 -32l-10 -61q-4 -23 -14.5 -32t-33.5 -9h-400q-22 0 -29.5 9t-3.5 32l11 61q4 23 14.5 32t33.5 9h399zM269 219q42 0 55 -16
t6 -58l-2 -10q-8 -43 -26.5 -59t-61.5 -16h-20q-43 0 -56 16t-6 59l2 10q8 42 26.5 58t61.5 16h21z" />
    <glyph glyph-name="oslash" unicode="&#xf8;" horiz-adv-x="547" 
d="M536 552q16 0 4 -14l-55 -67q48 -59 30 -154l-22 -129q-18 -99 -87 -151t-186 -52q-64 0 -111 19l-23 -27q-10 -12 -29 -12h-53q-16 0 -4 15l52 63q-52 56 -35 157l22 129q18 99 88 152.5t186 53.5q70 0 118 -23l23 28q10 12 27 12h55zM341 398q-17 10 -49 10
q-86 0 -100 -75l-23 -126q-2 -8 -2 -24zM197 119q21 -7 43 -7q88 0 101 75l22 122q2 8 2 17z" />
    <glyph glyph-name="ugrave" unicode="&#xf9;" 
d="M272 731q27 26 66 2l126 -84q12 -8 10.5 -15.5t-15.5 -22.5l-25 -24q-14 -15 -45 -3l-164 64q-16 7 -15 15.5t17 24.5zM508 520q21 0 27.5 -8t2.5 -29l-71 -404q-5 -25 -14.5 -36.5t-35.5 -21.5q-93 -36 -210 -36q-108 0 -152 58t-26 159l49 281q4 21 13.5 29t30.5 8h77
q21 0 27.5 -8t2.5 -29l-50 -286q-7 -39 10.5 -57t61.5 -18q35 0 66 7q9 3 10 11l60 343q4 21 13.5 29t30.5 8h77z" />
    <glyph glyph-name="uacute" unicode="&#xfa;" 
d="M372 733q47 24 66 -2l28 -43q11 -16 9 -24.5t-21 -15.5l-186 -64q-36 -12 -45 3l-15 24q-9 14 -7.5 22.5t16.5 15.5zM508 520q21 0 27.5 -8t2.5 -29l-71 -404q-5 -25 -14.5 -36.5t-35.5 -21.5q-93 -36 -210 -36q-108 0 -152 58t-26 159l49 281q4 21 13.5 29t30.5 8h77
q21 0 27.5 -8t2.5 -29l-50 -286q-7 -39 10.5 -57t61.5 -18q35 0 66 7q9 3 10 11l60 343q4 21 13.5 29t30.5 8h77z" />
    <glyph glyph-name="ucircumflex" unicode="&#xfb;" 
d="M367 739q23 0 33.5 -5t27.5 -26l79 -96q10 -12 5 -21.5t-27 -9.5h-55q-26 0 -36.5 3.5t-19.5 16.5l-31 44l-47 -43q-16 -14 -26.5 -17.5t-35.5 -3.5h-63q-22 0 -23.5 9.5t12.5 21.5l113 96q24 21 36.5 26t39.5 5h18zM508 520q21 0 27.5 -8t2.5 -29l-71 -404
q-5 -25 -14.5 -36.5t-35.5 -21.5q-93 -36 -210 -36q-108 0 -152 58t-26 159l49 281q4 21 13.5 29t30.5 8h77q21 0 27.5 -8t2.5 -29l-50 -286q-7 -39 10.5 -57t61.5 -18q35 0 66 7q9 3 10 11l60 343q4 21 13.5 29t30.5 8h77z" />
    <glyph glyph-name="udieresis" unicode="&#xfc;" 
d="M251 723q37 0 48.5 -14t4.5 -50l-2 -11q-6 -35 -22 -49t-53 -14h-8q-36 0 -47.5 14t-4.5 49l2 11q6 36 22 50t53 14h7zM458 723q36 0 47 -14t5 -50l-2 -11q-7 -36 -23 -49.5t-52 -13.5h-7q-37 0 -48.5 14t-5.5 49l2 11q7 36 23.5 50t53.5 14h7zM508 520q21 0 27.5 -8
t2.5 -29l-71 -404q-5 -25 -14.5 -36.5t-35.5 -21.5q-93 -36 -210 -36q-108 0 -152 58t-26 159l49 281q4 21 13.5 29t30.5 8h77q21 0 27.5 -8t2.5 -29l-50 -286q-7 -39 10.5 -57t61.5 -18q35 0 66 7q9 3 10 11l60 343q4 21 13.5 29t30.5 8h77z" />
    <glyph glyph-name="yacute" unicode="&#xfd;" horiz-adv-x="557" 
d="M371 733q47 24 66 -2l28 -43q12 -16 9.5 -24.5t-21.5 -15.5l-186 -64q-36 -12 -45 3l-15 24q-9 14 -7.5 22.5t16.5 15.5zM508 520q20 0 26.5 -8t2.5 -29l-86 -493q-39 -220 -267 -220q-150 0 -193 96q-19 37 25 58l57 27q24 11 35 8t21 -21q21 -38 75 -38q79 0 94 81
l7 41q-38 -7 -94 -7q-108 0 -151.5 58.5t-25.5 160.5l43 249q4 21 13.5 29t30.5 8h77q21 0 27.5 -8t2.5 -29l-45 -256q-13 -75 73 -75q34 0 73 7l57 324q4 21 13.5 29t30.5 8h78z" />
    <glyph glyph-name="thorn" unicode="&#xfe;" horiz-adv-x="547" 
d="M122 702q4 21 13 29t30 8h78q20 0 27 -8t3 -29l-31 -172q45 5 93 5q109 0 154 -56.5t26 -157.5l-22 -126q-37 -210 -268 -210q-35 0 -76 9l-32 -177q-4 -21 -13.5 -29t-30.5 -8h-77q-21 0 -27.5 8t-2.5 29zM365 327q7 35 -12 54t-59 19q-32 0 -76 -8l-46 -266
q36 -6 65 -6q90 0 106 82z" />
    <glyph glyph-name="ydieresis" unicode="&#xff;" horiz-adv-x="557" 
d="M250 723q37 0 48.5 -14t4.5 -50l-2 -11q-6 -35 -22 -49t-53 -14h-7q-37 0 -48.5 14t-4.5 49l2 11q6 36 22 50t53 14h7zM457 723q36 0 47 -14t5 -50l-2 -11q-7 -36 -23 -49.5t-52 -13.5h-7q-36 0 -48 14t-6 49l2 11q7 36 23.5 50t53.5 14h7zM508 520q20 0 26.5 -8t2.5 -29
l-86 -493q-39 -220 -267 -220q-150 0 -193 96q-19 37 25 58l57 27q24 11 35 8t21 -21q21 -38 75 -38q79 0 94 81l7 41q-38 -7 -94 -7q-108 0 -151.5 58.5t-25.5 160.5l43 249q4 21 13.5 29t30.5 8h77q21 0 27.5 -8t2.5 -29l-45 -256q-13 -75 73 -75q34 0 73 7l57 324
q4 21 13.5 29t30.5 8h78z" />
    <glyph glyph-name="Amacron" unicode="&#x100;" horiz-adv-x="670" 
d="M555 883q21 0 27 -7t2 -28l-6 -33q-4 -20 -12 -27t-29 -7h-234q-20 0 -26 7t-2 27l5 33q4 20 13 27.5t28 7.5h234zM617 40q7 -40 -34 -40h-70q-38 0 -51.5 7.5t-16.5 29.5l-14 94h-248l-48 -94q-11 -22 -26.5 -29.5t-52.5 -7.5h-74q-42 0 -20 40l352 636q10 20 21.5 27
t33.5 7h77q22 0 31.5 -6.5t13.5 -25.5zM387 418q-4 32 -4 68t2 56l2 19h-8q-13 -71 -49 -142l-80 -156h162z" />
    <glyph glyph-name="amacron" unicode="&#x101;" horiz-adv-x="542" 
d="M465 706q20 0 26 -7t2 -27l-6 -33q-3 -21 -11.5 -28t-28.5 -7h-234q-21 0 -26.5 7t-2.5 28l6 33q4 20 12.5 27t27.5 7h235zM39 333q19 105 84.5 153.5t184.5 48.5q121 0 185 -33q22 -11 26.5 -21t-0.5 -35l-69 -394q-4 -21 -13 -30t-31 -14q-93 -23 -205 -23
q-108 0 -155.5 60.5t-28.5 161.5zM353 393q-27 7 -59 7q-48 0 -73.5 -19t-33.5 -63l-22 -125q-12 -73 72 -73q40 0 75 7l46 258q2 6 -5 8z" />
    <glyph glyph-name="Abreve" unicode="&#x102;" horiz-adv-x="670" 
d="M598 859q-27 -48 -75 -74.5t-107 -26.5t-96.5 26.5t-46.5 74.5q-4 25 22 34l56 20q17 5 23.5 2.5t10.5 -14.5q9 -39 50 -39q40 0 63 39q8 12 15 14.5t20 -1.5l53 -21q14 -6 16.5 -13t-4.5 -21zM617 40q7 -40 -34 -40h-70q-38 0 -51.5 7.5t-16.5 29.5l-14 94h-248l-48 -94
q-11 -22 -26.5 -29.5t-52.5 -7.5h-74q-42 0 -20 40l352 636q10 20 21.5 27t33.5 7h77q22 0 31.5 -6.5t13.5 -25.5zM387 418q-4 32 -4 68t2 56l2 19h-8q-13 -71 -49 -142l-80 -156h162z" />
    <glyph glyph-name="abreve" unicode="&#x103;" horiz-adv-x="542" 
d="M507 683q-56 -102 -177 -102q-59 0 -98.5 27t-48.5 75q-3 13 2 20.5t20 12.5l52 19q17 5 23.5 2.5t11.5 -14.5q8 -38 52 -38q40 0 64 39q12 21 34 13l55 -21q12 -6 14.5 -12.5t-4.5 -20.5zM39 333q19 105 84.5 153.5t184.5 48.5q121 0 185 -33q22 -11 26.5 -21t-0.5 -35
l-69 -394q-4 -21 -13 -30t-31 -14q-93 -23 -205 -23q-108 0 -155.5 60.5t-28.5 161.5zM353 393q-27 7 -59 7q-48 0 -73.5 -19t-33.5 -63l-22 -125q-12 -73 72 -73q40 0 75 7l46 258q2 6 -5 8z" />
    <glyph glyph-name="Aogonek" unicode="&#x104;" horiz-adv-x="670" 
d="M446 710q22 0 31.5 -6.5t13.5 -25.5l126 -638q4 -22 -8 -33q-43 -42 -63 -76t-20 -53q2 -20 17 -20q11 0 18 5q18 11 21 -6l12 -47q4 -18 -7 -26q-36 -29 -109 -29q-37 0 -61.5 19.5t-24.5 55.5q-2 85 110 170q-31 1 -42.5 9t-14.5 28l-14 94h-248l-48 -94
q-11 -22 -26.5 -29.5t-52.5 -7.5h-74q-42 0 -20 40l352 636q10 20 21.5 27t33.5 7h77zM387 418q-4 32 -4 68t2 56l2 19h-8q-13 -71 -49 -142l-80 -156h162z" />
    <glyph glyph-name="aogonek" unicode="&#x105;" horiz-adv-x="543" 
d="M39 333q19 105 84.5 153.5t184.5 48.5q121 0 185 -33q22 -11 26.5 -21t-0.5 -35l-69 -394q-4 -20 -14 -30q-44 -46 -65 -85t-21 -59q2 -20 17 -20q10 0 18 5q17 9 22 -6l11 -47q4 -18 -7 -26q-36 -29 -109 -29q-37 0 -61.5 19.5t-24.5 55.5q0 82 100 161q-54 -6 -115 -6
q-108 0 -155.5 60.5t-28.5 161.5zM353 393q-27 7 -59 7q-48 0 -73.5 -19t-33.5 -63l-22 -125q-12 -73 72 -73q40 0 75 7l46 258q2 6 -5 8z" />
    <glyph glyph-name="Cacute" unicode="&#x106;" horiz-adv-x="640" 
d="M470 909q48 25 66 -3l28 -43q11 -16 8.5 -24.5t-20.5 -15.5l-186 -62q-36 -12 -45 2l-15 25q-9 14 -7.5 22.5t15.5 15.5zM72 466q22 125 109.5 192t229.5 67q209 0 241 -171q4 -22 -2.5 -33.5t-29.5 -18.5l-73 -24q-23 -7 -33 -2t-15 27q-15 73 -112 73q-133 0 -154 -119
l-36 -204q-21 -119 112 -119q97 0 139 73q12 22 24 27.5t32 -2.5l75 -29q20 -8 24 -19.5t-7 -32.5q-91 -166 -311 -166q-140 0 -205 75t-44 202z" />
    <glyph glyph-name="cacute" unicode="&#x107;" horiz-adv-x="513" 
d="M350 733q47 24 66 -2l29 -43q11 -16 8.5 -24.5t-20.5 -15.5l-186 -64q-36 -12 -45 3l-16 24q-9 14 -7.5 22.5t16.5 15.5zM39 332q36 203 268 203q86 0 134.5 -36.5t59.5 -96.5q3 -22 -4 -33.5t-28 -18.5l-60 -20q-23 -8 -33 -2.5t-15 27.5q-13 50 -77 50q-81 0 -94 -76
l-25 -139q-14 -75 67 -75q60 0 92 51q12 21 24 26t32 -2l63 -20q39 -15 15 -53q-77 -132 -248 -132q-115 0 -163 59t-30 161z" />
    <glyph glyph-name="Ccircumflex" unicode="&#x108;" horiz-adv-x="640" 
d="M465 914q24 0 34.5 -4.5t26.5 -25.5l79 -97q10 -11 5 -20.5t-27 -9.5h-58q-25 0 -36.5 3.5t-20.5 16.5l-30 44l-49 -44q-14 -14 -25 -17t-36 -3h-60q-22 0 -24 9.5t12 20.5l113 97q24 21 36.5 25.5t40.5 4.5h19zM72 466q22 125 109.5 192t229.5 67q209 0 241 -171
q4 -22 -2.5 -33.5t-29.5 -18.5l-73 -24q-23 -7 -33 -2t-15 27q-15 73 -112 73q-133 0 -154 -119l-36 -204q-21 -119 112 -119q97 0 139 73q12 22 24 27.5t32 -2.5l75 -29q20 -8 24 -19.5t-7 -32.5q-91 -166 -311 -166q-140 0 -205 75t-44 202z" />
    <glyph glyph-name="ccircumflex" unicode="&#x109;" horiz-adv-x="513" 
d="M149 581q-21 0 -23 9.5t12 21.5l113 96q25 21 37 26t40 5h18q23 0 33.5 -5t27.5 -26l78 -96q11 -12 5.5 -21.5t-27.5 -9.5h-55q-25 0 -36 3.5t-20 16.5l-30 44l-48 -43q-15 -14 -26 -17.5t-36 -3.5h-63zM501 402q3 -22 -4 -33.5t-28 -18.5l-60 -20q-23 -8 -33 -2.5
t-15 27.5q-13 50 -77 50q-81 0 -94 -76l-25 -139q-14 -75 67 -75q60 0 92 51q12 21 24 26t32 -2l63 -20q39 -15 15 -53q-77 -132 -248 -132q-115 0 -163 59t-30 161l22 127q36 203 268 203q86 0 134.5 -36.5t59.5 -96.5z" />
    <glyph glyph-name="Cdotaccent" unicode="&#x10a;" horiz-adv-x="640" 
d="M452 903q38 0 50 -14t5 -52l-2 -8q-7 -38 -23 -52t-54 -14h-6q-38 0 -49.5 14t-5.5 52l2 8q7 38 23 52t54 14h6zM72 466q22 125 109.5 192t229.5 67q209 0 241 -171q4 -22 -2.5 -33.5t-29.5 -18.5l-73 -24q-23 -7 -33 -2t-15 27q-15 73 -112 73q-133 0 -154 -119
l-36 -204q-21 -119 112 -119q97 0 139 73q12 22 24 27.5t32 -2.5l75 -29q20 -8 24 -19.5t-7 -32.5q-91 -166 -311 -166q-140 0 -205 75t-44 202z" />
    <glyph glyph-name="cdotaccent" unicode="&#x10b;" horiz-adv-x="513" 
d="M332 726q38 0 50 -14t5 -52l-2 -8q-6 -38 -22.5 -52t-54.5 -14h-6q-38 0 -49.5 14t-5.5 52l2 8q7 38 23 52t54 14h6zM39 332q36 203 268 203q86 0 134.5 -36.5t59.5 -96.5q3 -22 -4 -33.5t-28 -18.5l-60 -20q-23 -8 -33 -2.5t-15 27.5q-13 50 -77 50q-81 0 -94 -76
l-25 -139q-14 -75 67 -75q60 0 92 51q12 21 24 26t32 -2l63 -20q39 -15 15 -53q-77 -132 -248 -132q-115 0 -163 59t-30 161z" />
    <glyph glyph-name="Ccaron" unicode="&#x10c;" horiz-adv-x="640" 
d="M607 913q22 0 23 -9.5t-13 -21.5l-112 -96q-24 -21 -36.5 -26t-36.5 -5h-18q-27 0 -37.5 5t-26.5 26l-79 96q-10 12 -5.5 21.5t26.5 9.5h59q25 0 34.5 -3.5t19.5 -16.5l34 -44l45 43q14 14 26 17.5t38 3.5h59zM72 466q22 125 109.5 192t229.5 67q209 0 241 -171
q4 -22 -2.5 -33.5t-29.5 -18.5l-73 -24q-23 -7 -33 -2t-15 27q-15 73 -112 73q-133 0 -154 -119l-36 -204q-21 -119 112 -119q97 0 139 73q12 22 24 27.5t32 -2.5l75 -29q20 -8 24 -19.5t-7 -32.5q-91 -166 -311 -166q-140 0 -205 75t-44 202z" />
    <glyph glyph-name="ccaron" unicode="&#x10d;" horiz-adv-x="513" 
d="M152 706q-11 12 -6 21.5t26 9.5h57q25 0 35 -3.5t19 -16.5l34 -44l45 43q14 14 26.5 17.5t37.5 3.5h61q42 0 11 -31l-113 -96q-24 -21 -36 -26t-36 -5h-18q-27 0 -38 5t-27 26zM307 535q86 0 134.5 -36.5t59.5 -96.5q3 -22 -4 -33.5t-28 -18.5l-60 -20q-23 -8 -33 -2.5
t-15 27.5q-13 50 -77 50q-81 0 -94 -76l-25 -139q-14 -75 67 -75q60 0 92 51q12 21 24 26t32 -2l63 -20q39 -15 15 -53q-77 -132 -248 -132q-115 0 -163 59t-30 161l22 127q36 203 268 203z" />
    <glyph glyph-name="Dcaron" unicode="&#x10e;" horiz-adv-x="673" 
d="M581 913q21 0 22.5 -9.5t-13.5 -21.5l-111 -96q-25 -21 -37 -26t-36 -5h-18q-27 0 -37.5 5t-27.5 26l-79 96q-10 12 -5 21.5t27 9.5h59q25 0 34.5 -3.5t19.5 -16.5l33 -44l46 43q14 14 26 17.5t37 3.5h60zM409 710q139 0 204 -77t42 -204l-30 -172q-23 -125 -108.5 -191
t-226.5 -66h-240q-23 0 -30.5 9t-3.5 32l111 628q5 23 15 32t33 9h234zM495 441q21 121 -113 121h-112l-73 -413h112q133 0 156 120z" />
    <glyph glyph-name="dcaron" unicode="&#x10f;" horiz-adv-x="639" 
d="M40 333q19 104 81 153t171 49q43 0 91 -6l31 174q4 21 13.5 29t30.5 8h78q20 0 26.5 -8t2.5 -29l-111 -629q-5 -25 -14 -35t-35 -20q-88 -34 -203 -34q-111 0 -157 60t-27 161zM694 540q-6 -13 -9.5 -18.5t-11 -9.5t-19.5 -4h-38q-30 0 -23 26l38 167q5 24 13 31.5
t30 7.5h57q49 0 32 -39zM359 394q-36 6 -65 6q-47 0 -72.5 -19t-33.5 -63l-22 -125q-6 -35 12.5 -54t58.5 -19q44 0 73 7q2 1 4 5z" />
    <glyph glyph-name="Dcroat" unicode="&#x110;" horiz-adv-x="694" 
d="M428 710q139 0 203.5 -77.5t42.5 -204.5l-30 -172q-23 -125 -109 -190.5t-232 -65.5h-235q-22 0 -29.5 9t-3.5 32l48 273h-51q-14 0 -17.5 5t-1.5 21l10 53q4 25 28 25h51l44 251q5 23 15 32t32 9h235zM513 441q12 61 -15 91t-98 30h-111l-25 -144h107q13 0 17 -5.5
t1 -19.5l-9 -53q-2 -15 -8 -20.5t-20 -5.5h-106l-30 -165h111q134 0 157 120z" />
    <glyph glyph-name="dcroat" unicode="&#x111;" horiz-adv-x="545" 
d="M608 676q13 0 17 -5.5t2 -20.5l-7 -38q-2 -15 -8 -20t-20 -5h-46l-91 -513q-5 -25 -14 -35t-35 -20q-88 -34 -203 -34q-111 0 -157.5 58.5t-27.5 160.5l22 126q37 205 253 205q41 0 91 -6l11 58h-102q-14 0 -17.5 5t-1.5 20l7 38q4 26 28 26h101l5 27q4 21 13.5 29
t30.5 8h77q21 0 27.5 -8t2.5 -29l-5 -27h47zM360 394q-36 6 -65 6q-48 0 -73 -18.5t-33 -63.5l-22 -125q-14 -73 71 -73q44 0 73 7q2 1 4 5z" />
    <glyph glyph-name="Emacron" unicode="&#x112;" horiz-adv-x="584" 
d="M524 883q21 0 27 -7t2 -28l-6 -33q-4 -20 -12 -27t-29 -7h-234q-21 0 -26.5 7t-1.5 27l5 33q4 20 13 27.5t28 7.5h234zM577 710q23 0 30.5 -9t3.5 -32l-12 -67q-4 -22 -14.5 -31t-33.5 -9h-281l-22 -129h231q22 0 29.5 -8.5t3.5 -31.5l-12 -67q-4 -23 -14.5 -32t-33.5 -9
h-231l-24 -136h291q23 0 30 -9.5t3 -31.5l-12 -67q-4 -23 -14 -32t-33 -9h-412q-23 0 -30.5 9t-3.5 32l111 628q5 23 15 32t33 9h402z" />
    <glyph glyph-name="emacron" unicode="&#x113;" horiz-adv-x="536" 
d="M209 604q-20 0 -26 7t-3 28l6 33q4 20 13 27t28 7h234q21 0 27 -7t2 -27l-6 -33q-3 -21 -11.5 -28t-29.5 -7h-234zM316 535q105 0 161.5 -51.5t42.5 -136.5q-25 -142 -242 -142q-42 0 -110 9l-4 -26q-15 -79 75 -79q69 0 106 40q17 18 28.5 21t31.5 -8l45 -27
q34 -21 5 -59q-71 -91 -238 -91q-122 0 -170 66t-29 168l21 111q18 99 89.5 152t187.5 53zM373 361q4 26 -15.5 40t-61.5 14t-70 -21.5t-36 -58.5l-3 -13q64 -8 97 -8q80 0 89 47z" />
    <glyph glyph-name="Ebreve" unicode="&#x114;" horiz-adv-x="584" 
d="M566 859q-26 -48 -74 -74.5t-107 -26.5t-96.5 26.5t-46.5 74.5q-4 25 22 34l56 20q16 5 23 2.5t11 -14.5q9 -39 49 -39q41 0 64 39q8 12 15 14.5t19 -1.5l54 -21q14 -6 16 -13t-5 -21zM577 710q23 0 30.5 -9t3.5 -32l-12 -67q-4 -22 -14.5 -31t-33.5 -9h-281l-22 -129
h231q22 0 29.5 -8.5t3.5 -31.5l-12 -67q-4 -23 -14.5 -32t-33.5 -9h-231l-24 -136h291q23 0 30 -9.5t3 -31.5l-12 -67q-4 -23 -14 -32t-33 -9h-412q-23 0 -30.5 9t-3.5 32l111 628q5 23 15 32t33 9h402z" />
    <glyph glyph-name="ebreve" unicode="&#x115;" horiz-adv-x="536" 
d="M504 683q-57 -102 -178 -102q-59 0 -98.5 27t-48.5 75q-2 14 2.5 21t20.5 12l52 19q16 5 23 2.5t11 -14.5q9 -38 52 -38q39 0 65 39q12 21 33 13l55 -21q13 -6 15.5 -12.5t-4.5 -20.5zM39 330q18 99 89.5 152t187.5 53q105 0 161.5 -51.5t42.5 -136.5q-25 -142 -242 -142
q-42 0 -110 9l-4 -26q-15 -79 75 -79q69 0 106 40q17 18 28.5 21t31.5 -8l45 -27q34 -21 5 -59q-71 -91 -238 -91q-122 0 -170 66t-29 168zM373 361q4 26 -15.5 40t-61.5 14t-70 -21.5t-36 -58.5l-3 -13q64 -8 97 -8q80 0 89 47z" />
    <glyph glyph-name="Edotaccent" unicode="&#x116;" horiz-adv-x="584" 
d="M413 903q38 0 50 -14t5 -52l-2 -8q-6 -38 -22.5 -52t-54.5 -14h-6q-38 0 -49.5 14t-4.5 52l2 8q6 38 22 52t54 14h6zM577 710q23 0 30.5 -9t3.5 -32l-12 -67q-4 -22 -14.5 -31t-33.5 -9h-281l-22 -129h231q22 0 29.5 -8.5t3.5 -31.5l-12 -67q-4 -23 -14.5 -32t-33.5 -9
h-231l-24 -136h291q23 0 30 -9.5t3 -31.5l-12 -67q-4 -23 -14 -32t-33 -9h-412q-23 0 -30.5 9t-3.5 32l111 628q5 23 15 32t33 9h402z" />
    <glyph glyph-name="edotaccent" unicode="&#x117;" horiz-adv-x="536" 
d="M351 726q38 0 49.5 -14t4.5 -52l-2 -8q-6 -38 -22.5 -52t-54.5 -14h-6q-38 0 -49.5 14t-4.5 52l2 8q6 38 22 52t55 14h6zM39 330q18 99 89.5 152t187.5 53q105 0 161.5 -51.5t42.5 -136.5q-25 -142 -242 -142q-42 0 -110 9l-4 -26q-15 -79 75 -79q69 0 106 40
q17 18 28.5 21t31.5 -8l45 -27q34 -21 5 -59q-71 -91 -238 -91q-122 0 -170 66t-29 168zM373 361q4 26 -15.5 40t-61.5 14t-70 -21.5t-36 -58.5l-3 -13q64 -8 97 -8q80 0 89 47z" />
    <glyph glyph-name="Eogonek" unicode="&#x118;" horiz-adv-x="584" 
d="M577 710q23 0 30.5 -9t3.5 -32l-12 -67q-4 -22 -14.5 -31t-33.5 -9h-281l-22 -129h231q22 0 29.5 -8.5t3.5 -31.5l-12 -67q-4 -23 -14.5 -32t-33.5 -9h-231l-24 -136h291q23 0 30 -9.5t3 -31.5l-12 -67q-4 -20 -16 -34q-86 -83 -86 -129q2 -20 17 -20q10 0 18 5
q19 10 22 -6l11 -47q4 -18 -7 -26q-36 -29 -108 -29q-38 0 -62.5 19.5t-24.5 55.5q0 83 115 170h-338q-23 0 -30.5 9t-3.5 32l111 628q5 23 15 32t33 9h402z" />
    <glyph glyph-name="eogonek" unicode="&#x119;" horiz-adv-x="537" 
d="M39 330q18 99 89.5 152t187.5 53q105 0 161.5 -51.5t42.5 -136.5q-25 -142 -242 -142q-42 0 -110 9l-4 -26q-15 -79 75 -79q69 0 106 40q17 18 28.5 21t31.5 -8l45 -27q34 -21 5 -59q-17 -19 -23 -24q-116 -129 -114 -174q0 -20 16 -20q10 0 18 5q19 10 22 -6l12 -47
q4 -17 -8 -26q-36 -29 -108 -29q-37 0 -61 19.5t-24 55.5q0 81 94 159q-36 -4 -62 -4q-122 0 -170 66t-29 168zM284 314q80 0 89 47q4 26 -15.5 40t-61.5 14t-70 -21.5t-36 -58.5l-3 -13q64 -8 97 -8z" />
    <glyph glyph-name="Ecaron" unicode="&#x11a;" horiz-adv-x="584" 
d="M568 913q22 0 23.5 -9.5t-13.5 -21.5l-112 -96q-24 -21 -36.5 -26t-36.5 -5h-18q-27 0 -37 5t-27 26l-79 96q-10 12 -5 21.5t26 9.5h59q25 0 34.5 -3.5t20.5 -16.5l33 -44l45 43q14 14 26.5 17.5t37.5 3.5h59zM577 710q23 0 30.5 -9t3.5 -32l-12 -67q-4 -22 -14.5 -31
t-33.5 -9h-281l-22 -129h231q22 0 29.5 -8.5t3.5 -31.5l-12 -67q-4 -23 -14.5 -32t-33.5 -9h-231l-24 -136h291q23 0 30 -9.5t3 -31.5l-12 -67q-4 -23 -14 -32t-33 -9h-412q-23 0 -30.5 9t-3.5 32l111 628q5 23 15 32t33 9h402z" />
    <glyph glyph-name="ecaron" unicode="&#x11b;" horiz-adv-x="536" 
d="M170 706q-10 12 -5.5 21.5t26.5 9.5h56q25 0 35 -3.5t19 -16.5l34 -44l45 43q14 14 26.5 17.5t37.5 3.5h61q22 0 23.5 -9.5t-12.5 -21.5l-113 -96q-24 -21 -36 -26t-36 -5h-18q-27 0 -37.5 5t-27.5 26zM316 535q105 0 161.5 -51.5t42.5 -136.5q-25 -142 -242 -142
q-42 0 -110 9l-4 -26q-15 -79 75 -79q69 0 106 40q17 18 28.5 21t31.5 -8l45 -27q34 -21 5 -59q-71 -91 -238 -91q-122 0 -170 66t-29 168l21 111q18 99 89.5 152t187.5 53zM373 361q4 26 -15.5 40t-61.5 14t-70 -21.5t-36 -58.5l-3 -13q64 -8 97 -8q80 0 89 47z" />
    <glyph glyph-name="Gcircumflex" unicode="&#x11c;" horiz-adv-x="666" 
d="M462 924q23 0 33.5 -4.5t26.5 -25.5l79 -97q10 -11 5 -20.5t-26 -9.5h-59q-25 0 -36 3.5t-20 16.5l-30 44l-49 -44q-15 -14 -25.5 -17t-35.5 -3h-61q-22 0 -24 9.5t13 20.5l112 97q25 21 37.5 25.5t39.5 4.5h20zM609 401q23 0 30.5 -9t3.5 -32l-26 -148
q-18 -105 -106 -166t-228 -61q-139 0 -203.5 77t-43.5 204l36 202q22 126 109.5 191.5t230.5 65.5q207 0 241 -170q5 -22 -1.5 -33.5t-29.5 -18.5l-75 -24q-23 -7 -33 -2t-15 27q-15 72 -113 72q-133 0 -153 -119l-37 -204q-21 -119 112 -119q62 0 102.5 24.5t47.5 62.5
l6 36h-122q-23 0 -30.5 9t-3.5 32l11 62q4 23 14.5 32t33.5 9h242z" />
    <glyph glyph-name="gcircumflex" unicode="&#x11d;" horiz-adv-x="544" 
d="M172 581q-14 0 -19.5 4.5t-2.5 11.5t11 15l113 96q25 21 37 26t40 5h18q23 0 33.5 -5t27.5 -26l78 -96q11 -12 5.5 -21.5t-27.5 -9.5h-55q-25 0 -36 3.5t-20 16.5l-30 44l-48 -43q-15 -14 -26 -17.5t-36 -3.5h-63zM493 502q22 -11 27 -21t0 -35l-81 -461
q-38 -216 -262 -216q-153 0 -198 97q-18 37 26 58l57 27q23 11 34 8t21 -21q21 -38 76 -38q79 0 94 81l8 43q-48 -10 -90 -10q-108 0 -154.5 61t-28.5 162l18 98q19 105 84 152.5t185 47.5q122 0 184 -33zM358 387q2 5 -3 6q-28 7 -61 7q-90 0 -106 -82l-17 -96
q-12 -73 71 -73q39 0 76 7z" />
    <glyph glyph-name="Gbreve" unicode="&#x11e;" horiz-adv-x="666" 
d="M602 869q-27 -48 -75 -74.5t-107 -26.5t-96.5 26.5t-46.5 74.5q-4 25 22 34l56 20q17 5 23.5 2.5t10.5 -14.5q9 -39 50 -39q40 0 63 39q8 12 15 14.5t20 -1.5l53 -21q14 -6 16.5 -13t-4.5 -21zM609 401q23 0 30.5 -9t3.5 -32l-26 -148q-18 -105 -106 -166t-228 -61
q-139 0 -203.5 77t-43.5 204l36 202q22 126 109.5 191.5t230.5 65.5q207 0 241 -170q5 -22 -1.5 -33.5t-29.5 -18.5l-75 -24q-23 -7 -33 -2t-15 27q-15 72 -113 72q-133 0 -153 -119l-37 -204q-21 -119 112 -119q62 0 102.5 24.5t47.5 62.5l6 36h-122q-23 0 -30.5 9t-3.5 32
l11 62q4 23 14.5 32t33.5 9h242z" />
    <glyph glyph-name="gbreve" unicode="&#x11f;" horiz-adv-x="544" 
d="M508 683q-56 -102 -177 -102q-59 0 -98.5 27t-48.5 75q-4 24 22 33l52 19q17 5 23.5 2.5t11.5 -14.5q8 -38 52 -38q39 0 65 39q12 21 33 13l55 -21q13 -6 15 -12.5t-5 -20.5zM40 335q19 105 84 152.5t185 47.5q122 0 184 -33q22 -11 27 -21t0 -35l-81 -461
q-38 -216 -262 -216q-153 0 -198 97q-18 37 26 58l57 27q23 11 34 8t21 -21q21 -38 76 -38q79 0 94 81l8 43q-48 -10 -90 -10q-108 0 -154.5 61t-28.5 162zM355 393q-28 7 -61 7q-90 0 -106 -82l-17 -96q-12 -73 71 -73q39 0 76 7l40 231q2 5 -3 6z" />
    <glyph glyph-name="Gdotaccent" unicode="&#x120;" horiz-adv-x="666" 
d="M449 913q38 0 49.5 -14t4.5 -52l-2 -8q-6 -38 -22.5 -52t-54.5 -14h-6q-38 0 -49.5 14t-4.5 52l2 8q6 38 22 52t55 14h6zM609 401q23 0 30.5 -9t3.5 -32l-26 -148q-18 -105 -106 -166t-228 -61q-139 0 -203.5 77t-43.5 204l36 202q22 126 109.5 191.5t230.5 65.5
q207 0 241 -170q5 -22 -1.5 -33.5t-29.5 -18.5l-75 -24q-23 -7 -33 -2t-15 27q-15 72 -113 72q-133 0 -153 -119l-37 -204q-21 -119 112 -119q62 0 102.5 24.5t47.5 62.5l6 36h-122q-23 0 -30.5 9t-3.5 32l11 62q4 23 14.5 32t33.5 9h242z" />
    <glyph glyph-name="gdotaccent" unicode="&#x121;" horiz-adv-x="544" 
d="M355 726q39 0 50.5 -14t4.5 -52l-2 -8q-6 -38 -22.5 -52t-54.5 -14h-6q-38 0 -49.5 14t-4.5 52l2 8q6 38 22 52t54 14h6zM40 335q19 105 84 152.5t185 47.5q122 0 184 -33q22 -11 27 -21t0 -35l-81 -461q-38 -216 -262 -216q-153 0 -198 97q-18 37 26 58l57 27
q23 11 34 8t21 -21q21 -38 76 -38q79 0 94 81l8 43q-48 -10 -90 -10q-108 0 -154.5 61t-28.5 162zM355 393q-28 7 -61 7q-90 0 -106 -82l-17 -96q-12 -73 71 -73q39 0 76 7l40 231q2 5 -3 6z" />
    <glyph glyph-name="Gcommaaccent" unicode="&#x122;" horiz-adv-x="666" 
d="M609 401q23 0 30.5 -9t3.5 -32l-26 -148q-18 -105 -106 -166t-228 -61q-139 0 -203.5 77t-43.5 204l36 202q22 126 109.5 191.5t230.5 65.5q207 0 241 -170q5 -22 -1.5 -33.5t-29.5 -18.5l-75 -24q-23 -7 -33 -2t-15 27q-15 72 -113 72q-133 0 -153 -119l-37 -204
q-21 -119 112 -119q62 0 102.5 24.5t47.5 62.5l6 36h-122q-23 0 -30.5 9t-3.5 32l11 62q4 23 14.5 32t33.5 9h242zM286 -227q-16 -33 -49 -33h-50q-16 0 -19.5 6t1.5 20l40 141q6 22 16.5 30.5t33.5 8.5l70 1q49 0 28 -40z" />
    <glyph glyph-name="gcommaaccent" unicode="&#x123;" horiz-adv-x="544" 
d="M318 726q11 19 19 24.5t29 5.5h41q18 0 24 -6t2 -22l-33 -107q-8 -25 -16.5 -33.5t-31.5 -8.5h-61q-49 0 -31 42zM40 335q19 105 84 152.5t185 47.5q122 0 184 -33q22 -11 27 -21t0 -35l-81 -461q-38 -216 -262 -216q-153 0 -198 97q-18 37 26 58l57 27q23 11 34 8
t21 -21q21 -38 76 -38q79 0 94 81l8 43q-48 -10 -90 -10q-108 0 -154.5 61t-28.5 162zM355 393q-28 7 -61 7q-90 0 -106 -82l-17 -96q-12 -73 71 -73q39 0 76 7l40 231q2 5 -3 6z" />
    <glyph glyph-name="Hcircumflex" unicode="&#x124;" horiz-adv-x="691" 
d="M467 914q24 0 34.5 -4.5t26.5 -25.5l79 -97q10 -11 5 -20.5t-27 -9.5h-58q-25 0 -36.5 3.5t-20.5 16.5l-29 44l-49 -44q-15 -14 -26 -17t-36 -3h-60q-22 0 -24 9.5t13 20.5l112 97q24 21 36.5 25.5t40.5 4.5h19zM660 710q23 0 30 -9t3 -32l-111 -628q-4 -23 -14 -32
t-33 -9h-81q-23 0 -30.5 9t-3.5 32l43 244h-241l-43 -244q-4 -23 -14.5 -32t-33.5 -9h-81q-23 0 -30.5 9t-3.5 32l111 628q4 23 14.5 32t33.5 9h81q23 0 30 -9t3 -32l-41 -235h242l41 235q5 23 15 32t33 9h81z" />
    <glyph glyph-name="hcircumflex" unicode="&#x125;" horiz-adv-x="557" 
d="M57 788q-22 0 -23.5 9.5t12.5 20.5l113 97q23 21 35.5 25.5t40.5 4.5h18q24 0 34.5 -4.5t26.5 -25.5l79 -97q10 -11 5 -20.5t-27 -9.5h-55q-26 0 -37 3.5t-19 16.5l-31 44l-47 -44q-16 -14 -26.5 -17t-35.5 -3h-63zM336 535q107 0 151.5 -57t26.5 -157l-49 -284
q-4 -21 -13.5 -29t-30.5 -8h-78q-20 0 -27 8t-3 29l50 286q15 75 -71 75q-10 0 -21.5 -1t-20.5 -2t-16.5 -2t-11.5 -2l-5 -1l-62 -353q-4 -21 -13.5 -29t-29.5 -8h-78q-21 0 -27.5 8t-2.5 29l117 666q4 21 13.5 29t30.5 8h78q20 0 26.5 -8t2.5 -29l-30 -175h6q5 1 14 2.5
t20.5 2.5t26 1.5t27.5 0.5z" />
    <glyph glyph-name="Hbar" unicode="&#x126;" horiz-adv-x="707" 
d="M732 619q14 0 18 -5.5t1 -19.5l-8 -40q-2 -15 -7.5 -20t-19.5 -5h-40l-86 -488q-4 -23 -14.5 -32t-33.5 -9h-81q-23 0 -30.5 9t-3.5 32l43 244h-241l-43 -244q-4 -23 -14.5 -32t-33.5 -9h-81q-23 0 -30 9t-3 32l86 488h-39q-14 0 -17.5 5t-1.5 20l7 40q5 25 28 25h39
l8 50q4 23 14.5 32t33.5 9h81q23 0 30.5 -9t3.5 -32l-8 -50h241l8 50q4 23 14.5 32t33.5 9h81q23 0 30.5 -9t3.5 -32l-9 -50h40zM272 529l-16 -95h241l17 95h-242z" />
    <glyph glyph-name="hbar" unicode="&#x127;" horiz-adv-x="557" 
d="M242 528h6q5 1 14 2.5t20.5 2.5t26 1.5t27.5 0.5q107 0 151.5 -57t26.5 -157l-49 -284q-4 -21 -13.5 -29t-30.5 -8h-78q-20 0 -27 8t-3 29l50 286q15 75 -71 75q-10 0 -21.5 -1t-20.5 -2t-16.5 -2t-11.5 -2l-5 -1l-62 -353q-4 -21 -13.5 -29t-29.5 -8h-78q-21 0 -27.5 8
t-2.5 29l97 551h-38q-14 0 -18 5t-1 20l6 35q4 26 28 26h38l5 29q4 21 13.5 29t30.5 8h78q20 0 26.5 -8t2.5 -29l-5 -29h115q14 0 18 -5.5t2 -20.5l-6 -35q-3 -15 -8.5 -20t-19.5 -5h-116z" />
    <glyph glyph-name="Itilde" unicode="&#x128;" horiz-adv-x="287" 
d="M382 904q24 0 19 -23q-12 -65 -38 -91.5t-73 -26.5q-37 0 -69.5 25t-47.5 25t-21 -29q-4 -21 -24 -21h-45q-22 0 -18 22q11 65 37.5 92t70.5 27q40 0 73 -25t47 -25q16 0 21 28q4 22 24 22h44zM127 670q5 23 15 31.5t32 8.5h82q23 0 30 -9t3 -31l-111 -630
q-4 -22 -14 -31t-33 -9h-82q-22 0 -29.5 8.5t-3.5 31.5z" />
    <glyph glyph-name="itilde" unicode="&#x129;" horiz-adv-x="252" 
d="M319 738q18 0 14 -23q-11 -66 -37 -92t-67 -26q-27 0 -50 22t-35 22q-22 0 -25 -24q-4 -22 -21 -22h-50q-20 0 -15 23q22 120 104 120q19 0 34.5 -7.5t23 -17t17.5 -17t19 -7.5q17 0 22 28q3 21 20 21h46zM204 520q20 0 26.5 -8t2.5 -29l-78 -446q-4 -21 -13.5 -29
t-29.5 -8h-78q-21 0 -27.5 8t-2.5 29l78 446q4 21 13.5 29t30.5 8h78z" />
    <glyph glyph-name="Imacron" unicode="&#x12a;" horiz-adv-x="287" 
d="M363 883q21 0 27 -7t2 -28l-6 -33q-4 -20 -12 -27t-28 -7h-235q-20 0 -26 7t-2 27l6 33q4 20 12.5 27.5t27.5 7.5h234zM127 670q5 23 15 31.5t32 8.5h82q23 0 30 -9t3 -31l-111 -630q-4 -22 -14 -31t-33 -9h-82q-22 0 -29.5 8.5t-3.5 31.5z" />
    <glyph glyph-name="imacron" unicode="&#x12b;" horiz-adv-x="252" 
d="M282 700q14 0 17.5 -6.5t-0.5 -26.5l-6 -32q-3 -20 -8.5 -27t-19.5 -7h-183q-13 0 -16.5 7t-0.5 27l6 32q4 20 10 26.5t18 6.5h183zM204 520q20 0 26.5 -8t2.5 -29l-78 -446q-4 -21 -13.5 -29t-29.5 -8h-78q-21 0 -27.5 8t-2.5 29l78 446q4 21 13.5 29t30.5 8h78z" />
    <glyph glyph-name="Ibreve" unicode="&#x12c;" horiz-adv-x="287" 
d="M406 859q-26 -48 -74 -74.5t-107 -26.5t-97 26.5t-47 74.5q-4 24 22 34l56 20q17 5 23.5 2.5t10.5 -14.5q9 -39 50 -39q40 0 63 39q14 20 35 13l54 -21q13 -6 15.5 -13t-4.5 -21zM127 670q5 23 15 31.5t32 8.5h82q23 0 30 -9t3 -31l-111 -630q-4 -22 -14 -31t-33 -9h-82
q-22 0 -29.5 8.5t-3.5 31.5z" />
    <glyph glyph-name="ibreve" unicode="&#x12d;" horiz-adv-x="252" 
d="M338 716q13 -6 15.5 -12.5t-4.5 -20.5q-57 -102 -170 -102q-58 0 -94 27t-44 75q-3 13 2 20.5t20 12.5l55 20q16 5 23.5 3t11.5 -15q8 -37 41 -37t56 37q13 22 33 13zM204 520q20 0 26.5 -8t2.5 -29l-78 -446q-4 -21 -13.5 -29t-29.5 -8h-78q-21 0 -27.5 8t-2.5 29
l78 446q4 21 13.5 29t30.5 8h78z" />
    <glyph glyph-name="Iogonek" unicode="&#x12e;" horiz-adv-x="287" 
d="M151 -184q4 -16 -7 -26q-46 -35 -108 -35q-86 0 -86 66q-1 41 25.5 88.5t77.5 90.5q-28 0 -34.5 9t-1.5 33l110 628q5 23 15 31.5t32 8.5h82q23 0 30 -9t3 -31l-111 -630q-4 -25 -16 -35q-41 -38 -59.5 -73.5t-18.5 -55.5q2 -18 16 -18q10 0 19 5q18 11 21 -6z" />
    <glyph glyph-name="iogonek" unicode="&#x12f;" horiz-adv-x="252" 
d="M162 567q-41 0 -53 15.5t-5 55.5l1 10q7 40 25.5 55.5t59.5 15.5h20q41 0 53.5 -15.5t4.5 -55.5l-1 -10q-8 -41 -26 -56t-58 -15h-21zM140 -184q3 -17 -8 -26q-46 -35 -103 -35q-82 0 -87 65q-7 73 93 180q-21 0 -28 8.5t-3 29.5l78 445q4 21 13.5 29t30.5 8h78
q20 0 26.5 -8t2.5 -29l-78 -446q-5 -22 -14 -29q-67 -80 -64 -132q0 -18 16 -18q10 0 17 4q17 9 22 -6z" />
    <glyph glyph-name="Idotaccent" unicode="&#x130;" horiz-adv-x="287" 
d="M253 903q38 0 49.5 -14t5.5 -52l-2 -8q-7 -38 -23.5 -52t-54.5 -14h-6q-38 0 -49.5 14t-4.5 52l2 8q6 38 22.5 52t54.5 14h6zM127 670q5 23 15 31.5t32 8.5h82q23 0 30 -9t3 -31l-111 -630q-4 -22 -14 -31t-33 -9h-82q-22 0 -29.5 8.5t-3.5 31.5z" />
    <glyph glyph-name="dotlessi" unicode="&#x131;" horiz-adv-x="252" 
d="M204 520q20 0 26.5 -8t2.5 -29l-78 -446q-4 -21 -13.5 -29t-29.5 -8h-78q-21 0 -27.5 8t-2.5 29l78 446q4 21 13.5 29t30.5 8h78z" />
    <glyph glyph-name="IJ" unicode="&#x132;" horiz-adv-x="870" 
d="M127 670q5 23 15 31.5t32 8.5h82q23 0 30 -9t3 -31l-111 -630q-4 -22 -14 -31t-33 -9h-82q-22 0 -29.5 8.5t-3.5 31.5zM845 710q22 0 29.5 -8.5t3.5 -31.5l-79 -446q-42 -239 -297 -239q-196 0 -227 162q-4 22 3 33.5t30 18.5l74 25q23 7 32.5 2t14.5 -27q18 -66 91 -66
q101 0 120 107l75 430q5 23 15 31.5t32 8.5h83z" />
    <glyph glyph-name="ij" unicode="&#x133;" horiz-adv-x="501" 
d="M210 719q41 0 53.5 -15.5t4.5 -55.5l-1 -10q-8 -41 -26 -56t-58 -15h-21q-41 0 -53 15.5t-5 55.5l1 10q7 40 25.5 55.5t59.5 15.5h20zM459 719q41 0 53 -15.5t5 -55.5l-1 -10q-8 -41 -26 -56t-58 -15h-21q-41 0 -53 15.5t-5 55.5l1 10q8 41 26 56t58 15h21zM204 520
q20 0 26.5 -8t2.5 -29l-78 -446q-4 -21 -13.5 -29t-29.5 -8h-78q-21 0 -27.5 8t-2.5 29l78 446q4 21 13.5 29t30.5 8h78zM451 520q22 0 28.5 -8t2.5 -29l-86 -491q-40 -222 -281 -222q-22 0 -29 8t-3 30l11 62q4 21 13.5 29t31.5 8q91 0 107 92l85 484q4 21 13.5 29t31.5 8
h75z" />
    <glyph glyph-name="Jcircumflex" unicode="&#x134;" horiz-adv-x="579" 
d="M563 914q23 0 33.5 -4.5t26.5 -25.5l79 -97q10 -11 5.5 -20.5t-26.5 -9.5h-58q-26 0 -37 3.5t-20 16.5l-30 44l-49 -44q-15 -14 -25.5 -17t-35.5 -3h-61q-21 0 -23.5 9.5t12.5 20.5l112 97q25 21 37.5 25.5t39.5 4.5h20zM554 710q22 0 29 -9t3 -31l-78 -446
q-22 -120 -95 -179.5t-202 -59.5q-196 0 -227 162q-4 22 2.5 33.5t29.5 18.5l74 25q23 7 33 2t15 -27q18 -66 91 -66q101 0 119 107l76 430q5 23 14.5 31.5t32.5 8.5h83z" />
    <glyph glyph-name="jcircumflex" unicode="&#x135;" horiz-adv-x="252" 
d="M211 734q23 0 33 -5t27 -25l77 -94q10 -12 5 -21t-27 -9h-53q-25 0 -36 3.5t-19 15.5l-30 43l-47 -42q-15 -14 -25.5 -17t-34.5 -3h-61q-42 0 -12 30l111 94q24 20 36 25t39 5h17zM203 520q21 0 27.5 -8t2.5 -29l-86 -491q-40 -222 -281 -222q-21 0 -28 8.5t-3 29.5
l10 62q4 21 14 29t31 8q91 0 107 92l85 484q4 21 13.5 29t31.5 8h76z" />
    <glyph glyph-name="Kcommaaccent" unicode="&#x136;" horiz-adv-x="641" 
d="M580 43q8 -18 0.5 -30.5t-29.5 -12.5h-80q-39 0 -53.5 7t-21.5 30l-60 190q-12 35 -29 47.5t-59 12.5h-26l-44 -246q-4 -23 -14 -32t-33 -9h-81q-23 0 -30.5 9t-3.5 32l111 628q5 23 15 32t33 9h81q23 0 30 -9t3 -32l-42 -236h16h11l219 243q20 22 34.5 28t50.5 6h88
q21 0 24.5 -12t-10.5 -28l-261 -282q51 -29 76 -101zM265 -227q-9 -18 -19.5 -25.5t-28.5 -7.5h-50q-16 0 -20 6t1 20l41 141q6 22 16.5 30.5t32.5 8.5l71 1q49 0 27 -40z" />
    <glyph glyph-name="kcommaaccent" unicode="&#x137;" horiz-adv-x="535" 
d="M469 45q8 -24 0.5 -34.5t-34.5 -10.5h-67q-32 0 -43 6t-17 28l-32 128q-10 40 -57 40h-35l-29 -164q-4 -22 -13.5 -30t-31.5 -8h-75q-22 0 -28.5 8t-2.5 30l117 664q4 22 13.5 30t31.5 8h75q22 0 28.5 -8t2.5 -30l-65 -371h21h6l141 159q17 20 30.5 25t45.5 5h67
q56 0 17 -44l-166 -184q26 -20 43 -71zM230 -198q-11 -20 -21.5 -26.5t-30.5 -6.5h-42q-18 0 -22 5.5t1 21.5l31 114q7 25 19 34t37 9h61q47 0 23 -43z" />
    <glyph glyph-name="kgreenlandic" unicode="&#x138;" horiz-adv-x="550" 
d="M437 45q14 -45 -40 -45h-67q-33 0 -44.5 5.5t-18.5 25.5l-47 144l-61 -53l-27 -83q-7 -22 -18 -30.5t-33 -8.5h-74q-22 0 -27.5 8t1.5 31l142 443q7 22 18 30t33 8h74q22 0 27.5 -8t-1.5 -30l-50 -145l181 154q21 19 35 24t45 5h75q57 0 9 -43l-218 -188z" />
    <glyph glyph-name="Lacute" unicode="&#x139;" horiz-adv-x="533" 
d="M271 909q47 24 66 -3l28 -43q11 -16 8.5 -24.5t-20.5 -15.5l-186 -62q-37 -12 -45 2l-15 25q-9 14 -7.5 22.5t15.5 15.5zM256 710q23 0 30 -9t3 -32l-91 -520h258q23 0 30 -9.5t3 -31.5l-11 -67q-4 -23 -14.5 -32t-33.5 -9h-380q-23 0 -30.5 9t-3.5 32l111 628
q5 23 15 32t33 9h81z" />
    <glyph glyph-name="lacute" unicode="&#x13a;" horiz-adv-x="256" 
d="M252 931q43 22 61 -5l29 -49q7 -11 8.5 -18t-3.5 -12.5t-17 -9.5l-175 -56q-36 -13 -45 2l-17 30q-9 14 -7 22.5t16 15.5zM157 37q-4 -21 -13.5 -29t-30.5 -8h-77q-21 0 -27.5 8t-2.5 29l117 666q4 21 13.5 29t30.5 8h77q21 0 27.5 -8t2.5 -29z" />
    <glyph glyph-name="Lcommaaccent" unicode="&#x13b;" horiz-adv-x="533" 
d="M256 710q23 0 30 -9t3 -32l-91 -520h258q23 0 30 -9.5t3 -31.5l-11 -67q-4 -23 -14.5 -32t-33.5 -9h-380q-23 0 -30.5 9t-3.5 32l111 628q5 23 15 32t33 9h81zM222 -227q-16 -33 -49 -33h-50q-16 0 -20 6t1 20l41 141q6 22 16.5 30.5t33.5 8.5l70 1q49 0 27 -40z" />
    <glyph glyph-name="lcommaaccent" unicode="&#x13c;" horiz-adv-x="256" 
d="M156 37q-4 -21 -13.5 -29t-30.5 -8h-77q-21 0 -27.5 8t-2.5 29l117 666q4 21 13.5 29t30.5 8h77q21 0 27.5 -8t2.5 -29zM67 -203q-10 -20 -21.5 -27t-32.5 -7h-43q-17 0 -21 6t1 22l36 124q7 25 18.5 33.5t36.5 8.5h62q47 0 24 -42z" />
    <glyph glyph-name="Lcaron" unicode="&#x13d;" horiz-adv-x="537" 
d="M256 710q23 0 30 -9t3 -32l-91 -520h258q23 0 30 -9.5t3 -31.5l-11 -67q-4 -23 -14.5 -32t-33.5 -9h-380q-23 0 -30.5 9t-3.5 32l111 628q5 23 15 32t33 9h81zM457 512q-9 -19 -18.5 -26t-28.5 -7h-40q-15 0 -18.5 5t0.5 20l48 168q7 22 17 30t32 8h66q46 0 27 -38z" />
    <glyph glyph-name="lcaron" unicode="&#x13e;" horiz-adv-x="283" 
d="M157 37q-4 -21 -13.5 -29t-30.5 -8h-77q-21 0 -27.5 8t-2.5 29l117 666q4 21 13.5 29t30.5 8h77q21 0 27.5 -8t2.5 -29zM405 564q-9 -19 -16.5 -25.5t-25.5 -6.5h-39q-29 0 -20 31l42 139q7 22 14.5 30t28.5 8h55q52 0 32 -38z" />
    <glyph glyph-name="Ldot" unicode="&#x13f;" horiz-adv-x="535" 
d="M256 710q23 0 30 -9t3 -32l-91 -520h258q23 0 30 -9.5t3 -31.5l-11 -67q-4 -23 -14.5 -32t-33.5 -9h-380q-23 0 -30.5 9t-3.5 32l111 628q5 23 15 32t33 9h81zM413 479q42 0 55 -16t6 -58l-3 -19q-8 -42 -26.5 -58t-60.5 -16h-17q-42 0 -55 16t-6 58l3 19q8 42 26.5 58
t61.5 16h16z" />
    <glyph glyph-name="ldot" unicode="&#x140;" horiz-adv-x="430" 
d="M157 37q-4 -21 -13.5 -29t-30.5 -8h-77q-21 0 -27.5 8t-2.5 29l117 666q4 21 13.5 29t30.5 8h77q21 0 27.5 -8t2.5 -29zM379 462q43 0 56 -16t6 -59l-3 -19q-8 -43 -27 -59.5t-62 -16.5h-17q-43 0 -56.5 16.5t-5.5 59.5l3 19q7 43 26.5 59t62.5 16h17z" />
    <glyph glyph-name="Lslash" unicode="&#x141;" horiz-adv-x="564" 
d="M488 149q23 0 30 -9.5t3 -31.5l-12 -67q-4 -23 -14 -32t-33 -9h-380q-23 0 -30.5 9t-3.5 32l37 208l-46 -19q-29 -14 -37 12l-15 44q-8 25 18 35l100 42l54 306q5 23 15 32t33 9h81q23 0 30 -9t3 -32l-41 -234l135 57q30 11 38 -13l14 -45q8 -25 -19 -34l-188 -78
l-31 -173h259z" />
    <glyph glyph-name="lslash" unicode="&#x142;" horiz-adv-x="359" 
d="M376 439q10 -24 -15 -35l-98 -49l-57 -318q-4 -21 -13.5 -29t-29.5 -8h-78q-21 0 -27.5 8t-2.5 29l42 237l-35 -17q-30 -15 -39 10l-16 41q-9 23 16 35l94 46l55 314q4 21 13.5 29t30.5 8h78q20 0 26.5 -8t2.5 -29l-40 -233l39 19q17 8 25 5.5t13 -15.5z" />
    <glyph glyph-name="Nacute" unicode="&#x143;" horiz-adv-x="701" 
d="M479 909q47 24 66 -3l28 -43q7 -11 8.5 -18t-3.5 -12.5t-17 -9.5l-187 -62q-36 -12 -45 2l-14 25q-10 14 -8 22t16 16zM669 710q23 0 30.5 -9t3.5 -32l-111 -628q-4 -23 -14.5 -32t-33.5 -9h-80q-26 0 -35 19l-143 298q-38 79 -50 187h-8q8 -113 -11 -224l-42 -239
q-4 -23 -14.5 -32t-33.5 -9h-77q-23 0 -30.5 9t-3.5 32l111 628q5 23 15 32t33 9h77q29 0 39 -19l146 -303q10 -21 18.5 -45t14 -46t9 -37.5t6.5 -32.5t3 -18h7q-14 105 7 221l43 239q4 23 14 32t33 9h77z" />
    <glyph glyph-name="nacute" unicode="&#x144;" 
d="M366 733q47 24 66 -2l29 -43q11 -16 8.5 -24.5t-20.5 -15.5l-186 -64q-36 -12 -46 3l-15 24q-9 14 -7.5 22.5t16.5 15.5zM123 499q95 36 211 36q107 0 151.5 -57.5t26.5 -158.5l-49 -282q-4 -21 -13.5 -29t-30.5 -8h-78q-20 0 -27 8t-3 29l50 286q14 75 -71 75
q-39 0 -72 -9q-2 0 -4 -4l-61 -348q-4 -21 -13.5 -29t-29.5 -8h-78q-21 0 -27.5 8t-2.5 29l71 404q5 25 14.5 36.5t35.5 21.5z" />
    <glyph glyph-name="Ncommaaccent" unicode="&#x145;" horiz-adv-x="701" 
d="M669 710q23 0 30.5 -9t3.5 -32l-111 -628q-4 -23 -14.5 -32t-33.5 -9h-80q-26 0 -35 19l-143 298q-38 79 -50 187h-8q8 -113 -11 -224l-42 -239q-4 -23 -14.5 -32t-33.5 -9h-77q-23 0 -30.5 9t-3.5 32l111 628q5 23 15 32t33 9h77q29 0 39 -19l146 -303q10 -21 18.5 -45
t14 -46t9 -37.5t6.5 -32.5t3 -18h7q-14 105 7 221l43 239q4 23 14 32t33 9h77zM296 -227q-16 -33 -48 -33h-50q-16 0 -20 6t1 20l40 141q6 22 16.5 30.5t33.5 8.5l70 1q49 0 28 -40z" />
    <glyph glyph-name="ncommaaccent" unicode="&#x146;" 
d="M123 499q95 36 211 36q107 0 151.5 -57.5t26.5 -158.5l-49 -282q-4 -21 -13.5 -29t-30.5 -8h-78q-20 0 -27 8t-3 29l50 286q14 75 -71 75q-39 0 -72 -9q-2 0 -4 -4l-61 -348q-4 -21 -13.5 -29t-29.5 -8h-78q-21 0 -27.5 8t-2.5 29l71 404q5 25 14.5 36.5t35.5 21.5z
M231 -189q-10 -20 -20.5 -26.5t-32.5 -6.5h-42q-17 0 -21 5.5t1 21.5l33 115q7 25 18.5 34t35.5 9h62q25 0 30.5 -10.5t-6.5 -32.5z" />
    <glyph glyph-name="Ncaron" unicode="&#x147;" horiz-adv-x="701" 
d="M615 913q22 0 23.5 -9.5t-13.5 -21.5l-112 -96q-24 -21 -36.5 -26t-36.5 -5h-18q-27 0 -37 5t-27 26l-79 96q-10 12 -5 21.5t27 9.5h58q25 0 34.5 -3.5t20.5 -16.5l33 -44l45 43q14 14 26.5 17.5t37.5 3.5h59zM669 710q23 0 30.5 -9t3.5 -32l-111 -628q-4 -23 -14.5 -32
t-33.5 -9h-80q-26 0 -35 19l-143 298q-38 79 -50 187h-8q8 -113 -11 -224l-42 -239q-4 -23 -14.5 -32t-33.5 -9h-77q-23 0 -30.5 9t-3.5 32l111 628q5 23 15 32t33 9h77q29 0 39 -19l146 -303q10 -21 18.5 -45t14 -46t9 -37.5t6.5 -32.5t3 -18h7q-14 105 7 221l43 239
q4 23 14 32t33 9h77z" />
    <glyph glyph-name="ncaron" unicode="&#x148;" 
d="M168 706q-11 12 -6 21.5t26 9.5h57q25 0 35 -3.5t19 -16.5l33 -44l46 43q14 14 26.5 17.5t37.5 3.5h61q22 0 23 -9.5t-13 -21.5l-112 -96q-24 -21 -36 -26t-36 -5h-18q-28 0 -38.5 5t-27.5 26zM334 535q107 0 151.5 -57.5t26.5 -158.5l-49 -282q-4 -21 -13.5 -29
t-30.5 -8h-78q-20 0 -27 8t-3 29l50 286q14 75 -71 75q-39 0 -72 -9q-2 0 -4 -4l-61 -348q-4 -21 -13.5 -29t-29.5 -8h-78q-21 0 -27.5 8t-2.5 29l71 404q5 25 14.5 36.5t35.5 21.5q95 36 211 36z" />
    <glyph glyph-name="napostrophe" unicode="&#x149;" 
d="M131 562q-11 -15 -18.5 -19.5t-25.5 -4.5h-49q-29 0 -18 24l68 144q6 12 8 15.5t7.5 9.5t11.5 7t17 1h78q24 0 29.5 -10.5t-6.5 -27.5zM123 499q95 36 211 36q107 0 151.5 -57.5t26.5 -158.5l-49 -282q-4 -21 -13.5 -29t-30.5 -8h-78q-20 0 -27 8t-3 29l50 286
q14 75 -71 75q-39 0 -72 -9q-2 0 -4 -4l-61 -348q-4 -21 -13.5 -29t-29.5 -8h-78q-21 0 -27.5 8t-2.5 29l71 404q5 25 14.5 36.5t35.5 21.5z" />
    <glyph glyph-name="Eng" unicode="&#x14a;" horiz-adv-x="701" 
d="M669 710q23 0 30.5 -9t3.5 -32l-119 -677q-40 -222 -281 -222q-22 0 -29 8t-3 30l11 62q4 21 13.5 29t31.5 8q47 0 70.5 23t31.5 68l2 14l-145 305q-38 81 -50 187h-8q8 -117 -11 -224l-42 -239q-4 -23 -14.5 -32t-33.5 -9h-77q-23 0 -30.5 9t-3.5 32l111 628q5 23 15 32
t33 9h78q27 0 37 -19l146 -303q13 -27 23.5 -58.5t14.5 -51t8 -43t5 -26.5h8q-14 105 7 221l42 239q5 23 15 32t33 9h77z" />
    <glyph glyph-name="eng" unicode="&#x14b;" 
d="M123 499q95 36 211 36q107 0 151.5 -57.5t26.5 -158.5l-59 -335q-37 -214 -272 -214q-20 0 -26.5 7.5t-2.5 28.5l10 60q4 21 13 28.5t30 7.5q45 0 67.5 22t30.5 66l58 333q14 75 -71 75q-39 0 -72 -9q-2 0 -4 -4l-61 -348q-4 -21 -13.5 -29t-29.5 -8h-78q-21 0 -27.5 8
t-2.5 29l71 404q5 25 14.5 36.5t35.5 21.5z" />
    <glyph glyph-name="Omacron" unicode="&#x14c;" horiz-adv-x="675" 
d="M560 893q21 0 27 -7t2 -28l-6 -33q-4 -20 -12 -27t-29 -7h-234q-21 0 -26.5 7t-1.5 27l5 33q4 20 13 27.5t28 7.5h234zM72 465q22 125 109 192.5t228 67.5q140 0 205.5 -76.5t44.5 -203.5l-36 -203q-22 -125 -108.5 -191t-228.5 -66q-140 0 -205.5 75.5t-44.5 201.5z
M500 459q10 58 -19.5 87.5t-93.5 29.5q-133 0 -153 -117l-37 -208q-10 -58 19 -87.5t93 -29.5q133 0 154 117z" />
    <glyph glyph-name="omacron" unicode="&#x14d;" horiz-adv-x="547" 
d="M209 604q-20 0 -26 7t-3 28l6 33q4 20 13 27t28 7h234q21 0 27 -7t2 -27l-6 -33q-3 -21 -11.5 -28t-29.5 -7h-234zM313 535q116 0 168 -58.5t34 -159.5l-22 -129q-18 -99 -87 -151t-187 -52q-115 0 -167.5 57.5t-34.5 157.5l22 129q18 99 88 152.5t186 53.5zM366 326
q12 75 -75 75t-101 -75l-23 -132q-14 -75 74 -75q87 0 101 75z" />
    <glyph glyph-name="Obreve" unicode="&#x14e;" horiz-adv-x="675" 
d="M602 869q-26 -48 -74 -74.5t-107 -26.5t-96.5 26.5t-46.5 74.5q-4 25 22 34l56 20q16 5 23 2.5t11 -14.5q9 -39 49 -39q41 0 64 39q8 12 15 14.5t19 -1.5l54 -21q14 -6 16 -13t-5 -21zM72 465q22 125 109 192.5t228 67.5q140 0 205.5 -76.5t44.5 -203.5l-36 -203
q-22 -125 -108.5 -191t-228.5 -66q-140 0 -205.5 75.5t-44.5 201.5zM500 459q10 58 -19.5 87.5t-93.5 29.5q-133 0 -153 -117l-37 -208q-10 -58 19 -87.5t93 -29.5q133 0 154 117z" />
    <glyph glyph-name="obreve" unicode="&#x14f;" horiz-adv-x="547" 
d="M504 683q-57 -102 -178 -102q-59 0 -98.5 27t-48.5 75q-2 14 2.5 21t20.5 12l52 19q16 5 23 2.5t11 -14.5q9 -38 52 -38q39 0 65 39q12 21 33 13l55 -21q13 -6 15.5 -12.5t-4.5 -20.5zM39 329q18 99 88 152.5t186 53.5t168 -58.5t34 -159.5l-22 -129q-18 -99 -87 -151
t-187 -52q-115 0 -167.5 57.5t-34.5 157.5zM366 326q12 75 -75 75t-101 -75l-23 -132q-14 -75 74 -75q87 0 101 75z" />
    <glyph glyph-name="Ohungarumlaut" unicode="&#x150;" horiz-adv-x="675" 
d="M314 777q-29 9 -6 37l80 90q29 35 67 24l41 -14q24 24 57 15l48 -14q12 -4 16.5 -11t1 -14.5t-14.5 -15.5l-128 -93q-18 -13 -24.5 -15.5t-20.5 0.5l-25 7q-18 5 -18 15l-4 -3q-29 -22 -45 -15zM409 725q140 0 205.5 -76.5t44.5 -203.5l-36 -203q-22 -125 -108.5 -191
t-228.5 -66q-140 0 -205.5 75.5t-44.5 201.5l36 203q22 125 109 192.5t228 67.5zM500 459q10 58 -19.5 87.5t-93.5 29.5q-133 0 -153 -117l-37 -208q-10 -58 19 -87.5t93 -29.5q133 0 154 117z" />
    <glyph glyph-name="ohungarumlaut" unicode="&#x151;" horiz-adv-x="547" 
d="M213 585q-29 8 -4 36l79 91q31 35 67 24l41 -15q26 24 57 15l48 -14q12 -4 16.5 -10.5t1.5 -14.5t-14 -16l-129 -92q-28 -22 -45 -15l-25 6q-16 5 -18 15l-4 -3q-17 -12 -25.5 -15.5t-19.5 0.5zM313 535q116 0 168 -58.5t34 -159.5l-22 -129q-18 -99 -87 -151t-187 -52
q-115 0 -167.5 57.5t-34.5 157.5l22 129q18 99 88 152.5t186 53.5zM366 326q12 75 -75 75t-101 -75l-23 -132q-14 -75 74 -75q87 0 101 75z" />
    <glyph glyph-name="OE" unicode="&#x152;" horiz-adv-x="870" 
d="M774 149q23 0 30 -9.5t3 -31.5l-11 -67q-4 -23 -14.5 -32t-33.5 -9h-347q-50 -15 -119 -15q-139 0 -203 78t-42 205l35 202q22 124 110 189.5t230 65.5q64 0 111 -15h340q23 0 30.5 -9t3.5 -32l-12 -67q-4 -22 -14.5 -31t-33.5 -9h-222l-22 -129h172q23 0 30 -9t3 -31
l-11 -67q-4 -23 -15 -32t-34 -9h-172l-24 -136h232zM196 251q-10 -58 19 -87.5t93 -29.5q40 0 71 11l74 420q-28 11 -67 11q-64 0 -103.5 -29.5t-49.5 -87.5z" />
    <glyph glyph-name="oe" unicode="&#x153;" horiz-adv-x="804" 
d="M447 478q65 57 158 57q103 0 151 -46.5t33 -132.5q-14 -73 -72.5 -112t-156.5 -39q-38 0 -99 9l-4 -26q-15 -79 67 -79q59 0 94 40q15 19 26 22t30 -9l43 -28q32 -21 3 -58q-65 -91 -219 -91q-91 0 -135 45q-63 -45 -159 -45q-110 0 -158.5 59.5t-30.5 159.5l22 130
q37 201 262 201q101 0 145 -57zM642 361q5 26 -9.5 40t-51.5 14q-39 0 -64.5 -20t-32.5 -57l-3 -15q54 -9 88 -9q65 0 73 47zM343 318q15 83 -63 83q-77 0 -89 -74l-24 -134q-14 -74 63 -74q78 0 92 81z" />
    <glyph glyph-name="Racute" unicode="&#x154;" horiz-adv-x="656" 
d="M453 909q47 24 66 -3l28 -43q11 -16 8.5 -24.5t-20.5 -15.5l-186 -62q-36 -12 -45 2l-15 25q-9 14 -7.5 22.5t15.5 15.5zM452 710q109 0 161.5 -65t32.5 -174q-24 -142 -151 -196q9 -16 15 -35l69 -197q14 -43 -30 -43h-80q-38 0 -54 8t-23 31l-46 154q-11 36 -25.5 47.5
t-56.5 11.5h-48l-38 -211q-4 -23 -14 -32t-33 -9h-81q-23 0 -30.5 9t-3.5 32l111 628q5 23 15 32t33 9h277zM478 480q7 39 -10.5 60.5t-57.5 21.5h-140l-28 -164h139q40 0 65 21.5t32 60.5z" />
    <glyph glyph-name="racute" unicode="&#x155;" horiz-adv-x="358" 
d="M302 733q47 24 66 -2l28 -43q12 -16 9.5 -24.5t-21.5 -15.5l-186 -64q-36 -12 -45 3l-15 24q-9 14 -7.5 22.5t16.5 15.5zM321 535h33q21 0 27.5 -8t2.5 -29l-10 -62q-4 -20 -13.5 -28t-29.5 -8h-37q-41 0 -73 -7q-4 -1 -6 -7l-62 -349q-4 -21 -13.5 -29t-29.5 -8h-78
q-21 0 -27.5 8t-2.5 29l72 409q5 25 14.5 36.5t35.5 21.5q72 27 197 31z" />
    <glyph glyph-name="Rcommaaccent" unicode="&#x156;" horiz-adv-x="656" 
d="M452 710q109 0 161.5 -65t32.5 -174q-24 -142 -151 -196q9 -16 15 -35l69 -197q14 -43 -30 -43h-80q-38 0 -54 8t-23 31l-46 154q-11 36 -25.5 47.5t-56.5 11.5h-48l-38 -211q-4 -23 -14 -32t-33 -9h-81q-23 0 -30.5 9t-3.5 32l111 628q5 23 15 32t33 9h277zM478 480
q7 39 -10.5 60.5t-57.5 21.5h-140l-28 -164h139q40 0 65 21.5t32 60.5zM277 -227q-17 -33 -48 -33h-50q-16 0 -20 6t1 20l40 141q6 22 17 30.5t33 8.5l70 1q49 0 28 -40z" />
    <glyph glyph-name="rcommaaccent" unicode="&#x157;" horiz-adv-x="358" 
d="M321 535h32q21 0 28 -8t3 -29l-11 -62q-4 -20 -13 -28t-30 -8h-37q-41 0 -72 -7q-5 -1 -7 -7l-61 -349q-4 -21 -13.5 -29t-30.5 -8h-78q-20 0 -27 8t-3 29l72 409q5 25 14.5 36.5t35.5 21.5q74 27 198 31zM72 -194q-10 -20 -21 -27t-32 -7h-42q-17 0 -21 6t1 22l33 118
q7 25 18.5 34t35.5 9h62q25 0 30 -10.5t-6 -32.5z" />
    <glyph glyph-name="Rcaron" unicode="&#x158;" horiz-adv-x="656" 
d="M590 913q21 0 22.5 -9.5t-12.5 -21.5l-112 -96q-25 -21 -37 -26t-36 -5h-18q-27 0 -37.5 5t-27.5 26l-78 96q-10 12 -5.5 21.5t26.5 9.5h59q25 0 34.5 -3.5t19.5 -16.5l33 -44l46 43q14 14 26 17.5t38 3.5h59zM452 710q109 0 161.5 -65t32.5 -174q-24 -142 -151 -196
q9 -16 15 -35l69 -197q14 -43 -30 -43h-80q-38 0 -54 8t-23 31l-46 154q-11 36 -25.5 47.5t-56.5 11.5h-48l-38 -211q-4 -23 -14 -32t-33 -9h-81q-23 0 -30.5 9t-3.5 32l111 628q5 23 15 32t33 9h277zM478 480q7 39 -10.5 60.5t-57.5 21.5h-140l-28 -164h139q40 0 65 21.5
t32 60.5z" />
    <glyph glyph-name="rcaron" unicode="&#x159;" horiz-adv-x="358" 
d="M439 737q22 0 23 -9.5t-13 -21.5l-112 -96q-24 -21 -36 -26t-36 -5h-18q-28 0 -38.5 5t-27.5 26l-78 96q-10 12 -5.5 21.5t26.5 9.5h57q25 0 35 -3.5t19 -16.5l33 -44l46 43q14 14 26.5 17.5t37.5 3.5h61zM354 535q21 0 27.5 -8t2.5 -29l-10 -62q-4 -20 -13.5 -28
t-29.5 -8h-37q-41 0 -73 -7q-4 -1 -6 -7l-62 -349q-4 -21 -13.5 -29t-29.5 -8h-78q-21 0 -27.5 8t-2.5 29l72 409q5 25 14.5 36.5t35.5 21.5q72 27 197 31h33z" />
    <glyph glyph-name="Sacute" unicode="&#x15a;" horiz-adv-x="634" 
d="M448 919q47 24 66 -3l28 -43q7 -11 8.5 -18t-3.5 -12.5t-17 -9.5l-186 -62q-37 -12 -46 2l-14 25q-10 14 -8 22t16 16zM74 519q18 99 98 152.5t218 53.5q103 0 158.5 -40t79.5 -113q6 -20 0 -30.5t-29 -19.5l-77 -31q-21 -9 -30.5 -4.5t-17.5 24.5q-22 66 -106 66
q-120 0 -131 -69q-3 -19 5.5 -32.5t30.5 -21.5t44 -12t58 -8q31 -4 58 -10.5t56 -19t49 -30.5t37 -43.5t19.5 -59t-2.5 -77.5q-38 -209 -326 -209q-229 0 -261 162q-4 21 4 32.5t31 19.5l78 26q22 8 32 3t16 -27q19 -69 117 -69q132 0 146 79q6 34 -26 49.5t-96 22.5
q-41 5 -73 12t-68.5 24t-58 41t-32 65t-1.5 94z" />
    <glyph glyph-name="sacute" unicode="&#x15b;" horiz-adv-x="508" 
d="M348 733q48 24 66 -2l29 -43q11 -16 8.5 -24.5t-20.5 -15.5l-186 -64q-36 -12 -45 3l-15 24q-9 14 -7.5 22.5t16.5 15.5zM44 377q14 76 75 117t167 41q160 0 200 -107q7 -20 1 -32t-28 -21l-59 -23q-23 -8 -30.5 -5t-17.5 21q-21 36 -83 36q-73 0 -81 -36
q-4 -22 15.5 -31t73.5 -14q102 -11 149 -50t32 -123q-14 -78 -79.5 -121.5t-173.5 -43.5q-183 0 -210 119q-7 37 33 50l64 20q22 6 30 2t16 -23q16 -38 84 -38q85 0 94 41q4 24 -16.5 33t-81.5 15q-42 4 -74 14t-59 29t-38 52t-3 78z" />
    <glyph glyph-name="Scircumflex" unicode="&#x15c;" horiz-adv-x="634" 
d="M443 924q23 0 33.5 -4.5t26.5 -25.5l79 -97q10 -11 5 -20.5t-26 -9.5h-59q-25 0 -36 3.5t-20 16.5l-30 44l-49 -44q-15 -14 -25.5 -17t-35.5 -3h-61q-22 0 -24 9.5t13 20.5l112 97q25 21 37.5 25.5t39.5 4.5h20zM74 519q18 99 98 152.5t218 53.5q103 0 158.5 -40
t79.5 -113q6 -20 0 -30.5t-29 -19.5l-77 -31q-21 -9 -30.5 -4.5t-17.5 24.5q-22 66 -106 66q-120 0 -131 -69q-3 -19 5.5 -32.5t30.5 -21.5t44 -12t58 -8q31 -4 58 -10.5t56 -19t49 -30.5t37 -43.5t19.5 -59t-2.5 -77.5q-38 -209 -326 -209q-229 0 -261 162q-4 21 4 32.5
t31 19.5l78 26q22 8 32 3t16 -27q19 -69 117 -69q132 0 146 79q6 34 -26 49.5t-96 22.5q-41 5 -73 12t-68.5 24t-58 41t-32 65t-1.5 94z" />
    <glyph glyph-name="scircumflex" unicode="&#x15d;" horiz-adv-x="508" 
d="M148 581q-22 0 -23.5 9.5t12.5 21.5l113 96q24 21 36 26t40 5h18q23 0 33.5 -5t27.5 -26l79 -96q10 -12 4.5 -21.5t-26.5 -9.5h-56q-25 0 -36 3.5t-19 16.5l-31 44l-48 -43q-15 -14 -26 -17.5t-36 -3.5h-62zM286 535q160 0 200 -107q7 -20 1 -32t-28 -21l-59 -23
q-23 -8 -30.5 -5t-17.5 21q-21 36 -83 36q-73 0 -81 -36q-4 -22 15.5 -31t73.5 -14q102 -11 149 -50t32 -123q-14 -78 -79.5 -121.5t-173.5 -43.5q-183 0 -210 119q-7 37 33 50l64 20q22 6 30 2t16 -23q16 -38 84 -38q85 0 94 41q4 24 -16.5 33t-81.5 15q-42 4 -74 14
t-59 29t-38 52t-3 78q14 76 75 117t167 41z" />
    <glyph glyph-name="Scedilla" unicode="&#x15e;" horiz-adv-x="634" 
d="M74 519q18 99 98 152.5t218 53.5q103 0 158.5 -40t79.5 -113q6 -20 0 -30.5t-29 -19.5l-77 -31q-21 -9 -30.5 -4.5t-17.5 24.5q-22 66 -106 66q-120 0 -131 -69q-3 -19 5.5 -32.5t30.5 -21.5t44 -12t58 -8q31 -4 58 -10.5t56 -19t49 -30.5t37 -43.5t19.5 -59t-2.5 -77.5
q-33 -182 -260 -206l-26 -45h7q46 -1 64 -29t6 -70q-14 -50 -58 -72t-100 -22q-38 0 -70 15q-20 10 -16 31l6 37q4 27 24 15q28 -14 53 -14q43 0 46 26q2 12 -7 18t-30 6h-20q-27 0 -11 27l46 74q-211 7 -241 162q-4 21 4 32.5t31 19.5l78 26q22 8 32 3t16 -27
q19 -69 117 -69q132 0 146 79q6 34 -26 49.5t-96 22.5q-41 5 -73 12t-68.5 24t-58 41t-32 65t-1.5 94z" />
    <glyph glyph-name="scedilla" unicode="&#x15f;" horiz-adv-x="508" 
d="M44 377q14 76 75 117t167 41q160 0 200 -107q7 -20 1 -32t-28 -21l-59 -23q-23 -8 -30.5 -5t-17.5 21q-21 36 -83 36q-73 0 -81 -36q-4 -22 15.5 -31t73.5 -14q102 -11 149 -50t32 -123q-11 -66 -60.5 -107.5t-130.5 -53.5l-27 -46h7q46 0 64 -28.5t6 -69.5
q-14 -50 -58 -72t-100 -22q-42 0 -70 15q-20 9 -16 31l6 37q4 26 24 15q27 -15 53 -15q41 0 47 26q2 12 -7 18t-31 6h-20q-28 0 -11 27l46 75q-160 7 -185 118q-7 37 33 50l64 20q22 6 30 2t16 -23q16 -38 84 -38q85 0 94 41q4 24 -16.5 33t-81.5 15q-42 4 -74 14t-59 29
t-38 52t-3 78z" />
    <glyph glyph-name="Scaron" unicode="&#x160;" horiz-adv-x="634" 
d="M584 923q22 0 23.5 -9.5t-13.5 -21.5l-112 -96q-24 -21 -36.5 -26t-36.5 -5h-18q-27 0 -37 5t-27 26l-79 96q-10 12 -5 21.5t27 9.5h58q25 0 35 -3.5t20 -16.5l33 -44l46 43q14 14 26 17.5t37 3.5h59zM74 519q18 99 98 152.5t218 53.5q103 0 158.5 -40t79.5 -113
q6 -20 0 -30.5t-29 -19.5l-77 -31q-21 -9 -30.5 -4.5t-17.5 24.5q-22 66 -106 66q-120 0 -131 -69q-3 -19 5.5 -32.5t30.5 -21.5t44 -12t58 -8q31 -4 58 -10.5t56 -19t49 -30.5t37 -43.5t19.5 -59t-2.5 -77.5q-38 -209 -326 -209q-229 0 -261 162q-4 21 4 32.5t31 19.5
l78 26q22 8 32 3t16 -27q19 -69 117 -69q132 0 146 79q6 34 -26 49.5t-96 22.5q-41 5 -73 12t-68.5 24t-58 41t-32 65t-1.5 94z" />
    <glyph glyph-name="scaron" unicode="&#x161;" horiz-adv-x="508" 
d="M486 737q21 0 22.5 -9.5t-12.5 -21.5l-112 -96q-25 -21 -37 -26t-36 -5h-18q-27 0 -37.5 5t-27.5 26l-78 96q-10 12 -5.5 21.5t26.5 9.5h56q25 0 35 -3.5t20 -16.5l33 -44l46 43q14 14 26 17.5t37 3.5h62zM286 535q160 0 200 -107q7 -20 1 -32t-28 -21l-59 -23
q-23 -8 -30.5 -5t-17.5 21q-21 36 -83 36q-73 0 -81 -36q-4 -22 15.5 -31t73.5 -14q102 -11 149 -50t32 -123q-14 -78 -79.5 -121.5t-173.5 -43.5q-183 0 -210 119q-7 37 33 50l64 20q22 6 30 2t16 -23q16 -38 84 -38q85 0 94 41q4 24 -16.5 33t-81.5 15q-42 4 -74 14
t-59 29t-38 52t-3 78q14 76 75 117t167 41z" />
    <glyph glyph-name="Tcaron" unicode="&#x164;" horiz-adv-x="581" 
d="M554 913q22 0 23.5 -9.5t-13.5 -21.5l-112 -96q-24 -21 -36.5 -26t-36.5 -5h-18q-27 0 -37 5t-27 26l-79 96q-10 12 -5 21.5t26 9.5h59q25 0 34.5 -3.5t20.5 -16.5l33 -44l45 43q14 14 26.5 17.5t37.5 3.5h59zM600 710q23 0 30 -9t3 -32l-11 -67q-5 -22 -15.5 -31
t-32.5 -9h-157l-92 -521q-4 -23 -14.5 -32t-33.5 -9h-81q-22 0 -29.5 9t-3.5 32l92 521h-157q-23 0 -30 9t-3 31l11 67q4 23 14.5 32t33.5 9h476z" />
    <glyph glyph-name="tcaron" unicode="&#x165;" horiz-adv-x="398" 
d="M443 588q-11 -19 -21 -26t-28 -7h-40q-15 0 -18.5 5t0.5 20l30 121q5 23 16 31t34 8h66q46 0 25 -39zM272 640q20 0 27 -8t3 -29l-14 -83h92q20 0 26.5 -8t2.5 -29l-10 -60q-4 -21 -13 -29t-30 -8h-92l-30 -168q-9 -57 7 -75t68 -18q21 0 28 -8t3 -30l-11 -63
q-4 -21 -13.5 -29t-30.5 -9q-131 -4 -178.5 46t-24.5 180l31 174h-54q-20 0 -27 8t-3 29l10 60q4 21 13.5 29t30.5 8h54l14 83q4 21 13.5 29t29.5 8h78z" />
    <glyph glyph-name="Tbar" unicode="&#x166;" horiz-adv-x="597" 
d="M607 710q23 0 30.5 -9t3.5 -32l-12 -67q-4 -22 -14.5 -31t-33.5 -9h-156l-33 -186h106q13 0 17 -5.5t1 -19.5l-9 -58q-3 -15 -9 -20t-20 -5h-106l-39 -227q-4 -23 -14.5 -32t-33.5 -9h-81q-23 0 -30.5 9t-3.5 32l40 227h-105q-14 0 -18 5t-1 20l10 58q5 25 28 25h106
l32 186h-156q-23 0 -30.5 8.5t-3.5 31.5l12 67q5 23 15 32t33 9h475z" />
    <glyph glyph-name="tbar" unicode="&#x167;" horiz-adv-x="399" 
d="M273 641q20 0 27 -8t3 -29l-15 -83h93q20 0 26.5 -8t3.5 -29l-11 -60q-4 -21 -13 -29t-30 -8h-92l-13 -72h76q13 0 17 -5.5t1 -19.5l-7 -45q-3 -15 -9 -20t-20 -5h-75l-1 -6q-9 -55 7.5 -71.5t68.5 -16.5q21 0 28 -8t3 -30l-12 -63q-4 -22 -13 -29.5t-30 -8.5
q-131 -4 -178 46t-25 179l1 8h-49q-14 0 -18 5t-1 20l7 45q5 25 29 25h49l13 72h-54q-20 0 -27 8t-3 29l11 60q3 21 12.5 29t30.5 8h53l15 83q4 21 13.5 29t29.5 8h78z" />
    <glyph glyph-name="Utilde" unicode="&#x168;" horiz-adv-x="691" 
d="M584 904q23 0 18 -23q-11 -65 -37 -91.5t-74 -26.5q-28 0 -49 12.5t-37 25t-30 12.5q-17 0 -21 -29q-4 -21 -25 -21h-45q-22 0 -18 22q11 65 37.5 92t71.5 27q30 0 52.5 -12.5t37.5 -25t29 -12.5q17 0 21 28q4 22 25 22h44zM209 246q-10 -54 17.5 -83.5t89.5 -29.5
q127 0 146 113l75 423q5 23 15 32t33 9h81q23 0 30 -9t3 -32l-77 -434q-21 -122 -104.5 -186t-224.5 -64q-139 0 -202.5 77.5t-41.5 202.5l72 404q4 23 14.5 32t33.5 9h81q23 0 30 -9t3 -32z" />
    <glyph glyph-name="utilde" unicode="&#x169;" 
d="M484 731q22 0 18 -22q-11 -66 -37 -92.5t-73 -26.5q-28 0 -49.5 12.5t-37.5 25t-30 12.5q-16 0 -21 -28q-4 -22 -24 -22h-45q-22 0 -19 23q12 65 38.5 91.5t70.5 26.5q40 0 73 -25t47 -25q15 0 21 29q4 21 24 21h44zM508 520q21 0 27.5 -8t2.5 -29l-71 -404
q-5 -25 -14.5 -36.5t-35.5 -21.5q-93 -36 -210 -36q-108 0 -152 58t-26 159l49 281q4 21 13.5 29t30.5 8h77q21 0 27.5 -8t2.5 -29l-50 -286q-7 -39 10.5 -57t61.5 -18q35 0 66 7q9 3 10 11l60 343q4 21 13.5 29t30.5 8h77z" />
    <glyph glyph-name="Umacron" unicode="&#x16a;" horiz-adv-x="691" 
d="M565 883q21 0 27 -7t2 -28l-6 -33q-4 -20 -12 -27t-29 -7h-234q-21 0 -27 7t-2 27l6 33q4 20 13 27.5t28 7.5h234zM209 246q-10 -54 17.5 -83.5t89.5 -29.5q127 0 146 113l75 423q5 23 15 32t33 9h81q23 0 30 -9t3 -32l-77 -434q-21 -122 -104.5 -186t-224.5 -64
q-139 0 -202.5 77.5t-41.5 202.5l72 404q4 23 14.5 32t33.5 9h81q23 0 30 -9t3 -32z" />
    <glyph glyph-name="umacron" unicode="&#x16b;" 
d="M464 706q21 0 27 -7t2 -27l-6 -33q-3 -21 -11.5 -28t-29.5 -7h-234q-20 0 -25.5 7t-2.5 28l5 33q4 20 13 27t28 7h234zM508 520q21 0 27.5 -8t2.5 -29l-71 -404q-5 -25 -14.5 -36.5t-35.5 -21.5q-93 -36 -210 -36q-108 0 -152 58t-26 159l49 281q4 21 13.5 29t30.5 8h77
q21 0 27.5 -8t2.5 -29l-50 -286q-7 -39 10.5 -57t61.5 -18q35 0 66 7q9 3 10 11l60 343q4 21 13.5 29t30.5 8h77z" />
    <glyph glyph-name="Ubreve" unicode="&#x16c;" horiz-adv-x="691" 
d="M607 859q-26 -48 -74 -74.5t-107 -26.5t-96.5 26.5t-46.5 74.5q-4 25 21 34l57 20q28 9 33 -12q11 -39 50 -39q41 0 64 39q8 12 15 14.5t19 -1.5l54 -21q13 -6 15.5 -13t-4.5 -21zM209 246q-10 -54 17.5 -83.5t89.5 -29.5q127 0 146 113l75 423q5 23 15 32t33 9h81
q23 0 30 -9t3 -32l-77 -434q-21 -122 -104.5 -186t-224.5 -64q-139 0 -202.5 77.5t-41.5 202.5l72 404q4 23 14.5 32t33.5 9h81q23 0 30 -9t3 -32z" />
    <glyph glyph-name="ubreve" unicode="&#x16d;" 
d="M507 683q-56 -102 -177 -102q-60 0 -99.5 27t-47.5 75q-3 13 2 20.5t20 12.5l52 19q17 5 23.5 2.5t11.5 -14.5q8 -38 52 -38q40 0 64 39q12 21 34 13l55 -21q12 -6 14.5 -12.5t-4.5 -20.5zM508 520q21 0 27.5 -8t2.5 -29l-71 -404q-5 -25 -14.5 -36.5t-35.5 -21.5
q-93 -36 -210 -36q-108 0 -152 58t-26 159l49 281q4 21 13.5 29t30.5 8h77q21 0 27.5 -8t2.5 -29l-50 -286q-7 -39 10.5 -57t61.5 -18q35 0 66 7q9 3 10 11l60 343q4 21 13.5 29t30.5 8h77z" />
    <glyph glyph-name="Uring" unicode="&#x16e;" horiz-adv-x="691" 
d="M331 852q8 50 46.5 81t90.5 31q51 0 78 -31t18 -81q-8 -49 -46 -79.5t-88 -30.5q-52 0 -80 30.5t-19 79.5zM489 852q4 19 -5.5 30.5t-27.5 11.5q-19 0 -33 -11.5t-18 -30.5q-3 -17 7.5 -28.5t29.5 -11.5q18 0 31.5 11t15.5 29zM209 246q-10 -54 17.5 -83.5t89.5 -29.5
q127 0 146 113l75 423q5 23 15 32t33 9h81q23 0 30 -9t3 -32l-77 -434q-21 -122 -104.5 -186t-224.5 -64q-139 0 -202.5 77.5t-41.5 202.5l72 404q4 23 14.5 32t33.5 9h81q23 0 30 -9t3 -32z" />
    <glyph glyph-name="uring" unicode="&#x16f;" 
d="M222 650q8 50 47 81t91 31q50 0 77 -31.5t18 -80.5q-8 -49 -45.5 -80t-88.5 -31q-52 0 -80 30.5t-19 80.5zM381 650q3 18 -6.5 29.5t-26.5 11.5q-19 0 -33.5 -11.5t-18.5 -29.5q-2 -18 8 -29.5t29 -11.5q17 0 31 11.5t17 29.5zM508 520q21 0 27.5 -8t2.5 -29l-71 -404
q-5 -25 -14.5 -36.5t-35.5 -21.5q-93 -36 -210 -36q-108 0 -152 58t-26 159l49 281q4 21 13.5 29t30.5 8h77q21 0 27.5 -8t2.5 -29l-50 -286q-7 -39 10.5 -57t61.5 -18q35 0 66 7q9 3 10 11l60 343q4 21 13.5 29t30.5 8h77z" />
    <glyph glyph-name="Uhungarumlaut" unicode="&#x170;" horiz-adv-x="691" 
d="M319 767q-29 9 -6 37l80 90q29 35 67 24l41 -14q25 23 57 15l47 -14q19 -7 20 -18t-16 -23l-128 -93q-18 -13 -24.5 -15.5t-20.5 0.5l-26 7q-17 4 -17 15l-4 -3q-29 -22 -45 -15zM666 710q23 0 30 -9t3 -32l-77 -434q-21 -122 -104.5 -186t-224.5 -64q-139 0 -202.5 77.5
t-41.5 202.5l72 404q4 23 14.5 32t33.5 9h81q23 0 30 -9t3 -32l-74 -423q-10 -54 17.5 -83.5t89.5 -29.5q127 0 146 113l75 423q5 23 15 32t33 9h81z" />
    <glyph glyph-name="uhungarumlaut" unicode="&#x171;" 
d="M217 585q-30 8 -5 36l80 91q30 35 66 24l42 -14q25 23 57 14l47 -14q40 -13 4 -41l-128 -92q-29 -22 -45 -15l-26 6q-17 5 -17 15l-4 -3q-17 -12 -26 -15.5t-20 0.5zM508 520q21 0 27.5 -8t2.5 -29l-71 -404q-5 -25 -14.5 -36.5t-35.5 -21.5q-93 -36 -210 -36
q-108 0 -152 58t-26 159l49 281q4 21 13.5 29t30.5 8h77q21 0 27.5 -8t2.5 -29l-50 -286q-7 -39 10.5 -57t61.5 -18q35 0 66 7q9 3 10 11l60 343q4 21 13.5 29t30.5 8h77z" />
    <glyph glyph-name="Uogonek" unicode="&#x172;" horiz-adv-x="691" 
d="M666 710q23 0 30 -9t3 -32l-77 -434q-12 -65 -40.5 -111t-80.5 -86q-47 -35 -75.5 -71t-35.5 -56t-6 -33q0 -20 16 -20q10 0 19 5q18 11 21 -6l12 -47q4 -17 -8 -26q-36 -29 -108 -29q-37 0 -61.5 19.5t-25.5 55.5q0 78 98 158q-27 -3 -54 -3q-139 0 -202.5 77.5
t-41.5 202.5l72 404q4 23 14.5 32t33.5 9h81q23 0 30 -9t3 -32l-74 -423q-10 -54 17.5 -83.5t89.5 -29.5q127 0 146 113l75 423q5 23 15 32t33 9h81z" />
    <glyph glyph-name="uogonek" unicode="&#x173;" 
d="M508 520q21 0 27.5 -8t2.5 -29l-71 -404q-4 -26 -16 -39q-49 -55 -74 -100t-24 -64q0 -18 16 -18q9 0 19 6q18 11 21 -6l11 -42q4 -16 -8 -26q-46 -35 -107 -35q-86 0 -87 65q0 37 27 84t74 91q-52 -10 -112 -10q-108 0 -152.5 58.5t-25.5 160.5l49 279q4 21 13.5 29
t30.5 8h77q21 0 27.5 -8t2.5 -29l-50 -286q-7 -39 10.5 -57t61.5 -18q35 0 66 7q9 3 10 11l60 343q4 21 13.5 29t30.5 8h77z" />
    <glyph glyph-name="Wcircumflex" unicode="&#x174;" horiz-adv-x="915" 
d="M585 914q24 0 34 -4.5t26 -25.5l80 -97q10 -11 5 -20.5t-27 -9.5h-58q-25 0 -36.5 3.5t-20.5 16.5l-30 44l-49 -44q-15 -14 -25.5 -17t-35.5 -3h-60q-22 0 -24 9.5t12 20.5l112 97q25 21 37.5 25.5t40.5 4.5h19zM942 710q22 0 25.5 -9.5t-5.5 -30.5l-265 -636
q-9 -21 -21.5 -27.5t-34.5 -6.5h-87q-22 0 -32 6.5t-11 25.5l-25 323q-2 76 9 137h-9q-12 -65 -41 -137l-139 -321q-9 -21 -21 -27.5t-35 -6.5h-82q-22 0 -32.5 6.5t-11.5 25.5l-44 638q-2 22 5 31t29 9h92q26 0 36.5 -7t11.5 -29l6 -308q1 -28 -4 -83t-8 -71h7q4 22 19 73
t28 81l134 308q9 21 22.5 28.5t37.5 7.5h73q25 0 36 -7.5t12 -28.5l23 -308q3 -33 0.5 -84t-6.5 -70h7q17 76 44 154l111 308q8 22 20.5 29t39.5 7h86z" />
    <glyph glyph-name="wcircumflex" unicode="&#x175;" horiz-adv-x="746" 
d="M269 581q-14 0 -19.5 4.5t-2.5 11.5t11 15l113 96q25 21 37 26t40 5h18q23 0 33.5 -5t27.5 -26l78 -96q11 -12 5.5 -21.5t-26.5 -9.5h-56q-25 0 -36 3.5t-20 16.5l-30 44l-48 -43q-15 -14 -26 -17.5t-36 -3.5h-63zM735 520q26 0 30.5 -9t-7.5 -34l-198 -444
q-14 -33 -56 -33h-63q-41 0 -45 33l-17 199q-2 29 -1 56t2 46l2 18h-5q-17 -65 -40 -120l-88 -199q-15 -33 -56 -33h-54q-22 0 -33 7t-12 26l-46 444q-4 25 4 34t34 9h57q34 0 46 -7t12 -30l6 -172q1 -21 -1.5 -55.5t-5.5 -58.5l-2 -24h6q21 87 43 138l77 171q11 24 23 31
t45 7h36q33 0 42.5 -7t11.5 -30l18 -172q2 -30 1 -60.5t-3 -54.5l-3 -23h6q15 77 38 138l66 171q10 24 24 31t48 7h58z" />
    <glyph glyph-name="Ycircumflex" unicode="&#x176;" horiz-adv-x="655" 
d="M453 914q24 0 34.5 -4.5t26.5 -25.5l79 -97q10 -11 5 -20.5t-27 -9.5h-58q-25 0 -36.5 3.5t-20.5 16.5l-30 44l-49 -44q-14 -14 -25 -17t-36 -3h-60q-22 0 -24 9.5t12 20.5l113 97q24 21 36.5 25.5t40.5 4.5h19zM695 710q22 0 25 -12t-11 -29l-304 -393l-42 -235
q-4 -23 -14.5 -32t-33.5 -9h-81q-23 0 -30 9t-3 32l41 237l-166 391q-8 17 -1 29t29 12h90q38 0 51 -5.5t22 -30.5l85 -233l169 233q17 25 32 30.5t53 5.5h89z" />
    <glyph glyph-name="ycircumflex" unicode="&#x177;" horiz-adv-x="557" 
d="M170 581q-22 0 -23.5 9.5t12.5 21.5l113 96q24 21 36.5 26t39.5 5h18q23 0 33.5 -5t27.5 -26l79 -96q10 -12 5 -21.5t-27 -9.5h-55q-25 0 -36 3.5t-20 16.5l-31 44l-47 -43q-16 -14 -26.5 -17.5t-35.5 -3.5h-63zM508 520q20 0 26.5 -8t2.5 -29l-86 -493
q-39 -220 -267 -220q-150 0 -193 96q-19 37 25 58l57 27q24 11 35 8t21 -21q21 -38 75 -38q79 0 94 81l7 41q-38 -7 -94 -7q-108 0 -151.5 58.5t-25.5 160.5l43 249q4 21 13.5 29t30.5 8h77q21 0 27.5 -8t2.5 -29l-45 -256q-13 -75 73 -75q34 0 73 7l57 324q4 21 13.5 29
t30.5 8h78z" />
    <glyph glyph-name="Ydieresis" unicode="&#x178;" horiz-adv-x="655" 
d="M337 902q37 0 49 -13.5t5 -49.5l-2 -11q-6 -35 -22.5 -49.5t-53.5 -14.5h-7q-36 0 -47.5 14t-4.5 50l2 11q6 36 21.5 49.5t52.5 13.5h7zM544 902q37 0 48 -13.5t5 -49.5l-2 -11q-7 -36 -23.5 -50t-52.5 -14h-7q-36 0 -47.5 14.5t-5.5 49.5l2 11q7 36 23 49.5t53 13.5h7z
M695 710q22 0 25 -12t-11 -29l-304 -393l-42 -235q-4 -23 -14.5 -32t-33.5 -9h-81q-23 0 -30 9t-3 32l41 237l-166 391q-8 17 -1 29t29 12h90q38 0 51 -5.5t22 -30.5l85 -233l169 233q17 25 32 30.5t53 5.5h89z" />
    <glyph glyph-name="Zacute" unicode="&#x179;" horiz-adv-x="599" 
d="M433 909q47 24 66 -3l28 -43q11 -16 8.5 -24.5t-20.5 -15.5l-186 -62q-36 -12 -45 2l-15 25q-9 14 -7.5 22.5t15.5 15.5zM594 710q23 0 30.5 -9t3.5 -32l-11 -58q-4 -24 -20 -41l-387 -421h290q23 0 31 -9t3 -32l-12 -67q-4 -23 -14.5 -32t-33.5 -9h-455q-23 0 -30.5 9
t-3.5 32l11 58q4 22 20 41l387 422h-280q-23 0 -30 9t-3 31l11 67q5 23 15 32t33 9h445z" />
    <glyph glyph-name="zacute" unicode="&#x17a;" horiz-adv-x="481" 
d="M336 733q47 24 66 -2l29 -43q11 -16 8.5 -24.5t-20.5 -15.5l-186 -64q-36 -12 -46 3l-15 24q-9 14 -7.5 22.5t16.5 15.5zM387 134q21 0 27.5 -8.5t2.5 -28.5l-10 -60q-4 -21 -13.5 -29t-30.5 -8h-352q-20 0 -26.5 8t-2.5 29l9 59q5 22 20 37l257 253h-184
q-20 0 -26.5 8.5t-2.5 28.5l10 60q4 21 13.5 29t29.5 8h342q21 0 27.5 -8t2.5 -29l-10 -59q-3 -20 -22 -40l-260 -250h199z" />
    <glyph glyph-name="Zdotaccent" unicode="&#x17b;" horiz-adv-x="599" 
d="M415 903q38 0 49.5 -14t5.5 -52l-2 -8q-7 -38 -23 -52t-55 -14h-6q-38 0 -49.5 14t-4.5 52l2 8q7 38 23 52t54 14h6zM594 710q23 0 30.5 -9t3.5 -32l-11 -58q-4 -24 -20 -41l-387 -421h290q23 0 31 -9t3 -32l-12 -67q-4 -23 -14.5 -32t-33.5 -9h-455q-23 0 -30.5 9
t-3.5 32l11 58q4 22 20 41l387 422h-280q-23 0 -30 9t-3 31l11 67q5 23 15 32t33 9h445z" />
    <glyph glyph-name="zdotaccent" unicode="&#x17c;" horiz-adv-x="481" 
d="M318 726q38 0 50 -14t5 -52l-2 -8q-6 -38 -22.5 -52t-54.5 -14h-6q-38 0 -49.5 14t-5.5 52l2 8q7 38 23 52t54 14h6zM387 134q21 0 27.5 -8.5t2.5 -28.5l-10 -60q-4 -21 -13.5 -29t-30.5 -8h-352q-20 0 -26.5 8t-2.5 29l9 59q5 22 20 37l257 253h-184q-20 0 -26.5 8.5
t-2.5 28.5l10 60q4 21 13.5 29t29.5 8h342q21 0 27.5 -8t2.5 -29l-10 -59q-3 -20 -22 -40l-260 -250h199z" />
    <glyph glyph-name="Zcaron" unicode="&#x17d;" horiz-adv-x="599" 
d="M570 913q22 0 23 -9.5t-13 -21.5l-112 -96q-25 -21 -37 -26t-36 -5h-18q-27 0 -37.5 5t-27.5 26l-78 96q-10 12 -5.5 21.5t26.5 9.5h59q25 0 34.5 -3.5t19.5 -16.5l33 -44l46 43q14 14 26 17.5t38 3.5h59zM594 710q23 0 30.5 -9t3.5 -32l-11 -58q-4 -24 -20 -41
l-387 -421h290q23 0 31 -9t3 -32l-12 -67q-4 -23 -14.5 -32t-33.5 -9h-455q-23 0 -30.5 9t-3.5 32l11 58q4 22 20 41l387 422h-280q-23 0 -30 9t-3 31l11 67q5 23 15 32t33 9h445z" />
    <glyph glyph-name="zcaron" unicode="&#x17e;" horiz-adv-x="481" 
d="M473 737q42 0 11 -31l-113 -96q-24 -21 -36 -26t-36 -5h-18q-27 0 -38 5t-27 26l-78 96q-11 12 -6 21.5t26 9.5h57q25 0 35 -3.5t19 -16.5l33 -44l46 43q14 14 26.5 17.5t37.5 3.5h61zM450 520q21 0 27.5 -8t2.5 -29l-10 -59q-3 -20 -22 -40l-260 -250h199
q21 0 27.5 -8.5t2.5 -28.5l-10 -60q-4 -21 -13.5 -29t-30.5 -8h-352q-20 0 -26.5 8t-2.5 29l9 59q5 22 20 37l257 253h-184q-20 0 -26.5 8.5t-2.5 28.5l10 60q4 21 13.5 29t29.5 8h342z" />
    <glyph glyph-name="longs" unicode="&#x17f;" horiz-adv-x="314" 
d="M131 524q39 216 281 216q21 0 27.5 -8t2.5 -30l-10 -58q-4 -22 -13.5 -30t-30.5 -8q-91 0 -107 -91l-84 -478q-4 -21 -13.5 -29t-31.5 -8h-76q-21 0 -27.5 8t-2.5 29l61 349h-43q-21 0 -28 8t-3 29l11 60q4 21 13.5 29t29.5 8h44v4z" />
    <glyph glyph-name="florin" unicode="&#x192;" horiz-adv-x="448" 
d="M183 515q21 111 84.5 168t182.5 57q22 0 29.5 -8t5.5 -30l-6 -62q-1 -21 -10 -29t-31 -8q-50 0 -72.5 -23t-32.5 -71l-17 -88h86q20 0 27.5 -8t5.5 -29l-5 -64q-1 -20 -10.5 -28t-29.5 -8h-100l-52 -277q-22 -111 -85.5 -169t-182.5 -58q-21 0 -28.5 8t-5.5 30l5 62
q1 21 10.5 29t30.5 8q50 0 73 23t32 71l52 273h-79q-21 0 -28.5 8t-5.5 28l6 64q1 21 10 29t30 8h93z" />
    <glyph glyph-name="Aringacute" unicode="&#x1fa;" horiz-adv-x="670" 
d="M480 971q45 17 62 -1l28 -33q21 -22 -10 -29l-173 -47q-33 -9 -42 2l-15 20q-18 19 16 32zM285 734q10 53 51 82.5t98 29.5q56 0 86.5 -32t20.5 -88q-7 -42 -50 -74l126 -612q7 -40 -34 -40h-71q-37 0 -51 7.5t-16 29.5l-14 94h-247l-49 -94q-11 -22 -27 -29.5t-53 -7.5
h-74q-41 0 -19 40l345 612q-32 32 -22 82zM456 731q3 19 -7 31t-28 12q-20 0 -34.5 -12t-18.5 -31q-3 -19 7.5 -31t30.5 -12q18 0 32 12t18 31zM387 418q-5 32 -5 68t2 56l3 19h-9q-13 -71 -49 -142l-80 -156h162z" />
    <glyph glyph-name="aringacute" unicode="&#x1fb;" horiz-adv-x="542" 
d="M373 909q44 18 62 -2l27 -31q10 -12 8 -19t-20 -11l-174 -47q-33 -9 -42 1l-14 19q-9 11 -7.5 16.5t15.5 11.5zM228 672q8 49 46.5 80t89.5 31t77.5 -31t17.5 -80q-8 -48 -45.5 -79t-87.5 -31q-52 0 -79.5 30.5t-18.5 79.5zM385 672q4 18 -5.5 29.5t-27.5 11.5
q-19 0 -33 -11.5t-17 -29.5t7 -29t29 -11q17 0 30.5 11t16.5 29zM39 333q19 105 84.5 153.5t184.5 48.5q121 0 185 -33q22 -11 26.5 -21t-0.5 -35l-69 -394q-4 -21 -13 -30t-31 -14q-93 -23 -205 -23q-108 0 -155.5 60.5t-28.5 161.5zM353 393q-27 7 -59 7q-48 0 -73.5 -19
t-33.5 -63l-22 -125q-12 -73 72 -73q40 0 75 7l46 258q2 6 -5 8z" />
    <glyph glyph-name="AEacute" unicode="&#x1fc;" horiz-adv-x="880" 
d="M756 909q48 25 66 -3l28 -43q11 -16 8.5 -24.5t-20.5 -15.5l-186 -62q-36 -12 -45 2l-15 25q-9 14 -7.5 22.5t15.5 15.5zM785 149q23 0 30 -9.5t3 -31.5l-11 -67q-4 -23 -14.5 -32t-33.5 -9h-337q-23 0 -30.5 9t-3.5 32l16 88h-196l-73 -93q-16 -21 -30.5 -28.5
t-50.5 -7.5h-80q-44 0 -19 40l510 636q17 21 26.5 27.5t28.5 6.5h354q23 0 30.5 -9t3.5 -32l-12 -67q-4 -22 -14.5 -31t-33.5 -9h-218l-22 -129h168q23 0 30 -9t3 -31l-11 -67q-4 -23 -15 -32t-34 -9h-168l-24 -136h228zM466 469l-156 -211h117z" />
    <glyph glyph-name="aeacute" unicode="&#x1fd;" horiz-adv-x="777" 
d="M485 733q48 24 66 -2l29 -43q11 -16 8.5 -24.5t-20.5 -15.5l-186 -64q-36 -12 -45 3l-15 24q-10 14 -8 22.5t17 15.5zM417 481q60 54 155 54q104 0 154.5 -48t35.5 -133q-13 -72 -73 -110.5t-159 -38.5q-38 0 -99 9l-5 -26q-13 -79 68 -79q59 0 94 40q15 19 25.5 22
t29.5 -9l44 -28q31 -21 3 -58q-65 -91 -219 -91q-76 0 -122 29q-68 -29 -161 -29q-113 0 -157.5 45.5t-29.5 129.5q14 80 73.5 117t175.5 37q34 0 62 -2l3 21q2 15 4 32t-12 30t-46 13q-47 0 -80 -38q-15 -17 -24 -20t-29 5l-51 23q-36 16 -11 53q74 104 220 104
q85 0 131 -54zM614 361q5 26 -11 40t-53 14q-39 0 -65 -20t-33 -57l-2 -17q52 -7 88 -7q68 0 76 47zM291 199q-48 3 -73 3q-60 0 -69 -51q-5 -26 6.5 -37.5t42.5 -11.5q45 0 89 8q-4 27 1 69z" />
    <glyph glyph-name="Oslashacute" unicode="&#x1fe;" horiz-adv-x="676" 
d="M467 919q48 25 66 -3l29 -43q10 -16 8 -24.5t-21 -15.5l-186 -62q-36 -12 -45 2l-15 25q-9 14 -7.5 22.5t15.5 15.5zM720 754q14 0 4 -14l-93 -114q46 -70 28 -181l-36 -203q-22 -125 -108.5 -191t-228.5 -66q-94 0 -152 34l-38 -46q-7 -8 -11.5 -10t-18.5 -2h-82
q-17 0 -4 15l85 104q-47 72 -29 182l35 203q23 125 110 192.5t228 67.5q96 0 156 -36l42 52q12 13 29 13h84zM462 560q-26 16 -75 16q-133 0 -153 -117l-35 -195q-3 -15 -3 -29zM497 444q1 5 2 15t1 11l-264 -321q27 -15 73 -15q133 0 153 117z" />
    <glyph glyph-name="oslashacute" unicode="&#x1ff;" horiz-adv-x="547" 
d="M372 733q47 24 66 -2l28 -43q12 -16 9.5 -24.5t-21.5 -15.5l-186 -64q-36 -12 -45 3l-15 24q-9 14 -7.5 22.5t16.5 15.5zM536 552q16 0 4 -14l-55 -67q48 -59 30 -154l-22 -129q-18 -99 -87 -151t-186 -52q-64 0 -111 19l-23 -27q-10 -12 -29 -12h-53q-16 0 -4 15l52 63
q-52 56 -35 157l22 129q18 99 88 152.5t186 53.5q70 0 118 -23l23 28q10 12 27 12h55zM341 398q-17 10 -49 10q-86 0 -100 -75l-23 -126q-2 -8 -2 -24zM197 119q21 -7 43 -7q88 0 101 75l22 122q2 8 2 17z" />
    <glyph glyph-name="Scommaaccent" unicode="&#x218;" horiz-adv-x="634" 
d="M74 519q18 99 98 152.5t218 53.5q103 0 158.5 -40t79.5 -113q6 -20 0 -30.5t-29 -19.5l-77 -31q-21 -9 -30.5 -4.5t-17.5 24.5q-22 66 -106 66q-120 0 -131 -69q-3 -19 5.5 -32.5t30.5 -21.5t44 -12t58 -8q31 -4 58 -10.5t56 -19t49 -30.5t37 -43.5t19.5 -59t-2.5 -77.5
q-38 -209 -326 -209q-229 0 -261 162q-4 21 4 32.5t31 19.5l78 26q22 8 32 3t16 -27q19 -69 117 -69q132 0 146 79q6 34 -26 49.5t-96 22.5q-41 5 -73 12t-68.5 24t-58 41t-32 65t-1.5 94zM260 -227q-16 -33 -48 -33h-50q-16 0 -20 6t1 20l40 141q6 22 16.5 30.5t33.5 8.5
l70 1q49 0 28 -40z" />
    <glyph glyph-name="scommaaccent" unicode="&#x219;" horiz-adv-x="508" 
d="M44 377q14 76 75 117t167 41q160 0 200 -107q7 -20 1 -32t-28 -21l-59 -23q-23 -8 -30.5 -5t-17.5 21q-21 36 -83 36q-73 0 -81 -36q-4 -22 15.5 -31t73.5 -14q102 -11 149 -50t32 -123q-14 -78 -79.5 -121.5t-173.5 -43.5q-183 0 -210 119q-7 37 33 50l64 20q22 6 30 2
t16 -23q16 -38 84 -38q85 0 94 41q4 24 -16.5 33t-81.5 15q-42 4 -74 14t-59 29t-38 52t-3 78zM222 -199q-11 -20 -21.5 -26.5t-31.5 -6.5h-42q-17 0 -21 5.5t1 21.5l30 111q7 25 19 34t36 9h61q47 0 24 -43z" />
    <glyph glyph-name="uni021A" unicode="&#x21a;" horiz-adv-x="581" 
d="M600 710q23 0 30 -9t3 -32l-11 -67q-5 -22 -15.5 -31t-32.5 -9h-157l-92 -521q-4 -23 -14.5 -32t-33.5 -9h-81q-22 0 -29.5 9t-3.5 32l92 521h-157q-23 0 -30 9t-3 31l11 67q4 23 14.5 32t33.5 9h476zM228 -227q-16 -33 -48 -33h-50q-16 0 -20 6t1 20l40 141
q6 22 17 30.5t33 8.5l70 1q49 0 28 -40z" />
    <glyph glyph-name="uni021B" unicode="&#x21b;" horiz-adv-x="398" 
d="M272 640q20 0 27 -8t3 -29l-14 -83h92q20 0 26.5 -8t2.5 -29l-10 -60q-4 -21 -13 -29t-30 -8h-92l-30 -168q-9 -57 7 -75t68 -18q21 0 28 -8t3 -30l-11 -63q-4 -21 -13.5 -29t-30.5 -9q-131 -4 -178.5 46t-24.5 180l31 174h-54q-20 0 -27 8t-3 29l10 60q4 21 13.5 29
t30.5 8h54l14 83q4 21 13.5 29t29.5 8h78zM170 -227q-16 -33 -48 -33h-50q-16 0 -20 6t1 20l41 141q6 22 16.5 30.5t32.5 8.5l71 1q48 0 27 -40z" />
    <glyph glyph-name="dotlessj" unicode="&#x237;" horiz-adv-x="253" 
d="M203 520q22 0 28.5 -8t2.5 -29l-86 -491q-40 -222 -281 -222q-22 0 -29 8t-3 30l11 62q4 21 13.5 29t31.5 8q91 0 107 92l85 484q4 21 13.5 29t31.5 8h75z" />
    <glyph glyph-name="circumflex" unicode="&#x2c6;" horiz-adv-x="401" 
d="M293 739q23 0 33.5 -5t27.5 -26l79 -96q10 -12 5 -21.5t-27 -9.5h-55q-26 0 -36.5 3.5t-19.5 16.5l-31 44l-47 -44q-16 -14 -26.5 -17t-35.5 -3h-63q-22 0 -23.5 9.5t12.5 21.5l113 96q24 21 36.5 26t39.5 5h18z" />
    <glyph glyph-name="caron" unicode="&#x2c7;" horiz-adv-x="358" 
d="M418 737q22 0 23.5 -9.5t-12.5 -21.5l-113 -96q-24 -21 -36 -26t-36 -5h-18q-27 0 -37.5 5t-27.5 26l-78 96q-11 12 -6 21.5t27 9.5h56q25 0 35 -3.5t19 -16.5l34 -44l45 43q14 14 26.5 17.5t37.5 3.5h61z" />
    <glyph glyph-name="breve" unicode="&#x2d8;" horiz-adv-x="287" 
d="M376 683q-56 -102 -177 -102q-60 0 -99.5 27t-47.5 75q-3 13 2 20.5t20 12.5l52 19q17 5 23.5 2.5t11.5 -14.5q8 -38 52 -38q40 0 64 39q12 21 34 13l55 -21q12 -6 14.5 -12.5t-4.5 -20.5z" />
    <glyph glyph-name="dotaccent" unicode="&#x2d9;" horiz-adv-x="217" 
d="M194 726q38 0 49.5 -14t5.5 -52l-2 -8q-7 -38 -23.5 -52t-54.5 -14h-6q-38 0 -49.5 14t-4.5 52l2 8q6 38 22.5 52t54.5 14h6z" />
    <glyph glyph-name="ring" unicode="&#x2da;" horiz-adv-x="240" 
d="M75 665q9 50 47.5 81t90.5 31q50 0 77 -31.5t19 -80.5q-9 -49 -46.5 -79.5t-88.5 -30.5q-52 0 -79.5 30.5t-19.5 79.5zM234 665q3 19 -6.5 30.5t-26.5 11.5q-20 0 -34 -11.5t-17 -30.5q-3 -17 7 -28.5t29 -11.5q18 0 31.5 11t16.5 29z" />
    <glyph glyph-name="ogonek" unicode="&#x2db;" horiz-adv-x="252" 
d="M156 1q-79 -84 -77 -123q0 -20 16 -20q11 0 18 5q19 10 22 -6l11 -47q5 -17 -7 -26q-36 -29 -108 -29q-37 0 -61.5 19.5t-25.5 55.5q0 83 115 170z" />
    <glyph glyph-name="tilde" unicode="&#x2dc;" horiz-adv-x="305" 
d="M373 731q22 0 18 -22q-11 -66 -37.5 -92.5t-73.5 -26.5q-36 0 -69 25t-48 25q-16 0 -21 -28q-3 -22 -24 -22h-45q-23 0 -18 23q11 65 38 91.5t71 26.5q30 0 52.5 -12.5t37.5 -25t29 -12.5q17 0 21 29q4 21 25 21h44z" />
    <glyph glyph-name="hungarumlaut" unicode="&#x2dd;" horiz-adv-x="395" 
d="M436 722q40 -13 4 -41l-128 -92q-29 -22 -45 -15l-26 6q-17 5 -17 15l-4 -3q-18 -12 -26.5 -15.5t-19.5 0.5l-25 8q-30 8 -5 36l80 91q30 35 66 24l42 -14q25 23 56 14z" />
    <glyph glyph-name="uni0326" unicode="&#x326;" horiz-adv-x="0" 
d="M84 -227q-16 -33 -48 -33h-50q-16 0 -20 6t1 20l40 141q7 22 17.5 30.5t32.5 8.5l70 1q49 0 28 -40z" />
    <glyph glyph-name="pi" unicode="&#x3c0;" horiz-adv-x="658" 
d="M635 520q21 0 27.5 -8t2.5 -29l-11 -61q-3 -21 -12.5 -29.5t-30.5 -8.5h-20l-40 -225q-7 -41 1 -78q12 -38 -29 -54l-72 -26q-22 -9 -32.5 -5.5t-15.5 24.5q-16 61 -3 140l40 224h-151l-61 -347q-4 -21 -13.5 -29t-30.5 -8h-77q-21 0 -27.5 8t-2.5 29l61 347
q-15 -1 -50 -13q-19 -9 -30 -5.5t-15 21.5l-15 59q-10 34 27 48q68 26 151 26h429z" />
    <glyph glyph-name="uni0401" unicode="&#x401;" horiz-adv-x="584" 
d="M318 896q36 0 47.5 -14t5.5 -50l-2 -11q-7 -36 -23.5 -49.5t-52.5 -13.5h-7q-36 0 -47.5 13.5t-5.5 49.5l2 11q7 36 23 50t52 14h8zM524 896q37 0 48 -14t4 -50l-2 -11q-6 -36 -22 -49.5t-52 -13.5h-7q-37 0 -49 14t-5 49l2 11q6 36 22.5 50t53.5 14h7zM577 710
q23 0 30.5 -9t3.5 -32l-12 -67q-4 -22 -14.5 -31t-33.5 -9h-281l-22 -129h231q22 0 29.5 -8.5t3.5 -31.5l-12 -67q-4 -23 -14.5 -32t-33.5 -9h-231l-24 -136h291q23 0 30 -9.5t3 -31.5l-12 -67q-4 -23 -14 -32t-33 -9h-412q-23 0 -30.5 9t-3.5 32l111 628q5 23 15 32t33 9
h402z" />
    <glyph glyph-name="uni0410" unicode="&#x410;" horiz-adv-x="670" 
d="M617 40q7 -40 -34 -40h-70q-38 0 -51.5 7.5t-16.5 29.5l-14 94h-248l-48 -94q-11 -22 -26.5 -29.5t-52.5 -7.5h-74q-42 0 -20 40l352 636q10 20 21.5 27t33.5 7h77q22 0 31.5 -6.5t13.5 -25.5zM387 418q-4 32 -4 68t2 56l2 19h-8q-13 -71 -49 -142l-80 -156h162z" />
    <glyph glyph-name="uni0411" unicode="&#x411;" horiz-adv-x="638" 
d="M598 710q23 0 30 -9t3 -32l-11 -63q-4 -23 -14.5 -32t-33.5 -9h-301l-21 -116h154q105 0 159.5 -64.5t35.5 -168.5q-18 -103 -87.5 -159.5t-173.5 -56.5h-289q-22 0 -29.5 8.5t-3.5 30.5l111 630q4 23 14.5 32t33.5 9h423zM433 224q7 36 -11.5 58t-57.5 22h-139l-28 -159
h139q39 0 65 21.5t32 57.5z" />
    <glyph glyph-name="uni0412" unicode="&#x412;" horiz-adv-x="654" 
d="M456 710q98 0 146.5 -54.5t32.5 -141.5q-10 -51 -32 -83t-63 -58l-1 -4q43 -20 60 -66.5t6 -112.5q-17 -93 -90 -141.5t-179 -48.5h-286q-23 0 -30.5 9t-3.5 32l111 628q5 23 15 32t33 9h281zM466 498q12 68 -60 68h-135l-24 -136h135q72 0 84 68zM438 216q12 73 -62 73
h-153l-26 -145h153q75 0 88 72z" />
    <glyph glyph-name="uni0413" unicode="&#x413;" horiz-adv-x="528" 
d="M544 710q23 0 30.5 -9t3.5 -32l-12 -67q-4 -22 -14.5 -31t-33.5 -9h-248l-92 -521q-4 -23 -14 -32t-33 -9h-81q-23 0 -30.5 9t-3.5 32l111 628q5 23 15 32t33 9h369z" />
    <glyph glyph-name="uni0414" unicode="&#x414;" horiz-adv-x="763" 
d="M688 710q23 0 30.5 -9t3.5 -32l-92 -520h48q23 0 30 -9.5t3 -31.5l-39 -220q-4 -23 -14 -32t-33 -9h-78q-23 0 -30.5 9t-3.5 32l20 112h-407l-20 -112q-4 -23 -14.5 -32t-33.5 -9h-78q-23 0 -30.5 9t-3.5 32l39 220q5 23 15.5 32t32.5 9h20q44 28 79 95.5t60 210.5
l37 214q5 23 15 32t33 9h411zM367 561l-18 -105q-38 -209 -109 -307h227l73 412h-173z" />
    <glyph glyph-name="uni0415" unicode="&#x415;" horiz-adv-x="584" 
d="M577 710q23 0 30.5 -9t3.5 -32l-12 -67q-4 -22 -14.5 -31t-33.5 -9h-281l-22 -129h231q22 0 29.5 -8.5t3.5 -31.5l-12 -67q-4 -23 -14.5 -32t-33.5 -9h-231l-24 -136h291q23 0 30 -9.5t3 -31.5l-12 -67q-4 -23 -14 -32t-33 -9h-412q-23 0 -30.5 9t-3.5 32l111 628
q5 23 15 32t33 9h402z" />
    <glyph glyph-name="uni0416" unicode="&#x416;" horiz-adv-x="959" 
d="M983 710q21 0 24.5 -12t-10.5 -28l-233 -292q30 -30 50 -91l84 -244q14 -43 -30 -43h-77q-39 0 -53 7t-21 30l-58 192q-10 34 -29 46t-62 12h-9l-44 -246q-4 -23 -14.5 -32t-33.5 -9h-81q-22 0 -29.5 9t-3.5 32l44 246h-10q-41 0 -61 -11.5t-44 -46.5l-128 -192
q-16 -23 -33 -30t-56 -7h-80q-22 0 -25 12.5t11 30.5l170 244q43 62 84 91l-131 292q-8 16 -1 28t27 12h84q38 0 50 -5.5t22 -28.5l105 -244q11 1 31 1h10l42 236q4 23 14 32t33 9h81q23 0 30.5 -9t3.5 -32l-42 -236h9q19 0 29 -1l188 244q17 22 33 28t53 6h87z" />
    <glyph glyph-name="uni0417" unicode="&#x417;" horiz-adv-x="641" 
d="M620 506q-16 -89 -99 -135q92 -55 69 -176q-38 -210 -305 -210q-252 0 -285 168q-7 38 35 52l79 27q22 8 32.5 2t14.5 -28q8 -38 41 -56t100 -18q103 0 119 78q12 78 -65 78h-117q-23 0 -30.5 8.5t-3.5 31.5l11 62q5 23 15 32t33 9h100q78 0 91 73q6 37 -14.5 55.5
t-68.5 18.5q-112 0 -154 -74q-12 -22 -24 -27.5t-32 1.5l-69 27q-38 14 -16 52q46 84 123.5 126t199.5 42t180.5 -59.5t39.5 -159.5z" />
    <glyph glyph-name="uni0418" unicode="&#x418;" horiz-adv-x="705" 
d="M674 710q23 0 30 -9t3 -32l-110 -628q-4 -23 -14.5 -32t-33.5 -9h-81q-23 0 -30.5 9t-3.5 32l41 227q10 57 20.5 96t19 62t34.5 84h-6q-35 -66 -59 -102.5t-72 -96.5l-234 -292q-16 -19 -43 -19h-85q-23 0 -30.5 9t-3.5 32l111 628q5 23 15 32t33 9h81q23 0 30 -9t3 -32
l-39 -227q-14 -80 -27 -121t-47 -121h5q36 66 61.5 105t72.5 99l231 287q16 19 43 19h85z" />
    <glyph glyph-name="uni0419" unicode="&#x419;" horiz-adv-x="705" 
d="M436 758q-59 0 -97 26.5t-46 74.5q-3 14 1.5 21.5t19.5 12.5l57 20q16 5 22.5 2.5t10.5 -14.5q9 -39 50 -39t63 39q14 20 35 13l54 -21q13 -6 15.5 -13t-4.5 -21q-26 -48 -74 -74.5t-107 -26.5zM674 710q23 0 30 -9t3 -32l-110 -628q-4 -23 -14.5 -32t-33.5 -9h-81
q-23 0 -30.5 9t-3.5 32l41 227q10 57 20.5 96t19 62t34.5 84h-6q-35 -66 -59 -102.5t-72 -96.5l-234 -292q-16 -19 -43 -19h-85q-23 0 -30.5 9t-3.5 32l111 628q5 23 15 32t33 9h81q23 0 30 -9t3 -32l-39 -227q-14 -80 -27 -121t-47 -121h5q36 66 61.5 105t72.5 99l231 287
q16 19 43 19h85z" />
    <glyph glyph-name="uni041A" unicode="&#x41a;" horiz-adv-x="641" 
d="M580 43q8 -18 0.5 -30.5t-29.5 -12.5h-80q-39 0 -53.5 7t-21.5 30l-60 190q-12 35 -29 47.5t-59 12.5h-26l-44 -246q-4 -23 -14 -32t-33 -9h-81q-23 0 -30.5 9t-3.5 32l111 628q5 23 15 32t33 9h81q23 0 30 -9t3 -32l-42 -236h16h11l219 243q20 22 34.5 28t50.5 6h88
q21 0 24.5 -12t-10.5 -28l-261 -282q51 -29 76 -101z" />
    <glyph glyph-name="uni041B" unicode="&#x41b;" horiz-adv-x="689" 
d="M657 710q23 0 30.5 -9t3.5 -32l-111 -628q-4 -23 -14.5 -32t-33.5 -9h-80q-23 0 -30.5 9t-3.5 32l92 520h-163l-18 -105q-21 -118 -51.5 -202.5t-70 -135t-75.5 -77.5t-85 -49q-23 -10 -34 -5.5t-17 25.5l-26 69q-7 20 -0.5 32t29.5 23q26 12 45 27.5t44 48.5t45.5 94.5
t36.5 148.5l37 214q5 23 15 32t33 9h402z" />
    <glyph glyph-name="uni041C" unicode="&#x41c;" horiz-adv-x="820" 
d="M789 710q23 0 30.5 -9t3.5 -31l-111 -630q-4 -22 -14.5 -31t-33.5 -9h-75q-23 0 -30 9t-3 31l40 227q15 92 72 225h-8q-47 -97 -113 -186l-92 -127q-12 -16 -22.5 -22.5t-28.5 -6.5h-41q-18 0 -26 6t-14 23l-50 127q-28 72 -42 186h-8q8 -132 -9 -226l-40 -226
q-4 -22 -14.5 -31t-33.5 -9h-76q-23 0 -30.5 8.5t-3.5 31.5l111 630q4 22 14.5 31t33.5 9h63q25 0 35 -6t17 -24l124 -339l244 338q14 20 24.5 25.5t34.5 5.5h72z" />
    <glyph glyph-name="uni041D" unicode="&#x41d;" horiz-adv-x="691" 
d="M660 710q23 0 30 -9t3 -32l-111 -628q-4 -23 -14 -32t-33 -9h-81q-23 0 -30.5 9t-3.5 32l43 244h-241l-43 -244q-4 -23 -14.5 -32t-33.5 -9h-81q-23 0 -30.5 9t-3.5 32l111 628q4 23 14.5 32t33.5 9h81q23 0 30 -9t3 -32l-41 -235h242l41 235q5 23 15 32t33 9h81z" />
    <glyph glyph-name="uni041E" unicode="&#x41e;" horiz-adv-x="675" 
d="M72 465q22 125 109 192.5t228 67.5q140 0 205.5 -76.5t44.5 -203.5l-36 -203q-22 -125 -108.5 -191t-228.5 -66q-140 0 -205.5 75.5t-44.5 201.5zM500 459q10 58 -19.5 87.5t-93.5 29.5q-133 0 -153 -117l-37 -208q-10 -58 19 -87.5t93 -29.5q133 0 154 117z" />
    <glyph glyph-name="uni041F" unicode="&#x41f;" horiz-adv-x="686" 
d="M654 710q23 0 30.5 -9t3.5 -32l-111 -628q-4 -23 -14.5 -32t-33.5 -9h-81q-22 0 -29.5 9t-3.5 32l92 521h-237l-92 -521q-4 -23 -14 -32t-33 -9h-81q-23 0 -30.5 9t-3.5 32l111 628q5 23 15 32t33 9h479z" />
    <glyph glyph-name="uni0420" unicode="&#x420;" horiz-adv-x="640" 
d="M442 710q112 0 166.5 -70t34.5 -183q-20 -111 -94.5 -168.5t-189.5 -57.5h-147l-34 -190q-4 -23 -14 -32t-33 -9h-81q-23 0 -30.5 9t-3.5 32l111 628q5 23 15 32t33 9h267zM368 380q44 0 73 23.5t36 66.5q8 43 -13 67.5t-64 24.5h-130l-32 -182h130z" />
    <glyph glyph-name="uni0421" unicode="&#x421;" horiz-adv-x="640" 
d="M72 466q22 125 109.5 192t229.5 67q209 0 241 -171q4 -22 -2.5 -33.5t-29.5 -18.5l-73 -24q-23 -7 -33 -2t-15 27q-15 73 -112 73q-133 0 -154 -119l-36 -204q-21 -119 112 -119q97 0 139 73q12 22 24 27.5t32 -2.5l75 -29q20 -8 24 -19.5t-7 -32.5q-91 -166 -311 -166
q-140 0 -205 75t-44 202z" />
    <glyph glyph-name="uni0422" unicode="&#x422;" horiz-adv-x="581" 
d="M600 710q23 0 30 -9t3 -32l-11 -67q-5 -22 -15.5 -31t-32.5 -9h-157l-92 -521q-4 -23 -14.5 -32t-33.5 -9h-81q-22 0 -29.5 9t-3.5 32l92 521h-157q-23 0 -30 9t-3 31l11 67q4 23 14.5 32t33.5 9h476z" />
    <glyph glyph-name="uni0423" unicode="&#x423;" horiz-adv-x="623" 
d="M662 710q37 0 14 -41l-391 -633q-14 -23 -27.5 -29.5t-45.5 -6.5h-96q-39 0 -13 41l112 170l-149 458q-13 41 28 41h84q38 0 50 -5.5t19 -30.5l85 -279l168 279q15 25 26 30.5t47 5.5h89z" />
    <glyph glyph-name="uni0424" unicode="&#x424;" horiz-adv-x="850" 
d="M546 735q23 0 30 -9t3 -32l-7 -44h41q132 0 191.5 -70.5t37.5 -192.5l-12 -70q-21 -121 -103 -186.5t-216 -65.5h-42l-8 -44q-4 -23 -14.5 -32t-33.5 -9h-81q-23 0 -30.5 9t-3.5 32l8 44h-42q-132 0 -191 71.5t-37 194.5l12 70q22 121 103.5 185t215.5 64h42l8 44
q4 23 14.5 32t33.5 9h81zM344 507q-112 0 -132 -108l-15 -83q-18 -108 95 -108h39l52 299h-39zM680 399q20 108 -95 108h-39l-52 -299h39q114 0 132 108z" />
    <glyph glyph-name="uni0425" unicode="&#x425;" horiz-adv-x="650" 
d="M679 710q20 0 23.5 -12t-10.5 -27l-257 -308l155 -322q10 -16 2 -28.5t-29 -12.5h-93q-38 0 -50.5 5.5t-22.5 30.5l-87 198l-148 -198q-19 -24 -33.5 -30t-51.5 -6h-95q-21 0 -24 12t11 29l267 321l-146 309q-9 15 -2 27t28 12h89q36 0 49 -6t26 -28l79 -185l143 185
q19 23 32.5 28.5t47.5 5.5h97z" />
    <glyph glyph-name="uni0426" unicode="&#x426;" horiz-adv-x="723" 
d="M636 149q23 0 30 -9.5t3 -31.5l-39 -220q-4 -23 -14 -32t-33 -9h-74q-23 0 -30.5 9t-3.5 32l20 112h-445q-23 0 -30.5 9t-3.5 32l111 628q5 23 15 32t33 9h81q23 0 30 -9t3 -32l-92 -520h233l91 520q4 23 14.5 32t33.5 9h81q23 0 30.5 -9t3.5 -32l-92 -520h44z" />
    <glyph glyph-name="uni0427" unicode="&#x427;" horiz-adv-x="648" 
d="M617 710q23 0 30 -9t3 -32l-110 -628q-4 -23 -14.5 -32t-33.5 -9h-81q-23 0 -30.5 9t-3.5 32l39 216q-60 -9 -128 -9q-266 0 -221 266l27 155q4 23 14.5 32t33.5 9h81q23 0 30.5 -9t3.5 -32l-30 -166q-10 -58 14 -81t88 -23q63 0 114 12l45 258q5 23 15 32t33 9h81z" />
    <glyph glyph-name="uni0428" unicode="&#x428;" horiz-adv-x="940" 
d="M909 710q23 0 30.5 -9t3.5 -32l-111 -628q-4 -23 -14.5 -32t-33.5 -9h-734q-23 0 -30.5 9t-3.5 32l111 628q5 23 15 32t33 9h81q23 0 30 -9t3 -32l-92 -520h165l92 520q4 23 14 32t33 9h81q23 0 30.5 -9t3.5 -32l-92 -520h164l92 520q5 23 15 32t33 9h81z" />
    <glyph glyph-name="uni0429" unicode="&#x429;" horiz-adv-x="982" 
d="M894 149q23 0 31 -9t3 -32l-39 -221q-4 -22 -14.5 -31t-33.5 -9h-73q-23 0 -30.5 8.5t-3.5 31.5l20 113h-704q-23 0 -30.5 9t-3.5 32l111 628q5 23 15 32t33 9h81q23 0 30 -9t3 -32l-92 -520h165l92 520q4 23 14 32t33 9h81q23 0 30.5 -9t3.5 -32l-92 -520h164l92 520
q5 23 15 32t33 9h81q23 0 30.5 -9t3.5 -32l-92 -520h43z" />
    <glyph glyph-name="uni042A" unicode="&#x42a;" horiz-adv-x="755" 
d="M511 479q113 0 170.5 -70t38.5 -182q-20 -112 -93.5 -169.5t-187.5 -57.5h-272q-23 0 -30.5 9t-3.5 32l92 520h-127q-23 0 -30 9.5t-3 31.5l11 67q4 23 14.5 32t33.5 9h248q23 0 30.5 -9t3.5 -32l-33 -190h138zM444 148q43 0 72 24.5t37 67.5q7 43 -13 66.5t-64 23.5
h-129l-33 -182h130z" />
    <glyph glyph-name="uni042B" unicode="&#x42b;" horiz-adv-x="929" 
d="M602 230q-19 -111 -93.5 -170.5t-187.5 -59.5h-271q-23 0 -30.5 9t-3.5 32l111 628q5 23 15 32t33 9h81q23 0 30 -9t3 -32l-33 -190h141q113 0 169 -68t36 -181zM770 670q5 23 15 31.5t32 8.5h82q23 0 30 -9t3 -31l-111 -630q-4 -22 -14 -31t-33 -9h-82q-22 0 -29.5 8.5
t-3.5 31.5zM436 240q7 43 -12.5 66.5t-63.5 23.5h-130l-33 -182h130q43 0 72 24.5t37 67.5z" />
    <glyph glyph-name="uni042C" unicode="&#x42c;" horiz-adv-x="637" 
d="M602 230q-19 -111 -93.5 -170.5t-187.5 -59.5h-271q-23 0 -30.5 9t-3.5 32l111 628q5 23 15 32t33 9h81q23 0 30 -9t3 -32l-33 -190h141q113 0 169 -68t36 -181zM436 240q8 43 -12.5 66.5t-64.5 23.5h-129l-33 -182h130q43 0 72 24.5t37 67.5z" />
    <glyph glyph-name="uni042D" unicode="&#x42d;" horiz-adv-x="645" 
d="M74 557q92 168 310 168q139 0 203 -77t42 -204l-35 -202q-23 -125 -108 -191t-226 -66q-110 0 -176 43.5t-81 124.5q-4 21 4 33t31 19l79 27q22 8 32.5 2t14.5 -28q15 -74 115 -74q132 0 154 117l6 37h-204q-23 0 -30.5 9t-2.5 32l11 65q4 23 14.5 32t33.5 9h204l5 29
q10 57 -19 86.5t-93 29.5q-99 0 -143 -74q-12 -22 -23.5 -27t-32.5 2l-69 26q-20 8 -23.5 19.5t7.5 32.5z" />
    <glyph glyph-name="uni042E" unicode="&#x42e;" horiz-adv-x="954" 
d="M367 469q19 122 106.5 189t225.5 67q136 0 198 -75.5t40 -202.5l-35 -203q-23 -125 -108.5 -192t-223.5 -67q-136 0 -199 73t-42 197l5 30h-112l-43 -244q-4 -23 -14.5 -32t-33.5 -9h-81q-23 0 -30.5 9t-3.5 32l111 628q5 23 15 32t33 9h81q23 0 30 -9t3 -32l-41 -235
h113zM778 460q20 116 -105 116t-145 -116l-37 -210q-10 -57 16.5 -86.5t87.5 -29.5q124 0 145 116z" />
    <glyph glyph-name="uni042F" unicode="&#x42f;" horiz-adv-x="656" 
d="M72 492q19 107 91.5 162.5t183.5 55.5h277q23 0 30.5 -9t3.5 -32l-111 -628q-4 -23 -14.5 -32t-33.5 -9h-81q-22 0 -29.5 9t-3.5 32l37 211h-45q-44 0 -66 -11.5t-44 -47.5l-94 -156q-14 -23 -31.5 -30t-57.5 -7h-80q-43 0 -14 43l130 197q3 4 9.5 14t12 18t9.5 13
q-49 27 -70.5 80.5t-8.5 126.5zM337 562q-81 0 -97 -82q-7 -39 11 -60t58 -21h139l29 163h-140z" />
    <glyph glyph-name="uni0430" unicode="&#x430;" horiz-adv-x="542" 
d="M39 333q19 105 84.5 153.5t184.5 48.5q121 0 185 -33q22 -11 26.5 -21t-0.5 -35l-69 -394q-4 -21 -13 -30t-31 -14q-93 -23 -205 -23q-108 0 -155.5 60.5t-28.5 161.5zM353 393q-27 7 -59 7q-48 0 -73.5 -19t-33.5 -63l-22 -125q-12 -73 72 -73q40 0 75 7l46 258
q2 6 -5 8z" />
    <glyph glyph-name="uni0431" unicode="&#x431;" horiz-adv-x="556" 
d="M432 729q46 0 72 11q40 19 47 -24l9 -54q3 -21 -3.5 -31.5t-27.5 -21.5q-35 -16 -115 -16h-35q-79 0 -114 -27t-47 -96l-2 -11q51 46 131 46q98 0 145 -57t28 -159l-18 -101q-37 -203 -269 -203q-115 0 -169 59t-36 159l38 222q29 162 105 233t231 71h30zM370 296
q12 75 -72 75q-90 0 -102 -75l-18 -102q-14 -75 72 -75q88 0 102 75z" />
    <glyph glyph-name="uni0432" unicode="&#x432;" horiz-adv-x="544" 
d="M131 508q74 27 179 27t156 -44.5t38 -117.5q-12 -68 -86 -99q39 -14 60 -46.5t14 -76.5q-24 -166 -260 -166q-128 0 -191 22q-43 13 -36 60l65 367q10 56 61 74zM352 364q3 22 -14 34.5t-50 12.5q-42 0 -69 -7q-6 -2 -6 -7l-14 -78h75q69 0 78 45zM338 160q4 25 -16 38
t-64 13h-77l-17 -94q0 -3 2 -4q35 -5 70 -5q92 0 102 52z" />
    <glyph glyph-name="uni0433" unicode="&#x433;" horiz-adv-x="510" 
d="M65 428q75 107 238 107q102 0 151 -45.5t37 -117.5q-9 -48 -30.5 -80t-56 -48.5t-67 -23.5t-79.5 -11q-113 -10 -120 -56q-4 -24 16 -33t66 -9q74 0 104 41q13 19 24 23.5t29 -2.5l52 -19q38 -13 16 -52q-66 -117 -246 -117q-109 0 -161.5 45.5t-38.5 121.5
q15 82 73.5 120t166.5 47q52 5 79.5 15.5t31.5 35.5q3 20 -13 28.5t-60 8.5q-65 0 -98 -39q-15 -18 -24.5 -21t-29.5 5l-50 23q-36 16 -10 53z" />
    <glyph glyph-name="uni0434" unicode="&#x434;" 
d="M170 706q3 21 12.5 29.5t30.5 8.5q153 0 220 -32q72 -35 94.5 -113.5t-1.5 -211.5l-35 -198q-17 -99 -86.5 -151.5t-185.5 -52.5t-169 58t-35 157l19 103q16 95 82 146.5t162 51.5q84 0 122 -45q6 42 -1.5 69.5t-21 40t-37.5 24.5q-43 22 -147 22q-22 0 -29 7.5t-4 28.5z
M358 296q12 75 -74 75q-88 0 -100 -75l-18 -102q-14 -75 73 -75t101 75z" />
    <glyph glyph-name="uni0435" unicode="&#x435;" horiz-adv-x="536" 
d="M39 330q18 99 89.5 152t187.5 53q105 0 161.5 -51.5t42.5 -136.5q-25 -142 -242 -142q-42 0 -110 9l-4 -26q-15 -79 75 -79q69 0 106 40q17 18 28.5 21t31.5 -8l45 -27q34 -21 5 -59q-71 -91 -238 -91q-122 0 -170 66t-29 168zM373 361q4 26 -15.5 40t-61.5 14t-70 -21.5
t-36 -58.5l-3 -13q64 -8 97 -8q80 0 89 47z" />
    <glyph glyph-name="uni0436" unicode="&#x436;" horiz-adv-x="763" 
d="M457 520q22 0 28.5 -8t2.5 -30l-26 -151h14h6l119 159q14 20 27.5 25t45.5 5h72q52 0 17 -44l-157 -195q22 -17 36 -60l54 -176q8 -24 1 -34.5t-34 -10.5h-69q-33 0 -44 6t-16 28l-29 123q-11 39 -54 40h-12l-29 -159q-4 -22 -13.5 -30t-31.5 -8h-74q-22 0 -29 8t-3 30
l29 159h-10q-46 0 -69 -40l-73 -123q-13 -22 -26.5 -28t-45.5 -6h-69q-27 0 -30.5 10.5t13.5 34.5l115 177q35 50 55 64l-86 190q-21 44 33 44h65q32 0 45 -5.5t20 -24.5l66 -159h8h12l26 151q4 22 13.5 30t32.5 8h74z" />
    <glyph glyph-name="uni0437" unicode="&#x437;" horiz-adv-x="512" 
d="M50 410q64 125 241 125q101 0 152 -42.5t40 -118.5q-5 -33 -25 -63t-53 -43l-1 -3q65 -33 51 -120q-26 -160 -246 -160q-188 0 -220 132q-10 41 35 53l61 18q24 7 33.5 2t14.5 -25q12 -53 90 -53q75 0 83 49q4 19 -6.5 30.5t-32.5 11.5h-83q-20 0 -26.5 8t-2.5 28l8 45
q3 20 12.5 28t29.5 8h75q46 0 54 39q4 23 -12 36.5t-47 13.5q-70 0 -99 -46q-12 -21 -23 -26t-33 1l-55 19q-37 13 -15 53z" />
    <glyph glyph-name="uni0438" unicode="&#x438;" 
d="M508 520q21 0 27.5 -8t2.5 -29l-71 -404q-5 -25 -14.5 -36.5t-35.5 -21.5q-93 -36 -210 -36q-108 0 -152 58t-26 159l49 281q4 21 13.5 29t30.5 8h77q21 0 27.5 -8t2.5 -29l-50 -286q-7 -39 10.5 -57t61.5 -18q35 0 66 7q9 3 10 11l60 343q4 21 13.5 29t30.5 8h77z" />
    <glyph glyph-name="uni0439" unicode="&#x439;" 
d="M505 670q-28 -51 -76 -79t-110 -28t-103.5 28.5t-51.5 78.5q-2 15 3 22.5t21 12.5l54 20q17 5 24.5 2.5t12.5 -15.5q8 -40 55 -40q41 0 67 42q14 21 35 13l58 -22q24 -11 11 -35zM508 520q21 0 27.5 -8t2.5 -29l-71 -404q-5 -25 -14.5 -36.5t-35.5 -21.5
q-93 -36 -210 -36q-108 0 -152 58t-26 159l49 281q4 21 13.5 29t30.5 8h77q21 0 27.5 -8t2.5 -29l-50 -286q-7 -39 10.5 -57t61.5 -18q35 0 66 7q9 3 10 11l60 343q4 21 13.5 29t30.5 8h77z" />
    <glyph glyph-name="uni043A" unicode="&#x43a;" horiz-adv-x="533" 
d="M466 45q8 -24 0.5 -34.5t-34.5 -10.5h-66q-31 0 -41.5 6t-17.5 28l-32 123q-12 42 -56 42h-36l-28 -161q-4 -22 -13.5 -30t-31.5 -8h-75q-22 0 -28.5 8t-2.5 30l78 444q4 22 13.5 30t31.5 8h75q22 0 28.5 -8t2.5 -30l-26 -151h18h8l142 159q17 20 30.5 25t45.5 5h67
q27 0 29.5 -14t-17.5 -35l-166 -184q29 -14 46 -66z" />
    <glyph glyph-name="uni043B" unicode="&#x43b;" 
d="M506 520q21 0 27.5 -8t2.5 -29l-78 -446q-4 -21 -13.5 -29t-29.5 -8h-78q-20 0 -27 8t-3 29l61 346h-101l-23 -95q-15 -67 -33 -116t-34.5 -77.5t-39.5 -49t-40.5 -30t-44.5 -21.5q-9 -4 -14 -6q-32 -12 -42 20l-27 71q-8 26 20 40q1 0 11.5 5t15 8.5t15.5 12t19 21.5
t18 31.5t19 46t17 62.5l41 177q5 21 14 29t30 8h317z" />
    <glyph glyph-name="uni043C" unicode="&#x43c;" horiz-adv-x="649" 
d="M598 520q24 0 30.5 -8.5t2.5 -31.5l-78 -443q-4 -21 -13.5 -29t-30.5 -8h-65q-22 0 -28.5 7.5t-2.5 29.5l22 123q12 65 56 166h-5q-30 -61 -68 -111l-62 -83q-12 -17 -21 -22t-28 -5h-37q-18 0 -26 5t-14 22l-33 83q-17 42 -27 111h-5q6 -116 -3 -167l-21 -122
q-4 -21 -13.5 -29t-30.5 -8h-64q-22 0 -28 7.5t-2 29.5l78 443q4 23 14 31.5t34 8.5h56q22 0 31.5 -6t16.5 -24l82 -224l161 223q12 18 23 24.5t33 6.5h66z" />
    <glyph glyph-name="uni043D" unicode="&#x43d;" horiz-adv-x="557" 
d="M510 520q20 0 26.5 -8t2.5 -29l-78 -446q-4 -21 -13.5 -29t-29.5 -8h-78q-21 0 -27.5 8t-2.5 29l28 158h-155l-28 -158q-4 -21 -13.5 -29t-29.5 -8h-78q-21 0 -27.5 8t-2.5 29l78 446q4 21 13.5 29t30.5 8h78q20 0 26.5 -8t2.5 -29l-26 -150h155l26 150q4 21 13.5 29
t30.5 8h78z" />
    <glyph glyph-name="uni043E" unicode="&#x43e;" horiz-adv-x="547" 
d="M39 329q18 99 88 152.5t186 53.5t168 -58.5t34 -159.5l-22 -129q-18 -99 -87 -151t-187 -52q-115 0 -167.5 57.5t-34.5 157.5zM366 326q12 75 -75 75t-101 -75l-23 -132q-14 -75 74 -75q87 0 101 75z" />
    <glyph glyph-name="uni043F" unicode="&#x43f;" 
d="M123 499q95 36 211 36q107 0 151.5 -57.5t26.5 -158.5l-49 -282q-4 -21 -13.5 -29t-30.5 -8h-78q-20 0 -27 8t-3 29l50 286q14 75 -71 75q-39 0 -72 -9q-2 0 -4 -4l-61 -348q-4 -21 -13.5 -29t-29.5 -8h-78q-21 0 -27.5 8t-2.5 29l71 404q5 25 14.5 36.5t35.5 21.5z" />
    <glyph glyph-name="uni0440" unicode="&#x440;" horiz-adv-x="544" 
d="M124 504q87 31 209 31q109 0 153.5 -57.5t25.5 -158.5l-22 -127q-37 -207 -267 -207q-35 0 -76 9l-32 -177q-4 -21 -13.5 -29t-30.5 -8h-77q-21 0 -27.5 8t-2.5 29l111 629q5 25 14.5 36.5t34.5 21.5zM363 327q7 35 -12 54t-59 19q-34 0 -71 -7q-4 -1 -6 -7l-45 -260
q36 -6 65 -6q90 0 106 82z" />
    <glyph glyph-name="uni0441" unicode="&#x441;" horiz-adv-x="513" 
d="M39 332q36 203 268 203q86 0 134.5 -36.5t59.5 -96.5q3 -22 -4 -33.5t-28 -18.5l-60 -20q-23 -8 -33 -2.5t-15 27.5q-13 50 -77 50q-81 0 -94 -76l-25 -139q-14 -75 67 -75q60 0 92 51q12 21 24 26t32 -2l63 -20q39 -15 15 -53q-77 -132 -248 -132q-115 0 -163 59
t-30 161z" />
    <glyph glyph-name="uni0442" unicode="&#x442;" horiz-adv-x="825" 
d="M441 505q86 30 173 30q104 0 145 -57t24 -158l-50 -283q-4 -21 -13.5 -29t-30.5 -8h-77q-21 0 -27.5 8t-2.5 29l50 287q14 74 -62 74q-34 0 -71 -10q1 -26 -5 -61l-51 -290q-4 -21 -13.5 -29t-29.5 -8h-78q-21 0 -27.5 8t-2.5 29l50 287q7 40 -8 57t-54 17q-27 0 -61 -8
q-3 0 -5 -6l-61 -347q-4 -21 -13.5 -29t-29.5 -8h-78q-21 0 -27.5 8t-2.5 29l71 404q5 25 14.5 36.5t35.5 21.5q95 36 201 36q76 0 117 -30z" />
    <glyph glyph-name="uni0443" unicode="&#x443;" horiz-adv-x="557" 
d="M508 520q20 0 26.5 -8t2.5 -29l-86 -493q-39 -220 -267 -220q-150 0 -193 96q-19 37 25 58l57 27q24 11 35 8t21 -21q21 -38 75 -38q79 0 94 81l7 41q-38 -7 -94 -7q-108 0 -151.5 58.5t-25.5 160.5l43 249q4 21 13.5 29t30.5 8h77q21 0 27.5 -8t2.5 -29l-45 -256
q-13 -75 73 -75q34 0 73 7l57 324q4 21 13.5 29t30.5 8h78z" />
    <glyph glyph-name="uni0444" unicode="&#x444;" horiz-adv-x="747" 
d="M489 533q26 2 39 2q113 0 159 -64t25 -176l-16 -92q-20 -111 -84.5 -164.5t-179.5 -53.5q-13 0 -39 2l-30 -170q-4 -21 -13.5 -29t-29.5 -8h-78q-20 0 -27 8t-3 29l30 170q-24 -2 -38 -2q-113 0 -159 63t-25 176l16 92q39 219 264 219q14 0 38 -2l30 169q4 21 13.5 29
t29.5 8h78q20 0 27 -8t3 -29zM169 214q-16 -94 67 -94q14 0 34 2l49 276q-20 2 -33 2q-85 0 -101 -94zM563 306q8 48 -8 71t-60 23q-12 0 -34 -2l-48 -276q20 -2 32 -2q86 0 102 94z" />
    <glyph glyph-name="uni0445" unicode="&#x445;" horiz-adv-x="526" 
d="M510 520q54 0 18 -44l-178 -208l111 -224q12 -22 4 -33t-39 -11h-62q-31 0 -41 5t-20 27l-59 131l-101 -131q-16 -21 -29.5 -26.5t-43.5 -5.5h-75q-33 0 -36.5 11t17.5 33l188 222l-106 210q-20 44 36 44h60q31 0 42 -6t20 -26l54 -115l92 115q17 21 29 26.5t41 5.5h78z
" />
    <glyph glyph-name="uni0446" unicode="&#x446;" horiz-adv-x="603" 
d="M199 520q21 0 27.5 -8t2.5 -29l-50 -286q-7 -39 10.5 -57t61.5 -18q34 0 74 9l62 352q4 21 13.5 29t30.5 8h77q21 0 27.5 -8t2.5 -29l-61 -346q53 4 67.5 -22t3.5 -86l-22 -131q-4 -21 -13 -29t-30 -8h-72q-21 0 -28 8t-3 29l17 90q2 14 -4.5 18.5t-22.5 0.5
q-69 -22 -164 -22q-108 0 -152 59.5t-25 160.5l49 278q4 21 13.5 29t30.5 8h77z" />
    <glyph glyph-name="uni0447" unicode="&#x447;" horiz-adv-x="520" 
d="M54 483q4 21 13.5 29t30.5 8h78q20 0 26.5 -8t2.5 -29l-20 -113q-6 -39 9 -56t57 -17q19 0 36.5 2.5t24.5 4.5l8 2l31 177q4 21 13.5 29t30.5 8h77q21 0 27.5 -8t2.5 -29l-78 -446q-4 -21 -13.5 -29t-30.5 -8h-77q-21 0 -27.5 8t-2.5 29l23 131q-26 -7 -90 -7
q-103 0 -145 57.5t-25 156.5z" />
    <glyph glyph-name="uni0448" unicode="&#x448;" horiz-adv-x="825" 
d="M779 520q21 0 27.5 -8t2.5 -29l-71 -404q-5 -25 -14.5 -36.5t-35.5 -21.5q-95 -36 -201 -36q-75 0 -117 28q-80 -28 -173 -28q-104 0 -145.5 59.5t-22.5 161.5l49 277q4 21 13.5 29t30.5 8h77q21 0 27.5 -8t2.5 -29l-50 -287q-14 -74 62 -74q34 0 71 10q-1 26 5 61
l51 290q4 21 13.5 29t29.5 8h78q21 0 27.5 -8t2.5 -29l-50 -287q-14 -74 62 -74q30 0 58 7q7 1 8 10l61 344q4 21 13.5 29t29.5 8h78z" />
    <glyph glyph-name="uni0449" unicode="&#x449;" horiz-adv-x="873" 
d="M78 483q4 21 13.5 29t30.5 8h77q21 0 27.5 -8t2.5 -29l-50 -287q-14 -74 62 -74q34 0 71 10q-1 26 5 61l51 290q4 21 13.5 29t29.5 8h78q21 0 27.5 -8t2.5 -29l-50 -287q-14 -74 62 -74q37 0 65 10l62 351q4 21 13.5 29t29.5 8h78q21 0 27.5 -8t2.5 -29l-61 -346
q53 4 67.5 -22t3.5 -86l-22 -131q-4 -21 -13.5 -29t-29.5 -8h-72q-21 0 -28.5 8t-3.5 29l17 90q6 28 -26 19q-82 -22 -154 -22q-75 0 -117 28q-80 -28 -173 -28q-104 0 -145.5 59.5t-22.5 161.5z" />
    <glyph glyph-name="uni044A" unicode="&#x44a;" horiz-adv-x="606" 
d="M304 376q45 9 81 9q99 0 149 -53t32 -153q-16 -94 -78.5 -144t-163.5 -50q-118 0 -194 31q-22 10 -28.5 21.5t-1.5 36.5l56 312h-94q-20 0 -27 8t-3 29l10 60q4 21 13.5 29t30.5 8h207q20 0 26.5 -8t2.5 -29zM263 124q27 -7 66 -7q78 0 90 70q7 38 -11 55t-61 17
q-29 0 -65 -6l-22 -122q-2 -5 3 -7z" />
    <glyph glyph-name="uni044B" unicode="&#x44b;" horiz-adv-x="732" 
d="M211 375q50 10 81 10q99 -1 148.5 -53.5t32.5 -152.5q-17 -94 -79.5 -144t-162.5 -50q-118 0 -194 31q-22 10 -28.5 21.5t-1.5 36.5l74 409q4 21 13.5 29t30.5 8h75q20 0 26.5 -8t2.5 -29zM684 520q20 0 27 -8t3 -29l-78 -446q-4 -21 -13.5 -29t-30.5 -8h-78
q-20 0 -26.5 8t-2.5 29l78 446q4 21 13.5 29t29.5 8h78zM170 124q27 -7 66 -7q36 0 60 18.5t30 52.5q7 38 -11 54.5t-61 16.5q-27 0 -65 -6l-22 -122q-2 -5 3 -7z" />
    <glyph glyph-name="uni044C" unicode="&#x44c;" horiz-adv-x="513" 
d="M211 375q50 10 81 10q99 -1 148.5 -53.5t32.5 -152.5q-17 -94 -79.5 -144t-162.5 -50q-118 0 -194 31q-22 10 -28.5 21.5t-1.5 36.5l74 409q4 21 13.5 29t30.5 8h75q20 0 26.5 -8t2.5 -29zM170 124q27 -7 66 -7q36 0 60 18.5t30 52.5q7 38 -11 54.5t-61 16.5
q-27 0 -65 -6l-22 -122q-2 -5 3 -7z" />
    <glyph glyph-name="uni044D" unicode="&#x44d;" horiz-adv-x="512" 
d="M45 407q30 59 89.5 93.5t145.5 34.5q118 0 168 -59.5t32 -160.5l-23 -126q-17 -101 -79 -152.5t-178 -51.5q-175 0 -207 133q-5 22 3.5 33.5t31.5 19.5l62 18q23 6 32.5 1.5t14.5 -23.5q16 -55 75 -55q83 0 95 76l3 12l-118 1q-20 0 -26.5 7.5t-3.5 27.5l10 53
q3 19 12.5 27t29.5 8h118l1 10q7 40 -9.5 57.5t-59.5 17.5q-60 0 -91 -50q-23 -38 -57 -24l-55 19q-20 8 -24 19t8 34z" />
    <glyph glyph-name="uni044E" unicode="&#x44e;" horiz-adv-x="768" 
d="M275 343q38 192 264 192q114 0 164.5 -59.5t33.5 -159.5l-23 -130q-36 -201 -265 -201q-111 0 -162.5 53.5t-38.5 150.5l1 6h-66l-28 -158q-4 -21 -13.5 -29t-29.5 -8h-78q-21 0 -27.5 8t-2.5 29l78 446q4 21 13.5 29t30.5 8h78q20 0 26.5 -8t2.5 -29l-26 -150h66z
M587 326q14 75 -69 75q-81 0 -95 -75l-24 -132q-14 -75 68 -75t96 75z" />
    <glyph glyph-name="uni044F" unicode="&#x44f;" horiz-adv-x="535" 
d="M486 520q21 0 27.5 -8t2.5 -29l-76 -446q-4 -21 -13.5 -29t-30.5 -8h-78q-21 0 -27.5 8t-2.5 29l22 124h-67l-89 -128q-14 -22 -28.5 -27.5t-46.5 -5.5h-68q-32 0 -35.5 11t15.5 34l107 141q-76 44 -55 163q15 83 71.5 127t142.5 44h229zM258 392q-24 0 -41 -15.5
t-21 -37.5q-5 -23 7 -37t37 -14h92l18 104h-92z" />
    <glyph glyph-name="uni0451" unicode="&#x451;" horiz-adv-x="536" 
d="M248 723q36 0 47.5 -14t5.5 -50l-2 -11q-7 -36 -23.5 -49.5t-52.5 -13.5h-7q-36 0 -47.5 13.5t-5.5 49.5l2 11q7 36 23 50t52 14h8zM454 723q37 0 48 -14t4 -50l-2 -11q-6 -36 -22 -49.5t-52 -13.5h-7q-37 0 -49 14t-5 49l2 11q6 36 22.5 50t53.5 14h7zM39 330
q18 99 89.5 152t187.5 53q105 0 161.5 -51.5t42.5 -136.5q-25 -142 -242 -142q-42 0 -110 9l-4 -26q-15 -79 75 -79q69 0 106 40q17 18 28.5 21t31.5 -8l45 -27q34 -21 5 -59q-71 -91 -238 -91q-122 0 -170 66t-29 168zM373 361q4 26 -15.5 40t-61.5 14t-70 -21.5t-36 -58.5
l-3 -13q64 -8 97 -8q80 0 89 47z" />
    <glyph glyph-name="Wgrave" unicode="&#x1e80;" horiz-adv-x="915" 
d="M489 907q26 26 66 2l126 -83q12 -8 11 -15.5t-15 -22.5l-24 -25q-13 -14 -46 -2l-164 62q-16 7 -15.5 15.5t16.5 24.5zM942 710q22 0 25.5 -9.5t-5.5 -30.5l-265 -636q-9 -21 -21.5 -27.5t-34.5 -6.5h-87q-22 0 -32 6.5t-11 25.5l-25 323q-2 76 9 137h-9
q-12 -65 -41 -137l-139 -321q-9 -21 -21 -27.5t-35 -6.5h-82q-22 0 -32.5 6.5t-11.5 25.5l-44 638q-2 22 5 31t29 9h92q26 0 36.5 -7t11.5 -29l6 -308q1 -28 -4 -83t-8 -71h7q4 22 19 73t28 81l134 308q9 21 22.5 28.5t37.5 7.5h73q25 0 36 -7.5t12 -28.5l23 -308
q3 -33 0.5 -84t-6.5 -70h7q17 76 44 154l111 308q8 22 20.5 29t39.5 7h86z" />
    <glyph glyph-name="wgrave" unicode="&#x1e81;" horiz-adv-x="746" 
d="M370 731q28 27 66 2l126 -84q12 -8 10.5 -16t-15.5 -22l-24 -24q-14 -15 -45 -3l-165 64q-15 7 -14.5 15.5t16.5 24.5zM735 520q26 0 30.5 -9t-7.5 -34l-198 -444q-14 -33 -56 -33h-63q-41 0 -45 33l-17 199q-2 29 -1 56t2 46l2 18h-5q-17 -65 -40 -120l-88 -199
q-15 -33 -56 -33h-54q-22 0 -33 7t-12 26l-46 444q-4 25 4 34t34 9h57q34 0 46 -7t12 -30l6 -172q1 -21 -1.5 -55.5t-5.5 -58.5l-2 -24h6q21 87 43 138l77 171q11 24 23 31t45 7h36q33 0 42.5 -7t11.5 -30l18 -172q2 -30 1 -60.5t-3 -54.5l-3 -23h6q15 77 38 138l66 171
q10 24 24 31t48 7h58z" />
    <glyph glyph-name="Wacute" unicode="&#x1e82;" horiz-adv-x="915" 
d="M590 909q47 24 66 -3l28 -43q11 -16 8.5 -24.5t-20.5 -15.5l-186 -62q-36 -12 -45 2l-15 25q-9 14 -7.5 22.5t15.5 15.5zM942 710q22 0 25.5 -9.5t-5.5 -30.5l-265 -636q-9 -21 -21.5 -27.5t-34.5 -6.5h-87q-22 0 -32 6.5t-11 25.5l-25 323q-2 76 9 137h-9
q-12 -65 -41 -137l-139 -321q-9 -21 -21 -27.5t-35 -6.5h-82q-22 0 -32.5 6.5t-11.5 25.5l-44 638q-2 22 5 31t29 9h92q26 0 36.5 -7t11.5 -29l6 -308q1 -28 -4 -83t-8 -71h7q4 22 19 73t28 81l134 308q9 21 22.5 28.5t37.5 7.5h73q25 0 36 -7.5t12 -28.5l23 -308
q3 -33 0.5 -84t-6.5 -70h7q17 76 44 154l111 308q8 22 20.5 29t39.5 7h86z" />
    <glyph glyph-name="wacute" unicode="&#x1e83;" horiz-adv-x="746" 
d="M470 733q48 24 66 -2l29 -43q11 -16 8.5 -24.5t-20.5 -15.5l-186 -64q-36 -12 -45 3l-16 24q-16 25 9 38zM735 520q26 0 30.5 -9t-7.5 -34l-198 -444q-14 -33 -56 -33h-63q-41 0 -45 33l-17 199q-2 29 -1 56t2 46l2 18h-5q-17 -65 -40 -120l-88 -199q-15 -33 -56 -33h-54
q-22 0 -33 7t-12 26l-46 444q-4 25 4 34t34 9h57q34 0 46 -7t12 -30l6 -172q1 -21 -1.5 -55.5t-5.5 -58.5l-2 -24h6q21 87 43 138l77 171q11 24 23 31t45 7h36q33 0 42.5 -7t11.5 -30l18 -172q2 -30 1 -60.5t-3 -54.5l-3 -23h6q15 77 38 138l66 171q10 24 24 31t48 7h58z
" />
    <glyph glyph-name="Wdieresis" unicode="&#x1e84;" horiz-adv-x="915" 
d="M469 902q37 0 48.5 -13.5t5.5 -49.5l-2 -11q-6 -35 -22.5 -49.5t-53.5 -14.5h-8q-36 0 -47 14t-5 50l3 11q6 36 21.5 49.5t52.5 13.5h7zM675 902q37 0 48.5 -13.5t5.5 -49.5l-2 -11q-7 -36 -23.5 -50t-52.5 -14h-7q-36 0 -47.5 14t-5.5 50l2 11q7 36 23 49.5t52 13.5h7z
M942 710q22 0 25.5 -9.5t-5.5 -30.5l-265 -636q-9 -21 -21.5 -27.5t-34.5 -6.5h-87q-22 0 -32 6.5t-11 25.5l-25 323q-2 76 9 137h-9q-12 -65 -41 -137l-139 -321q-9 -21 -21 -27.5t-35 -6.5h-82q-22 0 -32.5 6.5t-11.5 25.5l-44 638q-2 22 5 31t29 9h92q26 0 36.5 -7
t11.5 -29l6 -308q1 -28 -4 -83t-8 -71h7q4 22 19 73t28 81l134 308q9 21 22.5 28.5t37.5 7.5h73q25 0 36 -7.5t12 -28.5l23 -308q3 -33 0.5 -84t-6.5 -70h7q17 76 44 154l111 308q8 22 20.5 29t39.5 7h86z" />
    <glyph glyph-name="wdieresis" unicode="&#x1e85;" horiz-adv-x="746" 
d="M350 723q36 0 47.5 -14t5.5 -50l-2 -11q-7 -36 -23.5 -49.5t-52.5 -13.5h-7q-36 0 -47.5 13.5t-5.5 49.5l2 11q7 36 23 50t52 14h8zM556 723q37 0 48 -14t4 -50l-2 -11q-6 -36 -22 -49.5t-52 -13.5h-7q-37 0 -49 14t-5 49l2 11q6 36 22.5 50t53.5 14h7zM735 520
q26 0 30.5 -9t-7.5 -34l-198 -444q-14 -33 -56 -33h-63q-41 0 -45 33l-17 199q-2 29 -1 56t2 46l2 18h-5q-17 -65 -40 -120l-88 -199q-15 -33 -56 -33h-54q-22 0 -33 7t-12 26l-46 444q-4 25 4 34t34 9h57q34 0 46 -7t12 -30l6 -172q1 -21 -1.5 -55.5t-5.5 -58.5l-2 -24h6
q21 87 43 138l77 171q11 24 23 31t45 7h36q33 0 42.5 -7t11.5 -30l18 -172q2 -30 1 -60.5t-3 -54.5l-3 -23h6q15 77 38 138l66 171q10 24 24 31t48 7h58z" />
    <glyph glyph-name="Ygrave" unicode="&#x1ef2;" horiz-adv-x="655" 
d="M357 907q26 26 66 2l126 -83q12 -8 11 -15.5t-15 -22.5l-24 -25q-13 -15 -45 -2l-165 62q-16 7 -15 15.5t17 24.5zM695 710q22 0 25 -12t-11 -29l-304 -393l-42 -235q-4 -23 -14.5 -32t-33.5 -9h-81q-23 0 -30 9t-3 32l41 237l-166 391q-8 17 -1 29t29 12h90
q38 0 51 -5.5t22 -30.5l85 -233l169 233q17 25 32 30.5t53 5.5h89z" />
    <glyph glyph-name="ygrave" unicode="&#x1ef3;" horiz-adv-x="557" 
d="M271 731q28 27 66 2l126 -84q12 -8 10.5 -15.5t-15.5 -22.5l-24 -24q-15 -15 -46 -3l-164 64q-16 8 -15 15.5t17 24.5zM508 520q20 0 26.5 -8t2.5 -29l-86 -493q-39 -220 -267 -220q-150 0 -193 96q-19 37 25 58l57 27q24 11 35 8t21 -21q21 -38 75 -38q79 0 94 81l7 41
q-38 -7 -94 -7q-108 0 -151.5 58.5t-25.5 160.5l43 249q4 21 13.5 29t30.5 8h77q21 0 27.5 -8t2.5 -29l-45 -256q-13 -75 73 -75q34 0 73 7l57 324q4 21 13.5 29t30.5 8h78z" />
    <glyph glyph-name="endash" unicode="&#x2013;" horiz-adv-x="565" 
d="M477 338q23 0 30.5 -9t3.5 -32l-11 -61q-4 -23 -14.5 -32t-33.5 -9h-379q-23 0 -30 9t-3 32l10 61q4 23 14.5 32t33.5 9h379z" />
    <glyph glyph-name="emdash" unicode="&#x2014;" horiz-adv-x="768" 
d="M682 338q22 0 29.5 -9t3.5 -32l-11 -62q-4 -23 -14.5 -32t-33.5 -9h-583q-22 0 -29.5 9t-3.5 32l11 62q4 23 14.5 32t33.5 9h583z" />
    <glyph glyph-name="quoteleft" unicode="&#x2018;" horiz-adv-x="237" 
d="M140 674q8 20 18.5 28.5t30.5 8.5h35q18 0 22.5 -5.5t2.5 -22.5l-31 -204q-4 -25 -15 -34.5t-35 -9.5h-65q-53 0 -35 44z" />
    <glyph glyph-name="quoteright" unicode="&#x2019;" horiz-adv-x="231" 
d="M189 471q-8 -20 -18.5 -28t-30.5 -8h-35q-18 0 -22.5 5.5t-2.5 21.5l31 204q5 26 15.5 35.5t35.5 9.5h64q54 0 35 -45z" />
    <glyph glyph-name="quotesinglbase" unicode="&#x201a;" horiz-adv-x="224" 
d="M89 -117q-5 -21 -15 -29t-30 -8h-41q-21 0 -27.5 8t-2.5 29l34 190q4 21 13.5 29t29.5 8h64q21 0 28.5 -8.5t1.5 -28.5z" />
    <glyph glyph-name="quotedblleft" unicode="&#x201c;" horiz-adv-x="415" 
d="M141 675q8 21 18 29t30 8h36q17 0 22 -5.5t3 -22.5l-32 -203q-4 -26 -14.5 -35.5t-35.5 -9.5h-64q-53 0 -36 45zM319 675q8 21 18 29t31 8h35q18 0 22.5 -5.5t2.5 -22.5l-31 -203q-5 -26 -15.5 -35.5t-35.5 -9.5h-64q-53 0 -36 45z" />
    <glyph glyph-name="quotedblright" unicode="&#x201d;" horiz-adv-x="410" 
d="M188 469q-8 -20 -18 -28t-30 -8h-36q-17 0 -22 5.5t-3 21.5l32 204q4 25 14.5 34.5t35.5 9.5h64q53 0 36 -44zM367 469q-8 -20 -18.5 -28t-30.5 -8h-35q-18 0 -22.5 5.5t-2.5 21.5l32 204q4 25 14.5 34.5t35.5 9.5h64q53 0 36 -44z" />
    <glyph glyph-name="quotedblbase" unicode="&#x201e;" horiz-adv-x="419" 
d="M92 -87q-8 -21 -18 -29t-31 -8h-35q-18 0 -22.5 5.5t-2.5 22.5l31 203q5 26 15.5 35.5t35.5 9.5h64q53 0 36 -45zM270 -87q-8 -21 -18 -29t-30 -8h-35q-18 0 -22.5 5.5t-2.5 22.5l31 203q5 26 15 35.5t35 9.5h64q55 0 36 -45z" />
    <glyph glyph-name="dagger" unicode="&#x2020;" horiz-adv-x="529" 
d="M500 518q22 0 29.5 -8.5t3.5 -31.5l-12 -67q-4 -23 -14.5 -32t-33.5 -9h-122l-75 -429q-5 -23 -15 -32t-33 -9h-71q-23 0 -30 9t-3 32l75 429h-122q-23 0 -30.5 9t-2.5 32l12 67q4 23 14.5 31.5t33.5 8.5h122l26 151q5 23 15 32t33 9h70q23 0 30.5 -9t3.5 -32l-26 -151
h122z" />
    <glyph glyph-name="daggerdbl" unicode="&#x2021;" horiz-adv-x="553" 
d="M383 710q23 0 30.5 -9t3.5 -32l-27 -151h122q23 0 30.5 -8.5t3.5 -31.5l-12 -67q-4 -23 -15 -32t-34 -9h-122l-22 -130h122q23 0 30.5 -9t3.5 -32l-12 -67q-4 -22 -14.5 -31t-33.5 -9h-122l-26 -151q-4 -23 -14.5 -32t-33.5 -9h-71q-23 0 -30.5 9t-3.5 32l27 151h-122
q-22 0 -29.5 8.5t-3.5 31.5l12 67q5 23 15 32t32 9h122l22 130h-122q-23 0 -29.5 9t-2.5 32l12 67q4 22 14 31t33 9h122l26 151q4 23 14.5 32t33.5 9h71z" />
    <glyph glyph-name="bullet" unicode="&#x2022;" horiz-adv-x="391" 
d="M165 126q-59 0 -91 39.5t-21 98.5t56.5 98t104.5 39q58 0 90 -39t22 -98q-11 -59 -57 -98.5t-104 -39.5z" />
    <glyph glyph-name="ellipsis" unicode="&#x2026;" horiz-adv-x="759" 
d="M109 162q43 0 56.5 -16.5t6.5 -59.5l-4 -19q-7 -43 -26.5 -59t-62.5 -16h-17q-43 0 -56 16t-6 59l4 19q7 43 26 59.5t62 16.5h17zM365 162q43 0 56 -16t6 -60l-4 -19q-8 -43 -26.5 -59t-61.5 -16h-17q-43 0 -56.5 16t-5.5 59l3 19q7 43 26.5 59.5t62.5 16.5h17zM620 162
q43 0 56 -16.5t6 -59.5l-3 -19q-7 -43 -26.5 -59t-62.5 -16h-17q-43 0 -56 16t-6 59l4 19q7 43 26 59.5t62 16.5h17z" />
    <glyph glyph-name="perthousand" unicode="&#x2030;" horiz-adv-x="1220" 
d="M77 574q12 71 63.5 111.5t134.5 40.5t120.5 -40.5t24.5 -111.5l-13 -72q-12 -70 -63.5 -109.5t-134.5 -39.5t-120.5 39.5t-24.5 109.5zM790 710q20 0 23.5 -11.5t-10.5 -27.5l-579 -635q-22 -24 -36 -30t-50 -6h-59q-22 0 -25 12t12 29l580 635q20 23 33.5 28.5t46.5 5.5
h64zM299 568q4 21 -7.5 32t-36.5 11q-53 0 -59 -43l-10 -57q-9 -45 43 -45t61 45zM458 206q12 71 64 111t134 40q83 0 120.5 -40t25.5 -111l-14 -72q-12 -71 -63.5 -110.5t-134.5 -39.5q-82 0 -119.5 39.5t-25.5 110.5zM833 206q12 71 64 111t135 40q82 0 119.5 -40
t25.5 -111l-13 -72q-13 -71 -64.5 -110.5t-133.5 -39.5q-83 0 -120.5 39.5t-25.5 110.5zM681 199q3 22 -8 33t-37 11q-51 0 -59 -44l-10 -57q-9 -44 44 -44q51 0 60 44zM1056 199q8 44 -44 44t-60 -44l-10 -57q-8 -44 44 -44t60 44z" />
    <glyph glyph-name="guilsinglleft" unicode="&#x2039;" horiz-adv-x="362" 
d="M282 148q18 -20 -8 -45l-51 -48q-24 -24 -45 0l-153 184q-18 24 8 46l217 186q24 22 46 0l38 -41q11 -13 9.5 -22t-17.5 -22l-140 -121z" />
    <glyph glyph-name="guilsinglright" unicode="&#x203a;" horiz-adv-x="368" 
d="M69 392q-19 22 8 45l51 41q28 23 46 0l156 -193q18 -22 -8 -46l-216 -184q-27 -22 -46 0l-43 54q-20 25 8 46l142 117z" />
    <glyph glyph-name="fraction" unicode="&#x2044;" horiz-adv-x="226" 
d="M278 676q16 22 28.5 28t45.5 6h65q21 0 26 -11.5t-7 -27.5l-467 -635q-17 -24 -30 -30t-49 -6h-60q-21 0 -26.5 12t6.5 29z" />
    <glyph glyph-name="zerosuperior" unicode="&#x2070;" horiz-adv-x="380" 
d="M99 680q11 66 58 102t123 36q74 0 109 -42t24 -109l-21 -121q-12 -67 -58.5 -103t-121.5 -36t-110.5 41.5t-23.5 110.5zM293 673q6 32 -31 32t-43 -32l-21 -122q-6 -33 31 -33t42 33z" />
    <glyph glyph-name="foursuperior" unicode="&#x2074;" horiz-adv-x="392" 
d="M384 586q21 0 26 -5.5t3 -24.5l-7 -37q-4 -20 -11 -25.5t-29 -5.5h-10l-7 -40q-4 -20 -11.5 -26.5t-26.5 -6.5h-50q-19 0 -24 6.5t-1 26.5l7 40h-161q-20 0 -25.5 7t-2.5 28l5 28q5 24 19 39l196 198q14 14 24 18t30 4h49q23 0 28.5 -7t1.5 -30l-33 -187h10zM274 665
l-78 -79h64z" />
    <glyph glyph-name="fivesuperior" unicode="&#x2075;" horiz-adv-x="367" 
d="M387 810q16 0 21 -6t2 -22l-7 -43q-3 -17 -9.5 -22.5t-23.5 -5.5h-141l-9 -32h40q72 0 103 -37t21 -97q-12 -61 -56 -99.5t-117 -38.5q-128 0 -146 94q-8 37 25 49l39 13q22 8 31 4.5t15 -22.5q11 -36 46 -36q43 0 49 39q5 39 -33 39h-118q-19 0 -24.5 7.5t-0.5 25.5
l45 159q4 18 13 24.5t30 6.5h205z" />
    <glyph glyph-name="sixsuperior" unicode="&#x2076;" horiz-adv-x="379" 
d="M216 661q29 8 59 8q71 0 100.5 -35t18.5 -97q-23 -130 -183 -130q-78 0 -112.5 41t-20.5 113l20 117q26 140 190 140q53 0 86 -21t45 -52q10 -22 -21 -35l-52 -24q-21 -7 -26 -5t-12 12q-15 19 -38 19q-24 0 -36 -8.5t-16 -29.5zM196 548q-7 -36 33 -36q41 0 44 27
q3 14 -5 20t-29 6q-20 0 -41 -7z" />
    <glyph glyph-name="sevensuperior" unicode="&#x2077;" horiz-adv-x="333" 
d="M376 810q18 0 23.5 -6.5t2.5 -24.5l-5 -29q-4 -23 -16 -39l-172 -272q-10 -17 -18 -20.5t-36 -3.5h-47q-24 0 -27.5 9t12.5 33l155 244h-131q-18 0 -23 6.5t-2 24.5l9 46q3 20 10.5 26t25.5 6h239z" />
    <glyph glyph-name="eightsuperior" unicode="&#x2078;" horiz-adv-x="389" 
d="M108 703q10 55 56.5 85t119.5 30t110 -31t29 -81q-10 -53 -60 -81q52 -34 40 -97q-21 -122 -190 -122q-85 0 -121.5 31.5t-27.5 81.5q10 56 78 90q-43 36 -34 94zM302 698q2 13 -5 20.5t-29 7.5q-38 0 -41 -26q-2 -13 8 -20t35 -16q28 15 32 34zM277 528q2 14 -8.5 21.5
t-35.5 16.5q-38 -18 -42 -38q-2 -13 6.5 -21t33.5 -8q40 0 46 29z" />
    <glyph glyph-name="ninesuperior" unicode="&#x2079;" horiz-adv-x="380" 
d="M273 563q-29 -8 -60 -8q-71 0 -100 37t-18 99q24 127 182 127q78 0 113 -40t22 -112l-21 -116q-25 -143 -189 -143q-54 0 -89 19.5t-46 49.5q-10 24 22 38l50 24q22 7 27 5t11 -12q15 -19 41 -19q47 0 52 39zM293 676q6 36 -34 36q-39 0 -44 -26q-3 -15 5 -21t29 -6
q19 0 42 7z" />
    <glyph glyph-name="zeroinferior" unicode="&#x2080;" horiz-adv-x="380" 
d="M4 146q12 66 59 102t122 36q74 0 109.5 -41.5t24.5 -108.5l-22 -122q-12 -67 -58.5 -103t-121.5 -36t-110.5 42t-23.5 110zM198 140q6 31 -30 31q-37 0 -43 -31l-22 -123q-6 -33 32 -33q36 0 42 33z" />
    <glyph glyph-name="oneinferior" unicode="&#x2081;" horiz-adv-x="287" 
d="M192 276q25 0 33.5 -9.5t4.5 -33.5l-55 -312q-4 -23 -14.5 -31.5t-33.5 -8.5h-40q-23 0 -30 8.5t-3 31.5l36 206l-35 -18q-39 -20 -54 14l-14 31q-13 33 27 54l109 57q21 11 48 11h21z" />
    <glyph glyph-name="twoinferior" unicode="&#x2082;" horiz-adv-x="367" 
d="M15 190q54 94 170 94q69 0 102 -38t24 -93q-9 -54 -37.5 -86.5t-89.5 -50.5l-53 -14q-28 -5 -29 -12l-1 -2h139q20 0 26.5 -8t2.5 -27l-7 -38q-3 -18 -12 -26t-28 -8h-230q-20 0 -26.5 7.5t-3.5 26.5l5 29q10 56 33.5 85.5t79.5 49.5l56 20q26 9 36 18t13 28
q2 12 -4 19.5t-19 7.5q-27 0 -43 -24q-14 -22 -23.5 -26.5t-30.5 2.5l-35 14q-20 8 -23.5 19t8.5 33z" />
    <glyph glyph-name="threeinferior" unicode="&#x2083;" horiz-adv-x="373" 
d="M9 190q52 94 174 94q68 0 101.5 -32t25.5 -86q-5 -29 -16.5 -46t-37.5 -32q47 -33 34 -103q-20 -112 -175 -112q-129 0 -145 93q-4 21 2 32t25 17l38 13q22 7 32 2t15 -26q8 -27 49 -27q37 0 42 24q6 27 -26 27h-29q-21 0 -26 6t-1 27l7 35q5 24 11.5 30t30.5 6h19
q31 0 36 25q2 12 -5 18t-23 6q-43 0 -60 -26q-14 -23 -25 -27t-35 5l-24 10q-17 8 -20 17t6 30z" />
    <glyph glyph-name="fourinferior" unicode="&#x2084;" horiz-adv-x="392" 
d="M289 53q22 0 27 -6t2 -25l-7 -37q-4 -19 -11 -25t-28 -6h-11l-6 -40q-4 -19 -11.5 -26t-26.5 -7h-51q-19 0 -24 7t-1 26l7 40h-160q-21 0 -26.5 7t-1.5 28l4 29q5 24 19 38l196 198q22 22 54 22h50q22 0 27.5 -7t1.5 -30l-33 -186h10zM179 131l-77 -78h64z" />
    <glyph glyph-name="fiveinferior" unicode="&#x2085;" horiz-adv-x="367" 
d="M293 276q16 0 21 -6t2 -22l-7 -43q-3 -17 -9.5 -22t-23.5 -5h-141l-9 -32h40q72 0 103 -37.5t21 -96.5q-12 -62 -56 -100.5t-117 -38.5q-127 0 -146 95q-8 36 25 48l39 14q22 7 31 3.5t15 -21.5q10 -37 46 -37q19 0 32.5 10.5t16.5 28.5q5 39 -33 39h-118
q-19 0 -24.5 7.5t-0.5 25.5l45 160q4 18 13 24t30 6h205z" />
    <glyph glyph-name="sixinferior" unicode="&#x2086;" horiz-adv-x="380" 
d="M122 127q32 9 59 9q72 0 101 -35.5t18 -97.5q-23 -130 -183 -130q-78 0 -112 41t-21 114l21 116q25 140 189 140q53 0 86 -20.5t45 -51.5q9 -23 -20 -36l-53 -24q-21 -7 -26 -5t-12 12q-15 19 -38 19q-46 0 -52 -38zM102 14q-7 -36 33 -36t45 27q2 14 -6 20t-29 6
q-20 0 -41 -7z" />
    <glyph glyph-name="seveninferior" unicode="&#x2087;" horiz-adv-x="333" 
d="M282 276q19 0 24 -6.5t2 -24.5l-5 -29q-4 -21 -15 -39l-173 -272q-10 -16 -18.5 -20t-35.5 -4h-47q-24 0 -27 9t12 33l156 244h-132q-18 0 -22.5 7t-1.5 25l8 45q3 20 10.5 26t25.5 6h239z" />
    <glyph glyph-name="eightinferior" unicode="&#x2088;" horiz-adv-x="390" 
d="M15 170q9 54 55.5 84t119.5 30t110 -31t29 -81q-10 -52 -60 -80q52 -33 40 -98q-21 -121 -190 -121q-85 0 -121.5 31.5t-26.5 81.5q9 56 77 90q-44 36 -33 94zM208 165q2 13 -5 20t-29 7q-38 0 -41 -26q-1 -12 9.5 -19.5t33.5 -15.5q28 13 32 34zM183 -6q2 14 -8.5 22
t-34.5 16q-40 -18 -42 -37q-3 -13 5.5 -21.5t33.5 -8.5q40 0 46 29z" />
    <glyph glyph-name="nineinferior" unicode="&#x2089;" horiz-adv-x="380" 
d="M179 30q-29 -8 -60 -8q-71 0 -99.5 37t-17.5 99q11 63 58 95t123 32q79 0 113.5 -39.5t21.5 -112.5l-21 -116q-25 -143 -189 -143q-54 0 -89 19.5t-46 49.5q-10 23 22 38l50 24q22 7 27 5.5t12 -12.5q13 -19 40 -19q24 0 36.5 8.5t16.5 30.5zM199 143q3 19 -5 27.5
t-29 8.5q-39 0 -44 -26q-3 -15 5 -21t30 -6t41 8z" />
    <glyph glyph-name="Euro" unicode="&#x20ac;" horiz-adv-x="741" 
d="M178 496q23 113 110 171t223 58q94 0 147 -31.5t79 -89.5q10 -23 4.5 -38.5t-31.5 -26.5l-55 -23q-26 -12 -39 -8.5t-24 23.5l-2 2q-1 2 -2.5 4.5t-5 6t-8 7t-10 7.5t-13.5 7t-17.5 5.5t-21.5 4t-26 1.5q-58 0 -98 -23t-47 -65l-2 -9h209q21 0 25.5 -7.5t-4.5 -26.5
l-19 -41q-16 -32 -52 -32h-183l-8 -43h171q20 0 24.5 -7.5t-4.5 -26.5l-19 -41q-16 -32 -53 -32h-132l-1 -6q-8 -44 23 -64t88 -20q76 0 124 48q19 20 32.5 23.5t36.5 -8.5l56 -28q43 -22 7 -67q-88 -115 -277 -115q-135 0 -204.5 57.5t-49.5 170.5l1 9h-90q-20 0 -24.5 7.5
t4.5 26.5l19 41q15 32 52 32h59l7 43h-46q-19 0 -23.5 7.5t3.5 26.5l19 41q15 32 52 32h13z" />
    <glyph glyph-name="uni20BD" unicode="&#x20bd;" horiz-adv-x="685" 
d="M250 202h271q20 0 27 -8t3 -29l-7 -37q-4 -20 -13.5 -28t-29.5 -8h-272l-8 -51q-4 -23 -14.5 -32t-33.5 -9h-81q-23 0 -30.5 9t-3.5 32l9 51h-34q-21 0 -27.5 8t-2.5 28l7 37q3 21 12.5 29t30.5 8h34l82 467q5 23 15 32t33 9h279q107 0 158 -67.5t31 -177.5
q-18 -106 -88 -158.5t-181 -52.5h-157zM284 400h138q41 0 66.5 22t31.5 60q8 37 -10.5 59t-59.5 22h-137z" />
    <glyph glyph-name="uni2113" unicode="&#x2113;" horiz-adv-x="455" 
d="M151 519q20 114 76.5 163.5t127.5 49.5q73 0 103.5 -43.5t17.5 -116.5q-16 -89 -70 -169.5t-175 -168.5l-8 -47q-12 -62 42 -62q19 0 40 12q24 15 36 -2l36 -55q15 -22 -9 -39q-62 -47 -135 -47q-76 0 -115.5 35.5t-31.5 105.5l1 6l-10 -6q-31 -18 -42 9l-26 57
q-14 29 15 46q26 15 88 54zM346 575q6 36 -14 36q-35 0 -51 -93l-18 -102q68 70 83 159z" />
    <glyph glyph-name="uni2116" unicode="&#x2116;" horiz-adv-x="1066" 
d="M1058 496q-12 -69 -62.5 -106.5t-134.5 -37.5q-82 0 -119 43t-24 115l13 72q25 143 196 143q82 0 119.5 -42.5t24.5 -114.5zM665 710q23 0 30.5 -9t3.5 -32l-111 -628q-4 -23 -14.5 -32t-33.5 -9h-80q-26 0 -36 19l-142 298q-34 70 -51 187h-7q5 -132 -11 -224l-43 -239
q-4 -23 -14.5 -32t-33.5 -9h-77q-22 0 -29.5 9t-3.5 32l111 628q4 23 14 32t33 9h78q28 0 38 -19l146 -303q13 -26 23.5 -57.5t15 -52.5t8.5 -43.5t5 -25.5h7q-14 105 7 221l42 239q5 23 15 32t33 9h77zM837 510q-8 -44 44 -44t60 44l10 57q8 44 -44 44t-60 -44zM989 324
q23 0 30 -9.5t3 -31.5l-8 -49q-5 -23 -15 -31.5t-33 -8.5h-265q-23 0 -30.5 9t-3.5 31l8 49q5 23 15.5 32t32.5 9h266z" />
    <glyph glyph-name="uni2117" unicode="&#x2117;" horiz-adv-x="789" 
d="M44 351q26 150 149 254.5t274 104.5t236.5 -104.5t59.5 -254.5q-27 -151 -149.5 -255t-272.5 -104t-236.5 105t-60.5 254zM128 351q-20 -116 45.5 -196t182.5 -80q115 0 208.5 80t114.5 196q20 117 -45 196t-181 79q-117 0 -210.5 -79t-114.5 -196zM467 533
q61 0 91 -38.5t19 -100.5q-10 -59 -52 -90.5t-105 -31.5h-63l-14 -81q-3 -17 -9 -22t-22 -5h-38q-18 0 -22 5t-1 22l56 316q2 16 8 21t23 5h129zM429 359q21 0 35 12t17 31t-6.5 31t-30.5 12h-56l-15 -86h56z" />
    <glyph glyph-name="trademark" unicode="&#x2122;" horiz-adv-x="622" 
d="M317 695q18 0 22 -5t0 -23l-4 -22q-3 -18 -8.5 -22.5t-23.5 -4.5h-52l-27 -149q-2 -15 -9 -20.5t-25 -5.5h-25q-17 0 -21.5 5t-2.5 21l27 149h-57q-16 0 -19.5 4.5t-0.5 20.5l4 26q3 17 8 21.5t22 4.5h192zM603 695q19 0 23.5 -5t1.5 -23l-36 -198q-2 -16 -7.5 -21
t-23.5 -5h-24q-17 0 -20.5 5t-1.5 21l7 40q2 10 12 48q-3 -5 -8 -11.5t-6 -8.5l-17 -20q-16 -17 -36 -17h-11q-18 0 -26 14l-12 19q-6 10 -8 16q-2 -24 -5 -40l-7 -40q-2 -16 -7.5 -21t-22.5 -5h-24q-17 0 -21 5t-2 21l35 198q4 18 10.5 23t25.5 5h15q13 0 18 -3.5t11 -14.5
l42 -90l73 89q16 19 35 19h17z" />
    <glyph glyph-name="Omega" unicode="&#x2126;" horiz-adv-x="796" 
d="M64 381q27 151 141.5 247.5t265.5 96.5q155 0 235 -97.5t54 -255.5q-23 -134 -142 -219h67q23 0 30.5 -9t3.5 -31l-13 -72q-4 -23 -14.5 -32t-33.5 -9h-252q-32 0 -27 33l11 61q5 23 30 34q69 31 119 95t62 132q18 98 -20 160t-136 62q-92 0 -152 -62t-77 -159
q-13 -73 12.5 -136t86.5 -93q21 -11 16 -35l-10 -59q-6 -33 -38 -33h-252q-22 0 -29.5 9t-3.5 32l12 72q4 23 15 31.5t33 8.5h65q-82 96 -59 228z" />
    <glyph glyph-name="estimated" unicode="&#x212e;" horiz-adv-x="806" 
d="M782 331q-4 -25 -31 -25h-521l-30 -169q65 -62 166 -62q153 0 264 133q10 13 17.5 16t25.5 3h43q14 0 16 -5t-6 -19q-62 -98 -163 -158t-212 -60q-153 0 -242.5 108.5t-62.5 261.5t154.5 261.5t280.5 108.5t242.5 -108.5t62.5 -261.5zM631 571q-66 64 -166 64t-188 -64
l-31 -175h354z" />
    <glyph glyph-name="uni2153" unicode="&#x2153;" horiz-adv-x="917" 
d="M286 715q25 0 34 -9.5t5 -33.5l-56 -312q-4 -22 -14 -31t-33 -9h-40q-23 0 -30.5 8.5t-3.5 31.5l37 206l-35 -18q-40 -21 -55 14l-13 31q-13 33 27 54l108 57q20 11 48 11h21zM744 710q21 0 26 -11.5t-7 -27.5l-467 -635q-17 -24 -30 -30t-49 -6h-53q-21 0 -26.5 12
t6.5 29l468 635q16 22 29 28t46 6h57zM568 309q50 94 173 94q68 0 102 -32t25 -86q-8 -52 -53 -78q46 -34 34 -103q-20 -112 -176 -112q-129 0 -145 94q-7 37 27 48l38 13q22 7 32 2.5t15 -25.5q7 -28 49 -28q39 0 42 24q6 27 -26 27h-29q-20 0 -25 6t-2 27l7 35
q5 24 11.5 30t30.5 6h19q31 0 36 25q2 12 -5 18t-22 6q-44 0 -61 -25q-13 -23 -24 -27.5t-35 4.5l-25 11q-17 7 -20 16t7 30z" />
    <glyph glyph-name="uni2154" unicode="&#x2154;" horiz-adv-x="975" 
d="M96 629q53 94 171 94q68 0 101 -37.5t25 -92.5q-9 -54 -37.5 -86.5t-89.5 -51.5l-53 -13q-29 -7 -30 -12l-1 -2h140q19 0 25.5 -8t2.5 -27l-6 -39q-3 -18 -12 -26t-28 -8h-231q-19 0 -26 7.5t-4 26.5l6 29q10 57 33.5 86.5t78.5 48.5l57 21q25 9 35 17.5t14 28.5
q2 11 -4 19t-19 8q-27 0 -43 -24q-15 -22 -24 -27t-31 2l-35 14q-19 8 -22.5 19t7.5 33zM812 710q21 0 26 -11.5t-7 -27.5l-467 -635q-17 -24 -30 -30t-49 -6h-52q-22 0 -27.5 12t6.5 29l468 635q16 22 29 28t46 6h57zM632 309q52 94 174 94q68 0 101.5 -32t25.5 -86
q-4 -28 -16 -45.5t-38 -32.5q47 -33 34 -103q-20 -112 -175 -112q-130 0 -145 94q-7 37 27 48l38 13q22 7 32 2.5t15 -25.5q7 -28 49 -28q38 0 42 24q6 27 -26 27h-29q-21 0 -26 6t-1 27l7 35q4 24 10.5 30t30.5 6h19q32 0 37 25q2 12 -5 18t-23 6q-44 0 -60 -25
q-14 -23 -25 -27.5t-35 4.5l-24 11q-17 7 -20.5 16t6.5 30z" />
    <glyph glyph-name="oneeighth" unicode="&#x215b;" horiz-adv-x="939" 
d="M286 715q25 0 34 -9.5t5 -33.5l-56 -312q-4 -22 -14 -31t-33 -9h-40q-23 0 -30.5 8.5t-3.5 31.5l37 206l-35 -18q-40 -21 -55 14l-13 31q-13 33 27 54l108 57q20 11 48 11h21zM753 710q20 0 25.5 -11.5t-5.5 -27.5l-467 -635q-18 -24 -31 -30t-49 -6h-52q-21 0 -26.5 12
t6.5 29l468 635q16 22 28.5 28t45.5 6h57zM578 289q9 54 55.5 84t119.5 30t110 -31t29 -81q-10 -52 -60 -80q52 -33 40 -98q-21 -121 -190 -121q-85 0 -121 31.5t-27 81.5q9 56 77 90q-44 36 -33 94zM771 284q3 12 -4 19.5t-30 7.5q-38 0 -41 -26q-1 -12 9.5 -19.5
t33.5 -15.5q28 13 32 34zM746 113q3 14 -8 22t-35 16q-40 -18 -42 -37q-3 -13 5.5 -21.5t33.5 -8.5q40 0 46 29z" />
    <glyph glyph-name="threeeighths" unicode="&#x215c;" horiz-adv-x="960" 
d="M91 631q50 93 173 93q68 0 101.5 -32t25.5 -86q-5 -29 -16.5 -46t-37.5 -32q47 -32 34 -103q-20 -112 -175 -112q-129 0 -145 94q-7 37 27 48l38 13q22 7 32 2.5t15 -25.5q7 -28 49 -28q37 0 42 24q6 27 -26 27h-29q-21 0 -26 6t-1 27l7 35q5 24 11.5 30t30.5 6h19
q31 0 36 25q2 13 -5 19t-23 6q-43 0 -60 -26q-13 -23 -24.5 -27.5t-35.5 4.5l-24 11q-17 7 -20 16.5t7 30.5zM793 709q20 0 25.5 -11.5t-6.5 -26.5l-467 -636q-17 -24 -30.5 -30t-49.5 -6h-52q-21 0 -26.5 12.5t6.5 28.5l468 636q16 22 28.5 27.5t45.5 5.5h58zM604 289
q10 54 56.5 84t119.5 30t110 -31t29 -81q-10 -52 -60 -80q52 -34 40 -98q-21 -121 -191 -121q-85 0 -121 31.5t-27 81.5q10 56 78 90q-43 36 -34 94zM798 284q2 12 -5 19.5t-29 7.5q-38 0 -41 -26q-2 -12 8.5 -19.5t34.5 -15.5q28 13 32 34zM773 113q2 14 -8.5 22t-35.5 16
q-38 -18 -42 -37q-2 -13 6.5 -21.5t33.5 -8.5q40 0 46 29z" />
    <glyph glyph-name="fiveeighths" unicode="&#x215d;" horiz-adv-x="971" 
d="M373 714q16 0 21 -5.5t2 -21.5l-7 -43q-3 -17 -9.5 -22.5t-23.5 -5.5h-141l-9 -32h40q72 0 103 -37.5t20 -96.5q-11 -62 -55 -100.5t-117 -38.5q-127 0 -146 95q-4 21 2 31.5t23 16.5l39 14q22 8 31 4.5t15 -22.5q11 -36 45 -36q44 0 50 39q5 38 -33 38h-118
q-19 0 -24.5 7.5t-0.5 25.5l45 160q4 18 13 24t30 6h205zM789 710q21 0 26 -11.5t-7 -27.5l-467 -635q-17 -24 -30 -30t-49 -6h-53q-21 0 -26.5 12t6.5 29l468 635q16 22 29 28t46 6h57zM615 289q9 54 55.5 84t119.5 30q74 0 111 -31t29 -81q-9 -51 -60 -80q51 -33 40 -98
q-21 -121 -191 -121q-85 0 -121 31.5t-27 81.5q10 56 78 90q-45 36 -34 94zM808 284q3 12 -4 19.5t-29 7.5q-38 0 -41 -26q-2 -12 8.5 -19.5t33.5 -15.5q28 13 32 34zM783 113q3 14 -7.5 22t-35.5 16q-38 -17 -42 -37q-3 -13 5.5 -21.5t33.5 -8.5q40 0 46 29z" />
    <glyph glyph-name="seveneighths" unicode="&#x215e;" horiz-adv-x="915" 
d="M369 715q19 0 24 -6.5t2 -24.5l-5 -29q-4 -22 -15 -39l-173 -272q-9 -16 -17.5 -20t-36.5 -4h-47q-23 0 -26.5 9t11.5 33l156 244h-132q-18 0 -22.5 6.5t-1.5 24.5l8 46q3 20 10.5 26t26.5 6h238zM721 710q21 0 26 -11.5t-7 -27.5l-467 -635q-17 -24 -30.5 -30t-48.5 -6
h-53q-21 0 -26.5 12t6.5 29l468 635q16 22 28.5 28t45.5 6h58zM559 289q9 54 55.5 84t119.5 30t110.5 -31t28.5 -81q-8 -51 -59 -80q51 -33 39 -98q-21 -121 -190 -121q-85 0 -121 31.5t-27 81.5q9 56 77 90q-44 36 -33 94zM752 284q3 12 -4 19.5t-29 7.5q-38 0 -41 -26
q-2 -12 8.5 -19.5t33.5 -15.5q28 13 32 34zM727 113q3 14 -8 22t-35 16q-38 -17 -42 -37q-3 -13 5.5 -21.5t33.5 -8.5q40 0 46 29z" />
    <glyph glyph-name="arrowleft" unicode="&#x2190;" horiz-adv-x="745" 
d="M689 393q33 0 27 -33l-10 -53q-6 -33 -38 -33h-420l85 -105q10 -12 8 -20.5t-16 -20.5l-47 -41q-14 -13 -23.5 -13t-20.5 13l-179 217q-26 30 11 61l256 217q27 23 44 0l34 -42q9 -12 7.5 -20.5t-15.5 -20.5l-124 -106h421z" />
    <glyph glyph-name="arrowup" unicode="&#x2191;" horiz-adv-x="745" 
d="M643 431q18 -23 -8 -44l-49 -40q-25 -22 -41 0l-86 103l-73 -419q-3 -18 -12 -25.5t-27 -7.5h-56q-18 0 -24 7.5t-3 25.5l73 418l-122 -103q-14 -12 -22.5 -11.5t-18.5 11.5l-35 41q-18 21 8 44l256 217q35 32 61 0z" />
    <glyph glyph-name="arrowright" unicode="&#x2192;" horiz-adv-x="745" 
d="M702 365q26 -30 -11 -61l-256 -217q-27 -24 -44 0l-33 41q-9 12 -7.5 20.5t15.5 20.5l121 105h-419q-18 0 -24 7.5t-3 25.5l10 53q6 33 38 33h421l-88 106q-9 12 -7.5 20.5t15.5 20.5l49 42q24 23 43 0z" />
    <glyph glyph-name="arrowdown" unicode="&#x2193;" horiz-adv-x="745" 
d="M465 659q18 0 23.5 -7t2.5 -25l-73 -419l121 103q14 12 23 11.5t19 -11.5l34 -41q19 -20 -8 -43l-255 -218q-36 -32 -61 0l-179 218q-19 23 8 43l48 41q15 11 23.5 11.5t18.5 -11.5l86 -103l74 419q6 32 38 32h57z" />
    <glyph glyph-name="uni2196" unicode="&#x2196;" horiz-adv-x="745" 
d="M623 586q22 0 30.5 -10t4.5 -33l-55 -308q-3 -17 -10.5 -24t-24.5 -7h-61q-16 0 -20 7t-2 24l25 144l-347 -295q-16 -13 -25.5 -13t-20.5 13l-34 39q-19 22 9 47l348 295h-147q-16 0 -21.5 7t-2.5 24l10 58q5 32 37 32h307z" />
    <glyph glyph-name="uni2197" unicode="&#x2197;" horiz-adv-x="745" 
d="M529 586q17 0 23.5 -7t3.5 -25l-11 -58q-5 -31 -36 -31h-146l244 -295q18 -25 -9 -47l-47 -39q-15 -13 -25 -13t-21 13l-243 295l-25 -144q-3 -17 -10 -24t-23 -7h-61q-17 0 -22.5 7t-2.5 24l55 308q7 43 49 43h307z" />
    <glyph glyph-name="uni2198" unicode="&#x2198;" horiz-adv-x="745" 
d="M201 568q15 13 25 13t21 -13l243 -295l26 144q3 17 9.5 24t22.5 7h61q17 0 22.5 -7t2.5 -24l-54 -308q-7 -43 -50 -43h-307q-17 0 -23 7t-3 25l11 58q2 17 10 24t25 7h147l-244 295q-19 25 8 47z" />
    <glyph glyph-name="uni2199" unicode="&#x2199;" horiz-adv-x="745" 
d="M592 568q15 13 25 13t21 -13l33 -39q19 -22 -8 -47l-348 -295h146q17 0 22.5 -7t2.5 -24l-10 -58q-5 -32 -37 -32h-308q-41 0 -34 43l54 308q3 17 10.5 24t24.5 7h62q28 0 22 -31l-26 -144z" />
    <glyph glyph-name="partialdiff" unicode="&#x2202;" 
d="M178 706q4 21 13 29.5t30 8.5q199 0 268.5 -86.5t35.5 -275.5l-35 -198q-17 -98 -86.5 -148.5t-186.5 -50.5q-116 0 -167.5 58.5t-33.5 159.5l17 99q17 95 83.5 147t161.5 52q87 0 119 -38q5 76 -39 110t-157 34q-22 0 -29 8t-5 29zM358 296q12 75 -73 75q-89 0 -101 -75
l-18 -102q-14 -75 74 -75q86 0 100 75z" />
    <glyph glyph-name="Delta" unicode="&#x2206;" horiz-adv-x="662" 
d="M439 710q22 0 31.5 -6.5t13.5 -25.5l108 -514q8 -35 8.5 -41t-2.5 -34l-8 -48q-4 -23 -14.5 -32t-33.5 -9h-526q-23 0 -30.5 9t-3.5 32l9 48q2 14 7 25.5t8.5 18t18.5 31.5l289 514q10 19 22 25.5t33 6.5h70zM389 411q-15 86 -6 154h-10q-19 -77 -60 -154l-145 -280h267z
" />
    <glyph glyph-name="product" unicode="&#x220f;" horiz-adv-x="713" 
d="M716 710q23 0 30.5 -9t3.5 -32l-12 -67q-4 -22 -14.5 -31t-33.5 -9h-49l-109 -621q-5 -23 -15 -32t-33 -9h-80q-23 0 -30.5 9t-3.5 32l109 621h-154l-109 -621q-5 -23 -15 -32t-33 -9h-80q-23 0 -30.5 9t-3.5 32l109 621h-49q-23 0 -30.5 8.5t-3.5 31.5l12 67q5 23 15 32
t33 9h576z" />
    <glyph glyph-name="summation" unicode="&#x2211;" horiz-adv-x="605" 
d="M382 355q13 -26 9.5 -45.5t-25.5 -47.5l-171 -213h290q23 0 30.5 -9t3.5 -32l-12 -67q-5 -23 -15 -32t-33 -9h-455q-23 0 -30.5 9t-3.5 32l11 58q3 20 20 41l224 268l-126 262q-10 17 -6 41l10 58q4 23 14.5 32t33.5 9h445q23 0 30.5 -9t3.5 -32l-12 -67
q-4 -22 -14.5 -31t-33.5 -9h-286z" />
    <glyph glyph-name="minus" unicode="&#x2212;" horiz-adv-x="588" 
d="M510 398q23 0 30 -9t3 -32l-10 -62q-4 -23 -14.5 -32t-33.5 -9h-400q-22 0 -29.5 9t-3.5 32l11 62q5 23 15 32t33 9h399z" />
    <glyph glyph-name="uni2215" unicode="&#x2215;" horiz-adv-x="646" 
d="M544 676q20 23 33.5 28.5t46.5 5.5h64q20 0 23.5 -11.5t-9.5 -27.5l-580 -635q-22 -24 -36 -30t-50 -6h-59q-22 0 -25 12t12 29z" />
    <glyph glyph-name="uni2219" unicode="&#x2219;" horiz-adv-x="264" 
d="M150 355q43 0 56 -16t6 -60l-4 -19q-8 -43 -26.5 -59t-61.5 -16h-17q-43 0 -56.5 16t-6.5 59l4 19q7 43 26.5 59.5t62.5 16.5h17z" />
    <glyph glyph-name="radical" unicode="&#x221a;" horiz-adv-x="737" 
d="M781 751q21 0 25 -9.5t-6 -30.5l-386 -783q-9 -20 -21.5 -27t-34.5 -7h-76q-21 0 -30.5 6.5t-13.5 25.5l-70 373h-115q-23 0 -30.5 9t-2.5 32l11 61q4 23 14.5 32t33.5 9h169q37 0 50.5 -7t17.5 -29l31 -197q5 -39 4 -74.5t-4 -60.5l-3 -25h9q18 85 52 159l232 507
q10 22 24 29t51 7h69z" />
    <glyph glyph-name="infinity" unicode="&#x221e;" horiz-adv-x="719" 
d="M372 372q33 39 77 65t91 26q75 0 113.5 -52.5t24.5 -132.5q-14 -77 -74.5 -123.5t-132.5 -46.5q-96 0 -132 84q-71 -84 -167 -84q-71 0 -111 55t-27 130q14 78 71 124t135 46q90 0 132 -91zM278 287q-2 3 -10.5 14t-11.5 14t-10.5 9.5t-14.5 8.5t-16 2q-25 0 -40.5 -13.5
t-19.5 -34.5q-3 -22 7.5 -36.5t33.5 -14.5q33 0 82 51zM558 287q3 20 -7.5 34t-34.5 14q-35 0 -80 -48q15 -28 28.5 -39.5t33.5 -11.5q23 0 39.5 14.5t20.5 36.5z" />
    <glyph glyph-name="integral" unicode="&#x222b;" horiz-adv-x="405" 
d="M168 535q19 108 80.5 156.5t183.5 48.5q22 0 28.5 -8t2.5 -30l-11 -62q-4 -21 -13.5 -29t-31.5 -8q-47 0 -65 -19t-26 -67l-94 -534q-19 -108 -80 -155.5t-183 -47.5q-22 0 -28.5 8t-2.5 30l11 62q4 21 13.5 29t31.5 8q47 0 64.5 18.5t26.5 66.5z" />
    <glyph glyph-name="approxequal" unicode="&#x2248;" horiz-adv-x="563" 
d="M88 465q61 49 134 50q35 1 89 -16.5t76 -16.5q25 1 52 19q20 15 31 14.5t22 -16.5l34 -48q13 -16 11 -29.5t-22 -28.5q-57 -46 -128 -50q-42 -2 -93 15.5t-72 17.5q-29 0 -57 -19q-20 -15 -30.5 -14.5t-22.5 16.5l-34 48q-13 16 -11 29.5t21 28.5zM57 270q60 49 131 50
q38 1 89.5 -16t73.5 -17q31 1 56 20q20 14 30.5 14t22.5 -16l34 -48q13 -16 11.5 -30t-21.5 -28q-56 -47 -127 -50q-41 -2 -92.5 15.5t-75.5 17.5q-32 -1 -55 -20q-21 -14 -31.5 -14t-22.5 16l-34 49q-13 16 -11 29.5t22 27.5z" />
    <glyph glyph-name="notequal" unicode="&#x2260;" horiz-adv-x="577" 
d="M311 296h175q22 0 29.5 -9t3.5 -32l-11 -62q-5 -23 -15 -32t-32 -9h-247l-53 -75q-6 -9 -10 -10.5t-17 -1.5h-56q-14 0 -3 14l51 73h-65q-23 0 -30 9.5t-3 31.5l11 62q4 23 14 32t33 9h139l41 61h-169q-23 0 -30.5 9t-2.5 32l11 62q4 23 14.5 32t33.5 9h242l52 74
q8 12 25 12h57q13 0 4 -13l-50 -73h69q23 0 30 -9.5t3 -31.5l-10 -62q-4 -23 -15 -32t-34 -9h-142z" />
    <glyph glyph-name="lessequal" unicode="&#x2264;" horiz-adv-x="517" 
d="M506 562q-6 -33 -15 -45.5t-33 -20.5l-199 -68l-1 -6l175 -66q21 -8 26 -20t-1 -46l-10 -58q-5 -27 -15 -34t-33 4l-313 150q-17 9 -22 19t-1 31l7 42q4 21 12.5 31.5t28.5 19.5l366 149q26 12 34 4.5t3 -34.5zM397 166q23 0 30 -9t3 -32l-10 -52q-4 -23 -14 -32t-33 -9
h-333q-23 0 -30.5 9t-3.5 32l10 52q4 23 14.5 32t33.5 9h333z" />
    <glyph glyph-name="greaterequal" unicode="&#x2265;" horiz-adv-x="514" 
d="M111 614q5 28 15 34.5t33 -4.5l312 -149q18 -9 23 -19.5t2 -31.5l-8 -42q-4 -21 -12.5 -31t-29.5 -19l-365 -150q-26 -11 -34 -4t-3 34l10 58q6 33 15.5 45.5t33.5 20.5l198 66l1 6l-175 68q-21 8 -26 20.5t1 45.5zM407 175q23 0 30.5 -9t3.5 -32l-10 -53
q-4 -23 -14.5 -31.5t-33.5 -8.5h-333q-22 0 -29.5 8.5t-3.5 31.5l10 53q4 23 14.5 32t33.5 9h332z" />
    <glyph glyph-name="lozenge" unicode="&#x25ca;" horiz-adv-x="577" 
d="M383 710q20 0 28.5 -7t17.5 -26l128 -294q10 -31 -10 -56l-232 -294q-15 -19 -26 -26t-31 -7h-46q-19 0 -27 6.5t-17 26.5l-129 294q-12 26 10 56l233 294q16 20 26 26.5t29 6.5h46zM328 531l-128 -176l66 -175h6l129 175l-68 176h-5z" />
    <glyph glyph-name="zero.denom" horiz-adv-x="380" 
d="M25 265q12 66 59 102t122 36q74 0 109.5 -41.5t24.5 -108.5l-22 -122q-12 -67 -58.5 -103t-121.5 -36t-110.5 42t-23.5 110zM219 259q6 31 -30 31q-37 0 -43 -31l-22 -123q-6 -32 32 -32q36 0 42 32z" />
    <glyph glyph-name="one.denom" horiz-adv-x="286" 
d="M213 395q25 0 33.5 -9.5t4.5 -33.5l-55 -312q-4 -22 -14.5 -31t-33.5 -9h-40q-23 0 -30 8.5t-3 31.5l36 206l-35 -18q-39 -20 -54 14l-14 31q-13 33 27 54l109 57q18 11 48 11h21z" />
    <glyph glyph-name="two.denom" horiz-adv-x="366" 
d="M36 309q54 94 170 94q69 0 102 -38t24 -93q-8 -54 -36.5 -86.5t-90.5 -50.5l-53 -13q-28 -7 -29 -13l-1 -1h139q20 0 26.5 -8.5t2.5 -26.5l-7 -39q-3 -18 -12 -26t-28 -8h-230q-20 0 -26.5 7.5t-3.5 26.5l5 29q10 56 33.5 85.5t79.5 49.5l57 20q25 9 35 18t14 28
q2 12 -4.5 19.5t-18.5 7.5q-28 0 -43 -23q-15 -22 -24 -27t-31 2l-35 14q-19 8 -22.5 19t7.5 33z" />
    </font>
</defs>
</svg>
